{
.appVersion = "1141";
DisplayStrings = (
"/la-ethiopic",
"/de-ethiopic",
"",
"",
"/ko-ethiopic",
"",
"",
"",

glyphs = (
{
glyphname = .notdef;
lastChange = "2018-11-16 05:15:47 +0000";
layers = (
{
layerId = "C82BC34C-76D5-4A26-949B-BF353CFC0606";
paths = (
{
closed = 1;
nodes = (
"58 8 LINE",
"58 504 LINE",
"442 504 LINE",
"442 8 LINE"
);
},
{
closed = 1;
nodes = (
"50 0 LINE",
"450 0 LINE",
"450 512 LINE",
"50 512 LINE"
);
}
);
userData = {
assembly = "SVTCA[0]\011/* SetFreedomAndProjectionVectorToAxis */
PUSHW[ ]\011/* 1 value pushed */
4 
MDAP[1]\011/* MoveDirectAbsPt */
PUSHW[ ]\011/* 1 value pushed */
0 
RCVT[ ]\011/* ReadCVT */
IF[ ]\011/* If */
PUSHW[ ]\011/* 1 value pushed */
6 
MDAP[1]\011/* MoveDirectAbsPt */
ELSE[ ]\011/* Else */
PUSHW[ ]\011/* 2 values pushed */
6 10 
MIAP[0]\011/* MoveIndirectAbsPt */
EIF[ ]\011/* EndIf */
IUP[0]\011/* InterpolateUntPts */
IUP[1]\011/* InterpolateUntPts */";
};
width = 500;
}
);
note = .notdef;
},
{
glyphname = quotedbl;
lastChange = "2018-11-16 05:15:47 +0000";
layers = (
{
layerId = "C82BC34C-76D5-4A26-949B-BF353CFC0606";
paths = (
{
closed = 1;
nodes = (
"324.236 643.73 OFFCURVE",
"338.546 678.072 OFFCURVE",
"312 694 CURVE",
"284.861 708.803 OFFCURVE",
"262.273 676.729 OFFCURVE",
"253 652 CURVE SMOOTH",
"222.827 568.444 OFFCURVE",
"212.32 526.607 OFFCURVE",
"169 452 CURVE",
"179 446 LINE",
"224.678 524.668 OFFCURVE",
"250.307 546.48 OFFCURVE",
"308 621 CURVE"
);
},
{
closed = 1;
nodes = (
"481.236 643.73 OFFCURVE",
"495.546 678.072 OFFCURVE",
"469 694 CURVE",
"441.861 708.803 OFFCURVE",
"419.273 676.729 OFFCURVE",
"410 652 CURVE SMOOTH",
"379.827 568.444 OFFCURVE",
"369.32 526.607 OFFCURVE",
"326 452 CURVE",
"336 446 LINE",
"381.678 524.668 OFFCURVE",
"407.307 546.48 OFFCURVE",
"465 621 CURVE"
);
}
);
userData = {
assembly = "SVTCA[0]\011/* SetFreedomAndProjectionVectorToAxis */
PUSHW[ ]\011/* 1 value pushed */
5 
MDAP[1]\011/* MoveDirectAbsPt */
PUSHW[ ]\011/* 1 value pushed */
26 
MDAP[1]\011/* MoveDirectAbsPt */
IUP[0]\011/* InterpolateUntPts */
IUP[1]\011/* InterpolateUntPts */";
};
width = 333;
}
);
note = quotedbl;
unicode = 0022;
},
{
glyphname = numbersign;
lastChange = "2018-11-16 05:15:47 +0000";
layers = (
{
layerId = "C82BC34C-76D5-4A26-949B-BF353CFC0606";
paths = (
{
closed = 1;
nodes = (
"331 192 LINE",
"457 192 LINE",
"466 206 LINE",
"339 206 LINE",
"431 346 LINE",
"557 346 LINE",
"566 360 LINE",
"439 360 LINE",
"553 532 LINE",
"495 524 LINE",
"387 360 LINE",
"279 360 LINE",
"393 532 LINE",
"335 524 LINE",
"227 360 LINE",
"115 360 LINE",
"106 346 LINE",
"219 346 LINE",
"127 206 LINE",
"15 206 LINE",
"6 192 LINE",
"119 192 LINE",
"-9 0 LINE",
"52 13 LINE",
"171 192 LINE",
"279 192 LINE",
"151 0 LINE",
"212 13 LINE"
);
},
{
closed = 1;
nodes = (
"287 206 LINE",
"179 206 LINE",
"271 346 LINE",
"379 346 LINE"
);
}
);
userData = {
assembly = "SVTCA[0]\011/* SetFreedomAndProjectionVectorToAxis */
PUSHW[ ]\011/* 1 value pushed */
15 
MDAP[1]\011/* MoveDirectAbsPt */
PUSHW[ ]\011/* 1 value pushed */
19 
MDAP[1]\011/* MoveDirectAbsPt */
PUSHW[ ]\011/* 1 value pushed */
0 
RCVT[ ]\011/* ReadCVT */
IF[ ]\011/* If */
PUSHW[ ]\011/* 1 value pushed */
12 
MDAP[1]\011/* MoveDirectAbsPt */
ELSE[ ]\011/* Else */
PUSHW[ ]\011/* 2 values pushed */
12 14 
MIAP[0]\011/* MoveIndirectAbsPt */
EIF[ ]\011/* EndIf */
PUSHW[ ]\011/* 1 value pushed */
0 
RCVT[ ]\011/* ReadCVT */
IF[ ]\011/* If */
PUSHW[ ]\011/* 1 value pushed */
16 
MDAP[1]\011/* MoveDirectAbsPt */
ELSE[ ]\011/* Else */
PUSHW[ ]\011/* 2 values pushed */
16 14 
MIAP[0]\011/* MoveIndirectAbsPt */
EIF[ ]\011/* EndIf */
PUSHW[ ]\011/* 1 value pushed */
0 
RCVT[ ]\011/* ReadCVT */
IF[ ]\011/* If */
PUSHW[ ]\011/* 1 value pushed */
20 
MDAP[1]\011/* MoveDirectAbsPt */
ELSE[ ]\011/* Else */
PUSHW[ ]\011/* 2 values pushed */
20 14 
MIAP[0]\011/* MoveIndirectAbsPt */
EIF[ ]\011/* EndIf */
PUSHW[ ]\011/* 1 value pushed */
0 
RCVT[ ]\011/* ReadCVT */
IF[ ]\011/* If */
PUSHW[ ]\011/* 1 value pushed */
1 
MDAP[1]\011/* MoveDirectAbsPt */
ELSE[ ]\011/* Else */
PUSHW[ ]\011/* 2 values pushed */
1 10 
MIAP[0]\011/* MoveIndirectAbsPt */
EIF[ ]\011/* EndIf */
PUSHW[ ]\011/* 1 value pushed */
0 
RCVT[ ]\011/* ReadCVT */
IF[ ]\011/* If */
PUSHW[ ]\011/* 1 value pushed */
5 
MDAP[1]\011/* MoveDirectAbsPt */
ELSE[ ]\011/* Else */
PUSHW[ ]\011/* 2 values pushed */
5 10 
MIAP[0]\011/* MoveIndirectAbsPt */
EIF[ ]\011/* EndIf */
PUSHW[ ]\011/* 1 value pushed */
16 
SRP0[ ]\011/* SetRefPoint0 */
PUSHW[ ]\011/* 1 value pushed */
2 
MDRP[11100]\011/* MoveDirectRelPt */
PUSHW[ ]\011/* 1 value pushed */
3 
MDRP[10000]\011/* MoveDirectRelPt */
PUSHW[ ]\011/* 1 value pushed */
6 
MDRP[10000]\011/* MoveDirectRelPt */
PUSHW[ ]\011/* 1 value pushed */
7 
MDRP[10000]\011/* MoveDirectRelPt */
PUSHW[ ]\011/* 3 values pushed */
10 16 2 
SRP1[ ]\011/* SetRefPoint1 */
SRP2[ ]\011/* SetRefPoint2 */
IP[ ]\011/* InterpolatePts */
PUSHW[ ]\011/* 3 values pushed */
11 16 2 
SRP1[ ]\011/* SetRefPoint1 */
SRP2[ ]\011/* SetRefPoint2 */
IP[ ]\011/* InterpolatePts */
PUSHW[ ]\011/* 3 values pushed */
21 1 15 
SRP1[ ]\011/* SetRefPoint1 */
SRP2[ ]\011/* SetRefPoint2 */
IP[ ]\011/* InterpolatePts */
PUSHW[ ]\011/* 3 values pushed */
24 16 2 
SRP1[ ]\011/* SetRefPoint1 */
SRP2[ ]\011/* SetRefPoint2 */
IP[ ]\011/* InterpolatePts */
PUSHW[ ]\011/* 3 values pushed */
25 16 2 
SRP1[ ]\011/* SetRefPoint1 */
SRP2[ ]\011/* SetRefPoint2 */
IP[ ]\011/* InterpolatePts */
PUSHW[ ]\011/* 1 value pushed */
26 
MDRP[10000]\011/* MoveDirectRelPt */
PUSHW[ ]\011/* 1 value pushed */
27 
MDRP[10000]\011/* MoveDirectRelPt */
PUSHW[ ]\011/* 3 values pushed */
28 16 2 
SRP1[ ]\011/* SetRefPoint1 */
SRP2[ ]\011/* SetRefPoint2 */
IP[ ]\011/* InterpolatePts */
PUSHW[ ]\011/* 3 values pushed */
30 16 2 
SRP1[ ]\011/* SetRefPoint1 */
SRP2[ ]\011/* SetRefPoint2 */
IP[ ]\011/* InterpolatePts */
IUP[0]\011/* InterpolateUntPts */
IUP[1]\011/* InterpolateUntPts */";
};
width = 500;
}
);
note = numbersign;
unicode = 0023;
},
{
glyphname = dollar;
lastChange = "2018-11-16 05:15:47 +0000";
layers = (
{
layerId = "C82BC34C-76D5-4A26-949B-BF353CFC0606";
paths = (
{
closed = 1;
nodes = (
"394 314 LINE",
"378 340.667 OFFCURVE",
"364 364.667 OFFCURVE",
"364 398 CURVE SMOOTH",
"364 469.11 OFFCURVE",
"411.398 526 OFFCURVE",
"481 526 CURVE SMOOTH",
"499.667 526 OFFCURVE",
"512.333 525 OFFCURVE",
"527 521 CURVE"
);
},
{
closed = 1;
nodes = (
"370 259 LINE",
"395.333 227 OFFCURVE",
"416 182 OFFCURVE",
"416 146 CURVE SMOOTH",
"416 65.516 OFFCURVE",
"358.922 12 OFFCURVE",
"277 12 CURVE SMOOTH",
"258.333 12 OFFCURVE",
"236.667 14 OFFCURVE",
"218 22 CURVE"
);
},
{
closed = 1;
nodes = (
"578 600 LINE",
"535 533 LINE",
"521.667 535.667 OFFCURVE",
"509.667 538 OFFCURVE",
"491 538 CURVE SMOOTH",
"388.881 538 OFFCURVE",
"316 469.762 OFFCURVE",
"316 380 CURVE SMOOTH",
"316 346.667 OFFCURVE",
"337.333 299.333 OFFCURVE",
"364 266 CURVE",
"209 26 LINE",
"175.667 42 OFFCURVE",
"154 77.333 OFFCURVE",
"154 120 CURVE SMOOTH",
"154 160 OFFCURVE",
"171.333 198.333 OFFCURVE",
"214 225 CURVE",
"203.333 227 OFFCURVE",
"194.667 228 OFFCURVE",
"188 228 CURVE SMOOTH",
"134.667 228 OFFCURVE",
"100 188 OFFCURVE",
"100 128 CURVE SMOOTH",
"100 74.667 OFFCURVE",
"140.333 31 OFFCURVE",
"199 11 CURVE",
"170 -35 LINE",
"178 -40 LINE",
"209 8 LINE",
"227.667 1.333 OFFCURVE",
"248 0 OFFCURVE",
"276 0 CURVE SMOOTH",
"368.157 0 OFFCURVE",
"464 69.859 OFFCURVE",
"464 170 CURVE SMOOTH",
"464 220.462 OFFCURVE",
"437.686 253.64 OFFCURVE",
"401 305 CURVE",
"400 306 LINE",
"536 518 LINE",
"566.667 506 OFFCURVE",
"584 482.333 OFFCURVE",
"584 441 CURVE SMOOTH",
"584 414.333 OFFCURVE",
"577.333 383.667 OFFCURVE",
"556 365 CURVE",
"562 363 OFFCURVE",
"568.333 362 OFFCURVE",
"575 362 CURVE SMOOTH",
"605.667 362 OFFCURVE",
"632 391.333 OFFCURVE",
"632 434 CURVE SMOOTH",
"632 488.667 OFFCURVE",
"591.667 519 OFFCURVE",
"545 531 CURVE",
"586 595 LINE"
);
}
);
userData = {
assembly = "PUSHW[ ]\011/* 4 values pushed */
68 4 60 4 
CALL[ ]\011/* CallFunction */
PUSHW[ ]\011/* 4 values pushed */
8 7 75 4 
CALL[ ]\011/* CallFunction */
PUSHW[ ]\011/* 4 values pushed */
46 7 20 4 
CALL[ ]\011/* CallFunction */
PUSHW[ ]\011/* 4 values pushed */
28 7 36 4 
CALL[ ]\011/* CallFunction */
PUSHW[ ]\011/* 3 values pushed */
0 60 28 
SRP1[ ]\011/* SetRefPoint1 */
SRP2[ ]\011/* SetRefPoint2 */
IP[ ]\011/* InterpolatePts */
NPUSHW[ ]\011/* 15 values pushed */
150 8 166 8 182 8 198 8 214 8 230 8 246 8 7 
DELTAP1[ ]\011/* DeltaExceptionP1 */
NPUSHW[ ]\011/* 33 values pushed */
6 8 22 8 38 8 54 8 70 8 86 8 102 8 118 8 134 8 150 8 166 8 182 8 198 8 214 8 230 8 246 8 16 
DELTAP2[ ]\011/* DeltaExceptionP2 */
NPUSHW[ ]\011/* 9 values pushed */
6 8 22 8 38 8 54 8 4 
DELTAP3[ ]\011/* DeltaExceptionP3 */
NPUSHW[ ]\011/* 5 values pushed */
69 8 85 8 2 
DELTAP3[ ]\011/* DeltaExceptionP3 */
PUSHW[ ]\011/* 3 values pushed */
11 60 28 
SRP1[ ]\011/* SetRefPoint1 */
SRP2[ ]\011/* SetRefPoint2 */
IP[ ]\011/* InterpolatePts */
NPUSHW[ ]\011/* 5 values pushed */
74 20 90 20 2 
DELTAP3[ ]\011/* DeltaExceptionP3 */
NPUSHW[ ]\011/* 15 values pushed */
153 20 169 20 185 20 201 20 217 20 233 20 249 20 7 
DELTAP1[ ]\011/* DeltaExceptionP1 */
NPUSHW[ ]\011/* 33 values pushed */
9 20 25 20 41 20 57 20 73 20 89 20 105 20 121 20 137 20 153 20 169 20 185 20 201 20 217 20 233 20 249 20 16 
DELTAP2[ ]\011/* DeltaExceptionP2 */
NPUSHW[ ]\011/* 9 values pushed */
9 20 25 20 41 20 57 20 4 
DELTAP3[ ]\011/* DeltaExceptionP3 */
PUSHW[ ]\011/* 3 values pushed */
23 60 28 
SRP1[ ]\011/* SetRefPoint1 */
SRP2[ ]\011/* SetRefPoint2 */
IP[ ]\011/* InterpolatePts */
PUSHW[ ]\011/* 3 values pushed */
25 60 28 
SRP1[ ]\011/* SetRefPoint1 */
SRP2[ ]\011/* SetRefPoint2 */
IP[ ]\011/* InterpolatePts */
PUSHW[ ]\011/* 3 values pushed */
33 60 28 
SRP1[ ]\011/* SetRefPoint1 */
SRP2[ ]\011/* SetRefPoint2 */
IP[ ]\011/* InterpolatePts */
NPUSHW[ ]\011/* 5 values pushed */
74 36 90 36 2 
DELTAP3[ ]\011/* DeltaExceptionP3 */
NPUSHW[ ]\011/* 15 values pushed */
153 36 169 36 185 36 201 36 217 36 233 36 249 36 7 
DELTAP1[ ]\011/* DeltaExceptionP1 */
NPUSHW[ ]\011/* 33 values pushed */
9 36 25 36 41 36 57 36 73 36 89 36 105 36 121 36 137 36 153 36 169 36 185 36 201 36 217 36 233 36 249 36 16 
DELTAP2[ ]\011/* DeltaExceptionP2 */
NPUSHW[ ]\011/* 9 values pushed */
9 36 25 36 41 36 57 36 4 
DELTAP3[ ]\011/* DeltaExceptionP3 */
PUSHW[ ]\011/* 3 values pushed */
65 60 28 
SRP1[ ]\011/* SetRefPoint1 */
SRP2[ ]\011/* SetRefPoint2 */
IP[ ]\011/* InterpolatePts */
NPUSHW[ ]\011/* 15 values pushed */
150 68 166 68 182 68 198 68 214 68 230 68 246 68 7 
DELTAP1[ ]\011/* DeltaExceptionP1 */
NPUSHW[ ]\011/* 15 values pushed */
6 68 22 68 38 68 54 68 70 68 86 68 102 68 7 
DELTAP2[ ]\011/* DeltaExceptionP2 */
NPUSHW[ ]\011/* 5 values pushed */
117 68 133 68 2 
DELTAP2[ ]\011/* DeltaExceptionP2 */
PUSHW[ ]\011/* 1 value pushed */
28 
SRP0[ ]\011/* SetRefPoint0 */
PUSHW[ ]\011/* 1 value pushed */
86 
MDRP[11100]\011/* MoveDirectRelPt */
SVTCA[0]\011/* SetFreedomAndProjectionVectorToAxis */
PUSHW[ ]\011/* 1 value pushed */
84 
MDAP[1]\011/* MoveDirectAbsPt */
PUSHW[ ]\011/* 1 value pushed */
55 
MDAP[1]\011/* MoveDirectAbsPt */
PUSHW[ ]\011/* 1 value pushed */
0 
RCVT[ ]\011/* ReadCVT */
IF[ ]\011/* If */
PUSHW[ ]\011/* 1 value pushed */
51 
MDAP[1]\011/* MoveDirectAbsPt */
ELSE[ ]\011/* Else */
PUSHW[ ]\011/* 2 values pushed */
51 10 
MIAP[0]\011/* MoveIndirectAbsPt */
EIF[ ]\011/* EndIf */
PUSHW[ ]\011/* 3 values pushed */
0 55 84 
SRP1[ ]\011/* SetRefPoint1 */
SRP2[ ]\011/* SetRefPoint2 */
IP[ ]\011/* InterpolatePts */
PUSHW[ ]\011/* 3 values pushed */
11 55 84 
SRP1[ ]\011/* SetRefPoint1 */
SRP2[ ]\011/* SetRefPoint2 */
IP[ ]\011/* InterpolatePts */
PUSHW[ ]\011/* 3 values pushed */
23 55 84 
SRP1[ ]\011/* SetRefPoint1 */
SRP2[ ]\011/* SetRefPoint2 */
IP[ ]\011/* InterpolatePts */
PUSHW[ ]\011/* 3 values pushed */
25 55 84 
SRP1[ ]\011/* SetRefPoint1 */
SRP2[ ]\011/* SetRefPoint2 */
IP[ ]\011/* InterpolatePts */
PUSHW[ ]\011/* 3 values pushed */
33 55 84 
SRP1[ ]\011/* SetRefPoint1 */
SRP2[ ]\011/* SetRefPoint2 */
IP[ ]\011/* InterpolatePts */
PUSHW[ ]\011/* 3 values pushed */
65 55 84 
SRP1[ ]\011/* SetRefPoint1 */
SRP2[ ]\011/* SetRefPoint2 */
IP[ ]\011/* InterpolatePts */
IUP[0]\011/* InterpolateUntPts */
IUP[1]\011/* InterpolateUntPts */";
};
width = 500;
}
);
note = dollar;
unicode = 0024;
},
{
glyphname = percent;
lastChange = "2018-11-16 05:15:47 +0000";
layers = (
{
layerId = "C82BC34C-76D5-4A26-949B-BF353CFC0606";
paths = (
{
closed = 1;
nodes = (
"630.348 298 OFFCURVE",
"505 194.853 OFFCURVE",
"505 92 CURVE SMOOTH",
"505 29.333 OFFCURVE",
"537.333 0 OFFCURVE",
"596 0 CURVE SMOOTH",
"700.38 0 OFFCURVE",
"816 128.645 OFFCURVE",
"816 215 CURVE SMOOTH",
"816 257.667 OFFCURVE",
"791 298 OFFCURVE",
"731 298 CURVE SMOOTH"
);
},
{
closed = 1;
nodes = (
"757 286 OFFCURVE",
"772 275 OFFCURVE",
"772 247 CURVE SMOOTH",
"772 167.091 OFFCURVE",
"678.068 12 OFFCURVE",
"595 12 CURVE SMOOTH",
"568.333 12 OFFCURVE",
"549 23.667 OFFCURVE",
"549 53 CURVE SMOOTH",
"549 138.369 OFFCURVE",
"647.47 286 OFFCURVE",
"729 286 CURVE SMOOTH"
);
},
{
closed = 1;
nodes = (
"641 460 LINE",
"519.667 308 OFFCURVE",
"421 184.333 OFFCURVE",
"353 99 CURVE SMOOTH",
"306.909 41.16 OFFCURVE",
"247 -32.313 OFFCURVE",
"247 -36 CURVE SMOOTH",
"247 -39.333 OFFCURVE",
"248.667 -41 OFFCURVE",
"252 -41 CURVE SMOOTH",
"268.529 -41 OFFCURVE",
"342.841 65.63 OFFCURVE",
"366 93 CURVE SMOOTH",
"402.745 136.426 OFFCURVE",
"467.502 215.023 OFFCURVE",
"506.5 261.5 CURVE SMOOTH",
"530.833 290.5 OFFCURVE",
"554 318 OFFCURVE",
"576 344 CURVE SMOOTH",
"587.046 357.255 OFFCURVE",
"636.065 414.131 OFFCURVE",
"659.5 442 CURVE SMOOTH",
"678.903 465.074 OFFCURVE",
"729 523.222 OFFCURVE",
"729 532 CURVE SMOOTH",
"729 541.333 OFFCURVE",
"725.333 546 OFFCURVE",
"718 546 CURVE SMOOTH",
"710 546 OFFCURVE",
"703.167 544 OFFCURVE",
"697.5 540 CURVE SMOOTH",
"691.833 536 OFFCURVE",
"684 526.333 OFFCURVE",
"674 511 CURVE",
"654.161 483.225 OFFCURVE",
"609.196 438 OFFCURVE",
"552 438 CURVE SMOOTH",
"469.352 438 OFFCURVE",
"491.813 532 OFFCURVE",
"393 532 CURVE SMOOTH",
"292.215 532 OFFCURVE",
"168 417.232 OFFCURVE",
"168 317 CURVE SMOOTH",
"168 261 OFFCURVE",
"201.333 228 OFFCURVE",
"256 228 CURVE SMOOTH",
"306.692 228 OFFCURVE",
"365.774 263.356 OFFCURVE",
"408 306.5 CURVE SMOOTH",
"449.368 348.768 OFFCURVE",
"484.031 409.236 OFFCURVE",
"482 460 CURVE",
"484 462 LINE",
"498.667 442 OFFCURVE",
"522.333 426 OFFCURVE",
"549 426 CURVE SMOOTH",
"585 426 OFFCURVE",
"617.667 443.333 OFFCURVE",
"639 462 CURVE"
);
},
{
closed = 1;
nodes = (
"212 378.748 OFFCURVE",
"311.739 520 OFFCURVE",
"396 520 CURVE SMOOTH",
"424 520 OFFCURVE",
"438 503.667 OFFCURVE",
"438 477 CURVE SMOOTH",
"438 394.717 OFFCURVE",
"337.58 240 OFFCURVE",
"251 240 CURVE SMOOTH",
"221.667 240 OFFCURVE",
"212 259.667 OFFCURVE",
"212 285 CURVE SMOOTH"
);
}
);
userData = {
assembly = "PUSHW[ ]\011/* 4 values pushed */
91 6 49 4 
CALL[ ]\011/* CallFunction */
PUSHW[ ]\011/* 4 values pushed */
39 6 99 4 
CALL[ ]\011/* CallFunction */
PUSHW[ ]\011/* 4 values pushed */
21 6 11 4 
CALL[ ]\011/* CallFunction */
PUSHW[ ]\011/* 4 values pushed */
3 6 29 4 
CALL[ ]\011/* CallFunction */
NPUSHW[ ]\011/* 5 values pushed */
74 11 90 11 2 
DELTAP3[ ]\011/* DeltaExceptionP3 */
NPUSHW[ ]\011/* 15 values pushed */
153 11 169 11 185 11 201 11 217 11 233 11 249 11 7 
DELTAP1[ ]\011/* DeltaExceptionP1 */
NPUSHW[ ]\011/* 33 values pushed */
9 11 25 11 41 11 57 11 73 11 89 11 105 11 121 11 137 11 153 11 169 11 185 11 201 11 217 11 233 11 249 11 16 
DELTAP2[ ]\011/* DeltaExceptionP2 */
NPUSHW[ ]\011/* 9 values pushed */
9 11 25 11 41 11 57 11 4 
DELTAP3[ ]\011/* DeltaExceptionP3 */
NPUSHW[ ]\011/* 5 values pushed */
74 29 90 29 2 
DELTAP3[ ]\011/* DeltaExceptionP3 */
NPUSHW[ ]\011/* 15 values pushed */
153 29 169 29 185 29 201 29 217 29 233 29 249 29 7 
DELTAP1[ ]\011/* DeltaExceptionP1 */
NPUSHW[ ]\011/* 33 values pushed */
9 29 25 29 41 29 57 29 73 29 89 29 105 29 121 29 137 29 153 29 169 29 185 29 201 29 217 29 233 29 249 29 16 
DELTAP2[ ]\011/* DeltaExceptionP2 */
NPUSHW[ ]\011/* 9 values pushed */
9 29 25 29 41 29 57 29 4 
DELTAP3[ ]\011/* DeltaExceptionP3 */
NPUSHW[ ]\011/* 15 values pushed */
150 39 166 39 182 39 198 39 214 39 230 39 246 39 7 
DELTAP1[ ]\011/* DeltaExceptionP1 */
NPUSHW[ ]\011/* 33 values pushed */
6 39 22 39 38 39 54 39 70 39 86 39 102 39 118 39 134 39 150 39 166 39 182 39 198 39 214 39 230 39 246 39 16 
DELTAP2[ ]\011/* DeltaExceptionP2 */
NPUSHW[ ]\011/* 9 values pushed */
6 39 22 39 38 39 54 39 4 
DELTAP3[ ]\011/* DeltaExceptionP3 */
NPUSHW[ ]\011/* 5 values pushed */
69 39 85 39 2 
DELTAP3[ ]\011/* DeltaExceptionP3 */
NPUSHW[ ]\011/* 15 values pushed */
150 91 166 91 182 91 198 91 214 91 230 91 246 91 7 
DELTAP1[ ]\011/* DeltaExceptionP1 */
NPUSHW[ ]\011/* 33 values pushed */
6 91 22 91 38 91 54 91 70 91 86 91 102 91 118 91 134 91 150 91 166 91 182 91 198 91 214 91 230 91 246 91 16 
DELTAP2[ ]\011/* DeltaExceptionP2 */
NPUSHW[ ]\011/* 9 values pushed */
6 91 22 91 38 91 54 91 4 
DELTAP3[ ]\011/* DeltaExceptionP3 */
NPUSHW[ ]\011/* 5 values pushed */
69 91 85 91 2 
DELTAP3[ ]\011/* DeltaExceptionP3 */
PUSHW[ ]\011/* 1 value pushed */
3 
SRP0[ ]\011/* SetRefPoint0 */
PUSHW[ ]\011/* 1 value pushed */
108 
MDRP[11100]\011/* MoveDirectRelPt */
SVTCA[0]\011/* SetFreedomAndProjectionVectorToAxis */
PUSHW[ ]\011/* 1 value pushed */
67 
MDAP[1]\011/* MoveDirectAbsPt */
PUSHW[ ]\011/* 1 value pushed */
83 
MDAP[1]\011/* MoveDirectAbsPt */
PUSHW[ ]\011/* 1 value pushed */
85 
MDAP[1]\011/* MoveDirectAbsPt */
PUSHW[ ]\011/* 1 value pushed */
0 
RCVT[ ]\011/* ReadCVT */
IF[ ]\011/* If */
PUSHW[ ]\011/* 1 value pushed */
8 
MDAP[1]\011/* MoveDirectAbsPt */
ELSE[ ]\011/* Else */
PUSHW[ ]\011/* 2 values pushed */
8 10 
MIAP[0]\011/* MoveIndirectAbsPt */
EIF[ ]\011/* EndIf */
PUSHW[ ]\011/* 4 values pushed */
54 1 35 4 
CALL[ ]\011/* CallFunction */
PUSHW[ ]\011/* 3 values pushed */
59 16 3 
CALL[ ]\011/* CallFunction */
PUSHW[ ]\011/* 3 values pushed */
39 35 54 
SRP1[ ]\011/* SetRefPoint1 */
SRP2[ ]\011/* SetRefPoint2 */
IP[ ]\011/* InterpolatePts */
PUSHW[ ]\011/* 1 value pushed */
59 
SRP0[ ]\011/* SetRefPoint0 */
PUSHW[ ]\011/* 1 value pushed */
46 
MDRP[11100]\011/* MoveDirectRelPt */
IUP[0]\011/* InterpolateUntPts */
IUP[1]\011/* InterpolateUntPts */";
};
width = 778;
}
);
note = percent;
unicode = 0025;
},
{
glyphname = ampersand;
lastChange = "2018-11-16 05:15:47 +0000";
layers = (
{
layerId = "C82BC34C-76D5-4A26-949B-BF353CFC0606";
paths = (
{
closed = 1;
nodes = (
"735 125 LINE",
"690.402 59.415 OFFCURVE",
"607.319 8 OFFCURVE",
"527 8 CURVE SMOOTH",
"468.333 8 OFFCURVE",
"409 40 OFFCURVE",
"369 80 CURVE",
"393.667 103.333 OFFCURVE",
"421 132.667 OFFCURVE",
"451 168 CURVE",
"486.203 213.262 OFFCURVE",
"524.398 258 OFFCURVE",
"574 258 CURVE SMOOTH",
"608.667 258 OFFCURVE",
"633.333 240.667 OFFCURVE",
"644 218 CURVE",
"653.333 227.333 OFFCURVE",
"660 242.333 OFFCURVE",
"660 253 CURVE SMOOTH",
"660 283.667 OFFCURVE",
"633.667 304 OFFCURVE",
"599 304 CURVE SMOOTH",
"557.667 304 OFFCURVE",
"522.167 271.833 OFFCURVE",
"485.5 228.5 CURVE SMOOTH",
"454.976 192.426 OFFCURVE",
"401.712 123.311 OFFCURVE",
"361 87 CURVE",
"298.333 151 OFFCURVE",
"258.333 236.333 OFFCURVE",
"257 327 CURVE",
"324.124 365.861 OFFCURVE",
"442 409.523 OFFCURVE",
"442 478 CURVE SMOOTH",
"442 516.667 OFFCURVE",
"415 538 OFFCURVE",
"379 538 CURVE SMOOTH",
"283.681 538 OFFCURVE",
"203 406.385 OFFCURVE",
"203 317 CURVE",
"126.818 284.351 OFFCURVE",
"55 211.109 OFFCURVE",
"55 126 CURVE SMOOTH",
"55 49.24 OFFCURVE",
"112.748 -8 OFFCURVE",
"198 -8 CURVE SMOOTH",
"255.69 -8 OFFCURVE",
"299.652 18.687 OFFCURVE",
"330 46 CURVE",
"377.11 9.359 OFFCURVE",
"449.656 -8 OFFCURVE",
"504 -8 CURVE SMOOTH",
"594.667 -8 OFFCURVE",
"684 37 OFFCURVE",
"740 121 CURVE"
);
},
{
closed = 1;
nodes = (
"402 409.264 OFFCURVE",
"334.426 372.708 OFFCURVE",
"257 338 CURVE",
"257 364.667 OFFCURVE",
"258 399.333 OFFCURVE",
"278 446 CURVE SMOOTH",
"300.667 498 OFFCURVE",
"336.667 526 OFFCURVE",
"366 526 CURVE SMOOTH",
"390 526 OFFCURVE",
"402 511.667 OFFCURVE",
"402 483 CURVE SMOOTH"
);
},
{
closed = 1;
nodes = (
"109 208.551 OFFCURVE",
"142.292 279.605 OFFCURVE",
"203 306 CURVE",
"203 210 OFFCURVE",
"247.667 114.333 OFFCURVE",
"321 53 CURVE",
"295.667 33 OFFCURVE",
"262.333 16 OFFCURVE",
"213 16 CURVE SMOOTH",
"150.387 16 OFFCURVE",
"109 76.785 OFFCURVE",
"109 142 CURVE SMOOTH"
);
}
);
userData = {
assembly = "PUSHW[ ]\011/* 4 values pushed */
82 4 18 4 
CALL[ ]\011/* CallFunction */
PUSHW[ ]\011/* 4 values pushed */
36 4 23 4 
CALL[ ]\011/* CallFunction */
PUSHW[ ]\011/* 4 values pushed */
31 5 69 4 
CALL[ ]\011/* CallFunction */
NPUSHW[ ]\011/* 15 values pushed */
150 36 166 36 182 36 198 36 214 36 230 36 246 36 7 
DELTAP1[ ]\011/* DeltaExceptionP1 */
NPUSHW[ ]\011/* 15 values pushed */
6 36 22 36 38 36 54 36 70 36 86 36 102 36 7 
DELTAP2[ ]\011/* DeltaExceptionP2 */
NPUSHW[ ]\011/* 5 values pushed */
117 36 133 36 2 
DELTAP2[ ]\011/* DeltaExceptionP2 */
NPUSHW[ ]\011/* 5 values pushed */
74 69 90 69 2 
DELTAP3[ ]\011/* DeltaExceptionP3 */
NPUSHW[ ]\011/* 15 values pushed */
153 69 169 69 185 69 201 69 217 69 233 69 249 69 7 
DELTAP1[ ]\011/* DeltaExceptionP1 */
NPUSHW[ ]\011/* 33 values pushed */
9 69 25 69 41 69 57 69 73 69 89 69 105 69 121 69 137 69 153 69 169 69 185 69 201 69 217 69 233 69 249 69 16 
DELTAP2[ ]\011/* DeltaExceptionP2 */
NPUSHW[ ]\011/* 9 values pushed */
9 69 25 69 41 69 57 69 4 
DELTAP3[ ]\011/* DeltaExceptionP3 */
PUSHW[ ]\011/* 1 value pushed */
36 
SRP0[ ]\011/* SetRefPoint0 */
PUSHW[ ]\011/* 1 value pushed */
77 
MDRP[10000]\011/* MoveDirectRelPt */
NPUSHW[ ]\011/* 15 values pushed */
150 82 166 82 182 82 198 82 214 82 230 82 246 82 7 
DELTAP1[ ]\011/* DeltaExceptionP1 */
NPUSHW[ ]\011/* 15 values pushed */
6 82 22 82 38 82 54 82 70 82 86 82 102 82 7 
DELTAP2[ ]\011/* DeltaExceptionP2 */
NPUSHW[ ]\011/* 5 values pushed */
117 82 133 82 2 
DELTAP2[ ]\011/* DeltaExceptionP2 */
PUSHW[ ]\011/* 1 value pushed */
23 
SRP0[ ]\011/* SetRefPoint0 */
PUSHW[ ]\011/* 1 value pushed */
93 
MDRP[10000]\011/* MoveDirectRelPt */
SVTCA[0]\011/* SetFreedomAndProjectionVectorToAxis */
PUSHW[ ]\011/* 1 value pushed */
28 
MDAP[1]\011/* MoveDirectAbsPt */
PUSHW[ ]\011/* 1 value pushed */
0 
RCVT[ ]\011/* ReadCVT */
IF[ ]\011/* If */
PUSHW[ ]\011/* 1 value pushed */
3 
MDAP[1]\011/* MoveDirectAbsPt */
ELSE[ ]\011/* Else */
PUSHW[ ]\011/* 2 values pushed */
3 10 
MIAP[0]\011/* MoveIndirectAbsPt */
EIF[ ]\011/* EndIf */
PUSHW[ ]\011/* 1 value pushed */
0 
RCVT[ ]\011/* ReadCVT */
IF[ ]\011/* If */
PUSHW[ ]\011/* 1 value pushed */
13 
MDAP[1]\011/* MoveDirectAbsPt */
ELSE[ ]\011/* Else */
PUSHW[ ]\011/* 2 values pushed */
13 10 
MIAP[0]\011/* MoveIndirectAbsPt */
EIF[ ]\011/* EndIf */
PUSHW[ ]\011/* 4 values pushed */
44 3 53 4 
CALL[ ]\011/* CallFunction */
PUSHW[ ]\011/* 3 values pushed */
50 3 28 
SRP1[ ]\011/* SetRefPoint1 */
SRP2[ ]\011/* SetRefPoint2 */
IP[ ]\011/* InterpolatePts */
PUSHW[ ]\011/* 3 values pushed */
77 3 28 
SRP1[ ]\011/* SetRefPoint1 */
SRP2[ ]\011/* SetRefPoint2 */
IP[ ]\011/* InterpolatePts */
PUSHW[ ]\011/* 1 value pushed */
13 
SRP0[ ]\011/* SetRefPoint0 */
PUSHW[ ]\011/* 2 values pushed */
87 2 
MIRP[10100]\011/* MoveIndirectRelPt */
NPUSHW[ ]\011/* 15 values pushed */
151 87 167 87 183 87 199 87 215 87 231 87 247 87 7 
DELTAP1[ ]\011/* DeltaExceptionP1 */
NPUSHW[ ]\011/* 33 values pushed */
7 87 23 87 39 87 55 87 71 87 87 87 103 87 119 87 135 87 151 87 167 87 183 87 199 87 215 87 231 87 247 87 16 
DELTAP2[ ]\011/* DeltaExceptionP2 */
NPUSHW[ ]\011/* 33 values pushed */
7 87 23 87 39 87 55 87 71 87 87 87 103 87 119 87 135 87 151 87 167 87 183 87 199 87 215 87 231 87 247 87 16 
DELTAP3[ ]\011/* DeltaExceptionP3 */
PUSHW[ ]\011/* 3 values pushed */
93 3 28 
SRP1[ ]\011/* SetRefPoint1 */
SRP2[ ]\011/* SetRefPoint2 */
IP[ ]\011/* InterpolatePts */
IUP[0]\011/* InterpolateUntPts */
IUP[1]\011/* InterpolateUntPts */";
};
width = 611;
}
);
note = ampersand;
unicode = 0026;
},
{
glyphname = quotesingle;
lastChange = "2018-11-16 05:15:47 +0000";
layers = (
{
layerId = "C82BC34C-76D5-4A26-949B-BF353CFC0606";
paths = (
{
closed = 1;
nodes = (
"324.236 643.73 OFFCURVE",
"338.546 678.072 OFFCURVE",
"312 694 CURVE",
"284.861 708.803 OFFCURVE",
"262.273 676.729 OFFCURVE",
"253 652 CURVE SMOOTH",
"222.827 568.444 OFFCURVE",
"212.32 526.607 OFFCURVE",
"169 452 CURVE",
"179 446 LINE",
"224.678 524.668 OFFCURVE",
"250.307 546.48 OFFCURVE",
"308 621 CURVE"
);
}
);
userData = {
assembly = "SVTCA[0]\011/* SetFreedomAndProjectionVectorToAxis */
PUSHW[ ]\011/* 1 value pushed */
5 
MDAP[1]\011/* MoveDirectAbsPt */
IUP[0]\011/* InterpolateUntPts */
IUP[1]\011/* InterpolateUntPts */";
};
width = 222;
}
);
note = quotesingle;
unicode = 0027;
},
{
glyphname = parenleft;
lastChange = "2018-11-16 05:15:47 +0000";
layers = (
{
layerId = "C82BC34C-76D5-4A26-949B-BF353CFC0606";
paths = (
{
closed = 1;
nodes = (
"661 696 LINE",
"477 616 OFFCURVE",
"328 502 OFFCURVE",
"228 354 CURVE SMOOTH",
"162.667 256.667 OFFCURVE",
"115.667 172.5 OFFCURVE",
"85 74.5 CURVE SMOOTH",
"54.333 -23.5 OFFCURVE",
"39.333 -134 OFFCURVE",
"38 -286 CURVE",
"50 -286 LINE",
"50 -176.667 OFFCURVE",
"71.833 -67.667 OFFCURVE",
"108.5 35 CURVE SMOOTH",
"145.167 137.667 OFFCURVE",
"196.333 235 OFFCURVE",
"255 319 CURVE SMOOTH",
"364.333 476.333 OFFCURVE",
"505 606 OFFCURVE",
"661 686 CURVE"
);
}
);
userData = {
assembly = "SVTCA[0]\011/* SetFreedomAndProjectionVectorToAxis */
PUSHW[ ]\011/* 1 value pushed */
17 
MDAP[1]\011/* MoveDirectAbsPt */
PUSHW[ ]\011/* 1 value pushed */
8 
MDAP[1]\011/* MoveDirectAbsPt */
IUP[0]\011/* InterpolateUntPts */
IUP[1]\011/* InterpolateUntPts */";
};
width = 389;
}
);
note = parenleft;
unicode = 0028;
},
{
glyphname = parenright;
lastChange = "2018-11-16 05:15:47 +0000";
layers = (
{
layerId = "C82BC34C-76D5-4A26-949B-BF353CFC0606";
paths = (
{
closed = 1;
nodes = (
"-229 -286 LINE",
"-45 -206 OFFCURVE",
"104 -92 OFFCURVE",
"204 56 CURVE SMOOTH",
"269.333 153.333 OFFCURVE",
"316.333 237.5 OFFCURVE",
"347 335.5 CURVE SMOOTH",
"377.667 433.5 OFFCURVE",
"392.667 544 OFFCURVE",
"394 696 CURVE",
"382 696 LINE",
"382 586.667 OFFCURVE",
"360.167 477.667 OFFCURVE",
"323.5 375 CURVE SMOOTH",
"286.833 272.333 OFFCURVE",
"235.667 175 OFFCURVE",
"177 91 CURVE SMOOTH",
"67.667 -66.333 OFFCURVE",
"-73 -196 OFFCURVE",
"-229 -276 CURVE"
);
}
);
userData = {
assembly = "SVTCA[0]\011/* SetFreedomAndProjectionVectorToAxis */
PUSHW[ ]\011/* 1 value pushed */
17 
MDAP[1]\011/* MoveDirectAbsPt */
PUSHW[ ]\011/* 1 value pushed */
8 
MDAP[1]\011/* MoveDirectAbsPt */
IUP[0]\011/* InterpolateUntPts */
IUP[1]\011/* InterpolateUntPts */";
};
width = 389;
}
);
note = parenright;
unicode = 0029;
},
{
glyphname = plus;
lastChange = "2018-11-16 05:15:47 +0000";
layers = (
{
layerId = "C82BC34C-76D5-4A26-949B-BF353CFC0606";
paths = (
{
closed = 1;
nodes = (
"279 179 LINE",
"137 179 LINE",
"128 165 LINE",
"271 165 LINE",
"161 0 LINE",
"230 13 LINE",
"331 165 LINE",
"472 165 LINE",
"481 179 LINE",
"339 179 LINE",
"448 344 LINE",
"382 336 LINE"
);
}
);
userData = {
assembly = "SVTCA[0]\011/* SetFreedomAndProjectionVectorToAxis */
PUSHW[ ]\011/* 1 value pushed */
1 
MDAP[1]\011/* MoveDirectAbsPt */
PUSHW[ ]\011/* 1 value pushed */
0 
RCVT[ ]\011/* ReadCVT */
IF[ ]\011/* If */
PUSHW[ ]\011/* 1 value pushed */
7 
MDAP[1]\011/* MoveDirectAbsPt */
ELSE[ ]\011/* Else */
PUSHW[ ]\011/* 2 values pushed */
7 10 
MIAP[0]\011/* MoveIndirectAbsPt */
EIF[ ]\011/* EndIf */
PUSHW[ ]\011/* 3 values pushed */
2 7 1 
SRP1[ ]\011/* SetRefPoint1 */
SRP2[ ]\011/* SetRefPoint2 */
IP[ ]\011/* InterpolatePts */
PUSHW[ ]\011/* 3 values pushed */
3 7 1 
SRP1[ ]\011/* SetRefPoint1 */
SRP2[ ]\011/* SetRefPoint2 */
IP[ ]\011/* InterpolatePts */
PUSHW[ ]\011/* 3 values pushed */
8 7 1 
SRP1[ ]\011/* SetRefPoint1 */
SRP2[ ]\011/* SetRefPoint2 */
IP[ ]\011/* InterpolatePts */
PUSHW[ ]\011/* 3 values pushed */
9 7 1 
SRP1[ ]\011/* SetRefPoint1 */
SRP2[ ]\011/* SetRefPoint2 */
IP[ ]\011/* InterpolatePts */
IUP[0]\011/* InterpolateUntPts */
IUP[1]\011/* InterpolateUntPts */";
};
width = 546;
}
);
note = plus;
unicode = 002B;
},
{
glyphname = comma;
lastChange = "2018-11-16 05:15:47 +0000";
layers = (
{
layerId = "C82BC34C-76D5-4A26-949B-BF353CFC0606";
paths = (
{
closed = 1;
nodes = (
"-32 -124 LINE",
"52.646 -113.078 OFFCURVE",
"144 -51.556 OFFCURVE",
"144 28 CURVE SMOOTH",
"144 50.667 OFFCURVE",
"130.333 74 OFFCURVE",
"105 74 CURVE SMOOTH",
"81 74 OFFCURVE",
"66 57 OFFCURVE",
"66 33 CURVE SMOOTH",
"66 10.333 OFFCURVE",
"85.333 0 OFFCURVE",
"100 0 CURVE SMOOTH",
"106 0 OFFCURVE",
"110 0.667 OFFCURVE",
"112 2 CURVE",
"106.821 -65.321 OFFCURVE",
"32.435 -106.794 OFFCURVE",
"-32 -118 CURVE"
);
}
);
userData = {
assembly = "PUSHW[ ]\011/* 4 values pushed */
16 9 10 4 
CALL[ ]\011/* CallFunction */
PUSHW[ ]\011/* 1 value pushed */
16 
SRP0[ ]\011/* SetRefPoint0 */
PUSHW[ ]\011/* 2 values pushed */
5 5 
MIRP[10100]\011/* MoveIndirectRelPt */
NPUSHW[ ]\011/* 5 values pushed */
122 10 138 10 2 
DELTAP2[ ]\011/* DeltaExceptionP2 */
NPUSHW[ ]\011/* 15 values pushed */
153 10 169 10 185 10 201 10 217 10 233 10 249 10 7 
DELTAP1[ ]\011/* DeltaExceptionP1 */
NPUSHW[ ]\011/* 15 values pushed */
9 10 25 10 41 10 57 10 73 10 89 10 105 10 7 
DELTAP2[ ]\011/* DeltaExceptionP2 */
SVTCA[0]\011/* SetFreedomAndProjectionVectorToAxis */
PUSHW[ ]\011/* 1 value pushed */
21 
MDAP[1]\011/* MoveDirectAbsPt */
PUSHW[ ]\011/* 1 value pushed */
13 
MDAP[1]\011/* MoveDirectAbsPt */
PUSHW[ ]\011/* 1 value pushed */
0 
RCVT[ ]\011/* ReadCVT */
IF[ ]\011/* If */
PUSHW[ ]\011/* 1 value pushed */
5 
MDAP[1]\011/* MoveDirectAbsPt */
ELSE[ ]\011/* Else */
PUSHW[ ]\011/* 2 values pushed */
5 10 
MIAP[0]\011/* MoveIndirectAbsPt */
EIF[ ]\011/* EndIf */
PUSHW[ ]\011/* 1 value pushed */
0 
RCVT[ ]\011/* ReadCVT */
IF[ ]\011/* If */
PUSHW[ ]\011/* 1 value pushed */
7 
MDAP[1]\011/* MoveDirectAbsPt */
ELSE[ ]\011/* Else */
PUSHW[ ]\011/* 2 values pushed */
7 10 
MIAP[0]\011/* MoveIndirectAbsPt */
EIF[ ]\011/* EndIf */
IUP[0]\011/* InterpolateUntPts */
IUP[1]\011/* InterpolateUntPts */";
};
width = 250;
}
);
note = comma;
unicode = 002C;
},
{
glyphname = hyphen;
lastChange = "2018-11-16 05:21:30 +0000";
layers = (
{
layerId = "C82BC34C-76D5-4A26-949B-BF353CFC0606";
paths = (
{
closed = 1;
nodes = (
"85 186 LINE",
"74 158 LINE",
"304 158 LINE",
"316 186 LINE"
);
}
);
userData = {
assembly = "SVTCA[0]\011/* SetFreedomAndProjectionVectorToAxis */
PUSHW[ ]\011/* 4 values pushed */
0 2 1 4 
CALL[ ]\011/* CallFunction */
IUP[0]\011/* InterpolateUntPts */
IUP[1]\011/* InterpolateUntPts */";
};
width = 333;
}
);
note = hyphen;
unicode = 002D;
},
{
glyphname = slash;
lastChange = "2018-11-16 05:15:47 +0000";
layers = (
{
layerId = "C82BC34C-76D5-4A26-949B-BF353CFC0606";
paths = (
{
closed = 1;
nodes = (
"145 -16 LINE",
"428 712 LINE",
"391 712 LINE",
"108 -16 LINE"
);
}
);
userData = {
assembly = "SVTCA[0]\011/* SetFreedomAndProjectionVectorToAxis */
PUSHW[ ]\011/* 1 value pushed */
1 
MDAP[1]\011/* MoveDirectAbsPt */
PUSHW[ ]\011/* 1 value pushed */
0 
RCVT[ ]\011/* ReadCVT */
IF[ ]\011/* If */
PUSHW[ ]\011/* 1 value pushed */
0 
MDAP[1]\011/* MoveDirectAbsPt */
ELSE[ ]\011/* Else */
PUSHW[ ]\011/* 2 values pushed */
0 10 
MIAP[0]\011/* MoveIndirectAbsPt */
EIF[ ]\011/* EndIf */
IUP[0]\011/* InterpolateUntPts */
IUP[1]\011/* InterpolateUntPts */";
};
width = 278;
}
);
note = slash;
unicode = 002F;
},
{
glyphname = zero;
lastChange = "2018-11-16 05:15:47 +0000";
layers = (
{
layerId = "C82BC34C-76D5-4A26-949B-BF353CFC0606";
paths = (
{
closed = 1;
nodes = (
"110 46 OFFCURVE",
"146.333 -8 OFFCURVE",
"225 -8 CURVE SMOOTH",
"278.333 -8 OFFCURVE",
"336.333 18.5 OFFCURVE",
"391 60.5 CURVE SMOOTH",
"418.333 81.5 OFFCURVE",
"444.333 105.5 OFFCURVE",
"469 132.5 CURVE SMOOTH",
"518.333 186.5 OFFCURVE",
"555.5 247.667 OFFCURVE",
"577.5 309 CURVE SMOOTH",
"588.5 339.667 OFFCURVE",
"594 368.667 OFFCURVE",
"594 396 CURVE SMOOTH",
"594 475.86 OFFCURVE",
"558.698 530 OFFCURVE",
"476 530 CURVE SMOOTH",
"422.667 530 OFFCURVE",
"364.667 505.167 OFFCURVE",
"310 464.5 CURVE SMOOTH",
"282.667 444.167 OFFCURVE",
"257 420.5 OFFCURVE",
"233 393.5 CURVE SMOOTH",
"185 339.5 OFFCURVE",
"147.333 277.833 OFFCURVE",
"126 214.5 CURVE SMOOTH",
"115.333 182.833 OFFCURVE",
"110 152 OFFCURVE",
"110 122 CURVE SMOOTH"
);
},
{
closed = 1;
nodes = (
"170 210 OFFCURVE",
"210.333 309 OFFCURVE",
"265 385 CURVE SMOOTH",
"319.667 461 OFFCURVE",
"389.333 514 OFFCURVE",
"448 514 CURVE SMOOTH",
"509.665 514 OFFCURVE",
"534 463.388 OFFCURVE",
"534 403 CURVE SMOOTH",
"534 307 OFFCURVE",
"493.167 207.667 OFFCURVE",
"436.5 133 CURVE SMOOTH",
"379.833 58.333 OFFCURVE",
"307.333 8 OFFCURVE",
"242 8 CURVE SMOOTH",
"187.377 8 OFFCURVE",
"170 59.538 OFFCURVE",
"170 118 CURVE SMOOTH"
);
}
);
userData = {
assembly = "PUSHW[ ]\011/* 1 value pushed */
42 
MDAP[1]\011/* MoveDirectAbsPt */
PUSHW[ ]\011/* 1 value pushed */
32 
MDAP[1]\011/* MoveDirectAbsPt */
PUSHW[ ]\011/* 1 value pushed */
42 
SRP0[ ]\011/* SetRefPoint0 */
PUSHW[ ]\011/* 1 value pushed */
0 
MDRP[10000]\011/* MoveDirectRelPt */
PUSHW[ ]\011/* 1 value pushed */
0 
MDAP[1]\011/* MoveDirectAbsPt */
NPUSHW[ ]\011/* 5 values pushed */
122 32 138 32 2 
DELTAP2[ ]\011/* DeltaExceptionP2 */
NPUSHW[ ]\011/* 15 values pushed */
153 32 169 32 185 32 201 32 217 32 233 32 249 32 7 
DELTAP1[ ]\011/* DeltaExceptionP1 */
NPUSHW[ ]\011/* 15 values pushed */
9 32 25 32 41 32 57 32 73 32 89 32 105 32 7 
DELTAP2[ ]\011/* DeltaExceptionP2 */
PUSHW[ ]\011/* 1 value pushed */
32 
SRP0[ ]\011/* SetRefPoint0 */
PUSHW[ ]\011/* 2 values pushed */
12 8 
MIRP[10100]\011/* MoveIndirectRelPt */
PUSHW[ ]\011/* 1 value pushed */
0 
SRP0[ ]\011/* SetRefPoint0 */
PUSHW[ ]\011/* 2 values pushed */
22 8 
MIRP[10100]\011/* MoveIndirectRelPt */
NPUSHW[ ]\011/* 15 values pushed */
150 22 166 22 182 22 198 22 214 22 230 22 246 22 7 
DELTAP1[ ]\011/* DeltaExceptionP1 */
NPUSHW[ ]\011/* 15 values pushed */
6 22 22 22 38 22 54 22 70 22 86 22 102 22 7 
DELTAP2[ ]\011/* DeltaExceptionP2 */
NPUSHW[ ]\011/* 5 values pushed */
117 22 133 22 2 
DELTAP2[ ]\011/* DeltaExceptionP2 */
PUSHW[ ]\011/* 1 value pushed */
12 
SRP0[ ]\011/* SetRefPoint0 */
PUSHW[ ]\011/* 1 value pushed */
43 
MDRP[11100]\011/* MoveDirectRelPt */
SVTCA[0]\011/* SetFreedomAndProjectionVectorToAxis */
PUSHW[ ]\011/* 1 value pushed */
7 
MDAP[1]\011/* MoveDirectAbsPt */
PUSHW[ ]\011/* 1 value pushed */
0 
RCVT[ ]\011/* ReadCVT */
IF[ ]\011/* If */
PUSHW[ ]\011/* 1 value pushed */
19 
MDAP[1]\011/* MoveDirectAbsPt */
ELSE[ ]\011/* Else */
PUSHW[ ]\011/* 2 values pushed */
19 10 
MIAP[0]\011/* MoveIndirectAbsPt */
EIF[ ]\011/* EndIf */
IUP[0]\011/* InterpolateUntPts */
IUP[1]\011/* InterpolateUntPts */";
};
width = 500;
}
);
note = zero;
unicode = 0030;
},
{
glyphname = one;
lastChange = "2018-11-16 05:15:47 +0000";
layers = (
{
layerId = "C82BC34C-76D5-4A26-949B-BF353CFC0606";
paths = (
{
closed = 1;
nodes = (
"108 -8 LINE",
"190 8 LINE",
"226 77.333 OFFCURVE",
"285.667 173.167 OFFCURVE",
"347 268.5 CURVE SMOOTH",
"398.617 348.731 OFFCURVE",
"475.841 465.153 OFFCURVE",
"516 526 CURVE",
"512 530 LINE",
"417.333 456.667 OFFCURVE",
"307.333 387 OFFCURVE",
"186 359 CURVE",
"190 348 LINE",
"257.448 366.159 OFFCURVE",
"343.373 403.582 OFFCURVE",
"398 440 CURVE",
"400 438 LINE"
);
}
);
userData = {
assembly = "SVTCA[0]\011/* SetFreedomAndProjectionVectorToAxis */
PUSHW[ ]\011/* 1 value pushed */
10 
MDAP[1]\011/* MoveDirectAbsPt */
PUSHW[ ]\011/* 1 value pushed */
0 
RCVT[ ]\011/* ReadCVT */
IF[ ]\011/* If */
PUSHW[ ]\011/* 1 value pushed */
17 
MDAP[1]\011/* MoveDirectAbsPt */
ELSE[ ]\011/* Else */
PUSHW[ ]\011/* 2 values pushed */
17 10 
MIAP[0]\011/* MoveIndirectAbsPt */
EIF[ ]\011/* EndIf */
PUSHW[ ]\011/* 3 values pushed */
1 17 10 
SRP1[ ]\011/* SetRefPoint1 */
SRP2[ ]\011/* SetRefPoint2 */
IP[ ]\011/* InterpolatePts */
PUSHW[ ]\011/* 3 values pushed */
11 17 10 
SRP1[ ]\011/* SetRefPoint1 */
SRP2[ ]\011/* SetRefPoint2 */
IP[ ]\011/* InterpolatePts */
IUP[0]\011/* InterpolateUntPts */
IUP[1]\011/* InterpolateUntPts */";
};
width = 370;
}
);
note = one;
unicode = 0031;
},
{
glyphname = two;
lastChange = "2018-11-16 05:15:47 +0000";
layers = (
{
layerId = "C82BC34C-76D5-4A26-949B-BF353CFC0606";
paths = (
{
closed = 1;
nodes = (
"497 165 LINE",
"471.129 113.257 OFFCURVE",
"417.037 32 OFFCURVE",
"357 32 CURVE SMOOTH",
"335.667 32 OFFCURVE",
"303 46.667 OFFCURVE",
"271 60 CURVE SMOOTH",
"237.667 73.333 OFFCURVE",
"204.667 87 OFFCURVE",
"182 87 CURVE SMOOTH",
"156.667 87 OFFCURVE",
"136 75.667 OFFCURVE",
"116 65 CURVE",
"114 69 LINE",
"167.333 105 OFFCURVE",
"236 132.833 OFFCURVE",
"304 161.5 CURVE SMOOTH",
"338 175.833 OFFCURVE",
"371.167 190.833 OFFCURVE",
"403.5 206.5 CURVE SMOOTH",
"468.167 237.833 OFFCURVE",
"519.5 276.5 OFFCURVE",
"549.5 326.5 CURVE SMOOTH",
"564.5 351.5 OFFCURVE",
"572 380.333 OFFCURVE",
"572 413 CURVE SMOOTH",
"572 481.203 OFFCURVE",
"515.85 538 OFFCURVE",
"420 538 CURVE SMOOTH",
"309.73 538 OFFCURVE",
"232 454.541 OFFCURVE",
"232 376 CURVE SMOOTH",
"232 329.333 OFFCURVE",
"258.667 300 OFFCURVE",
"300 300 CURVE SMOOTH",
"332 300 OFFCURVE",
"358.333 317.333 OFFCURVE",
"373 344 CURVE",
"369 347 LINE",
"354.333 340.333 OFFCURVE",
"347 336 OFFCURVE",
"331 336 CURVE SMOOTH",
"296.333 336 OFFCURVE",
"272 368.333 OFFCURVE",
"272 403 CURVE SMOOTH",
"272 474.606 OFFCURVE",
"342.011 522 OFFCURVE",
"404 522 CURVE SMOOTH",
"472 522 OFFCURVE",
"508 475 OFFCURVE",
"508 407 CURVE SMOOTH",
"508 365.667 OFFCURVE",
"498 327.833 OFFCURVE",
"466 288.5 CURVE SMOOTH",
"434 249.167 OFFCURVE",
"378.667 211.333 OFFCURVE",
"288 170 CURVE SMOOTH",
"192.667 126.667 OFFCURVE",
"121.833 90.5 OFFCURVE",
"75.5 61.5 CURVE SMOOTH",
"29.167 32.5 OFFCURVE",
"6 12.667 OFFCURVE",
"6 2 CURVE SMOOTH",
"6 -3.333 OFFCURVE",
"5.333 -8 OFFCURVE",
"12 -8 CURVE SMOOTH",
"25.653 -8 OFFCURVE",
"77.349 55 OFFCURVE",
"124 55 CURVE SMOOTH",
"179.836 55 OFFCURVE",
"243.848 -8 OFFCURVE",
"301 -8 CURVE SMOOTH",
"398.084 -8 OFFCURVE",
"461.86 82.53 OFFCURVE",
"504 164 CURVE"
);
}
);
userData = {
assembly = "PUSHW[ ]\011/* 4 values pushed */
34 5 47 4 
CALL[ ]\011/* CallFunction */
PUSHW[ ]\011/* 4 values pushed */
57 9 26 4 
CALL[ ]\011/* CallFunction */
PUSHW[ ]\011/* 3 values pushed */
0 47 57 
SRP1[ ]\011/* SetRefPoint1 */
SRP2[ ]\011/* SetRefPoint2 */
IP[ ]\011/* InterpolatePts */
NPUSHW[ ]\011/* 5 values pushed */
122 26 138 26 2 
DELTAP2[ ]\011/* DeltaExceptionP2 */
NPUSHW[ ]\011/* 15 values pushed */
153 26 169 26 185 26 201 26 217 26 233 26 249 26 7 
DELTAP1[ ]\011/* DeltaExceptionP1 */
NPUSHW[ ]\011/* 15 values pushed */
9 26 25 26 41 26 57 26 73 26 89 26 105 26 7 
DELTAP2[ ]\011/* DeltaExceptionP2 */
NPUSHW[ ]\011/* 15 values pushed */
150 34 166 34 182 34 198 34 214 34 230 34 246 34 7 
DELTAP1[ ]\011/* DeltaExceptionP1 */
NPUSHW[ ]\011/* 33 values pushed */
6 34 22 34 38 34 54 34 70 34 86 34 102 34 118 34 134 34 150 34 166 34 182 34 198 34 214 34 230 34 246 34 16 
DELTAP2[ ]\011/* DeltaExceptionP2 */
NPUSHW[ ]\011/* 9 values pushed */
6 34 22 34 38 34 54 34 4 
DELTAP3[ ]\011/* DeltaExceptionP3 */
NPUSHW[ ]\011/* 5 values pushed */
69 34 85 34 2 
DELTAP3[ ]\011/* DeltaExceptionP3 */
PUSHW[ ]\011/* 3 values pushed */
41 47 57 
SRP1[ ]\011/* SetRefPoint1 */
SRP2[ ]\011/* SetRefPoint2 */
IP[ ]\011/* InterpolatePts */
PUSHW[ ]\011/* 1 value pushed */
57 
SRP0[ ]\011/* SetRefPoint0 */
PUSHW[ ]\011/* 1 value pushed */
81 
MDRP[11100]\011/* MoveDirectRelPt */
SVTCA[0]\011/* SetFreedomAndProjectionVectorToAxis */
PUSHW[ ]\011/* 1 value pushed */
0 
RCVT[ ]\011/* ReadCVT */
IF[ ]\011/* If */
PUSHW[ ]\011/* 1 value pushed */
5 
MDAP[1]\011/* MoveDirectAbsPt */
ELSE[ ]\011/* Else */
PUSHW[ ]\011/* 2 values pushed */
5 10 
MIAP[0]\011/* MoveIndirectAbsPt */
EIF[ ]\011/* EndIf */
PUSHW[ ]\011/* 1 value pushed */
0 
RCVT[ ]\011/* ReadCVT */
IF[ ]\011/* If */
PUSHW[ ]\011/* 1 value pushed */
15 
MDAP[1]\011/* MoveDirectAbsPt */
ELSE[ ]\011/* Else */
PUSHW[ ]\011/* 2 values pushed */
15 10 
MIAP[0]\011/* MoveIndirectAbsPt */
EIF[ ]\011/* EndIf */
PUSHW[ ]\011/* 4 values pushed */
68 3 10 4 
CALL[ ]\011/* CallFunction */
PUSHW[ ]\011/* 4 values pushed */
37 3 44 4 
CALL[ ]\011/* CallFunction */
PUSHW[ ]\011/* 1 value pushed */
44 
SRP0[ ]\011/* SetRefPoint0 */
PUSHW[ ]\011/* 1 value pushed */
52 
MDRP[11100]\011/* MoveDirectRelPt */
PUSHW[ ]\011/* 3 values pushed */
41 44 52 
SRP1[ ]\011/* SetRefPoint1 */
SRP2[ ]\011/* SetRefPoint2 */
IP[ ]\011/* InterpolatePts */
PUSHW[ ]\011/* 3 values pushed */
65 10 68 
SRP1[ ]\011/* SetRefPoint1 */
SRP2[ ]\011/* SetRefPoint2 */
IP[ ]\011/* InterpolatePts */
PUSHW[ ]\011/* 1 value pushed */
5 
SRP0[ ]\011/* SetRefPoint0 */
PUSHW[ ]\011/* 2 values pushed */
74 3 
MIRP[10100]\011/* MoveIndirectRelPt */
NPUSHW[ ]\011/* 15 values pushed */
151 74 167 74 183 74 199 74 215 74 231 74 247 74 7 
DELTAP1[ ]\011/* DeltaExceptionP1 */
NPUSHW[ ]\011/* 33 values pushed */
7 74 23 74 39 74 55 74 71 74 87 74 103 74 119 74 135 74 151 74 167 74 183 74 199 74 215 74 231 74 247 74 16 
DELTAP2[ ]\011/* DeltaExceptionP2 */
NPUSHW[ ]\011/* 9 values pushed */
7 74 23 74 39 74 55 74 4 
DELTAP3[ ]\011/* DeltaExceptionP3 */
NPUSHW[ ]\011/* 5 values pushed */
70 74 86 74 2 
DELTAP3[ ]\011/* DeltaExceptionP3 */
IUP[0]\011/* InterpolateUntPts */
IUP[1]\011/* InterpolateUntPts */";
};
width = 500;
}
);
note = two;
unicode = 0032;
},
{
glyphname = three;
lastChange = "2018-11-16 05:15:47 +0000";
layers = (
{
layerId = "C82BC34C-76D5-4A26-949B-BF353CFC0606";
paths = (
{
closed = 1;
nodes = (
"272 264 LINE",
"290.667 266.667 OFFCURVE",
"310.333 268 OFFCURVE",
"329 268 CURVE SMOOTH",
"389 268 OFFCURVE",
"424 234 OFFCURVE",
"424 174 CURVE SMOOTH",
"424 71.776 OFFCURVE",
"327.671 4 OFFCURVE",
"226 4 CURVE SMOOTH",
"158 4 OFFCURVE",
"107 35.667 OFFCURVE",
"107 101 CURVE SMOOTH",
"107 161 OFFCURVE",
"141 194 OFFCURVE",
"181 194 CURVE SMOOTH",
"185 194 OFFCURVE",
"189.667 193.333 OFFCURVE",
"195 192 CURVE",
"196 196 LINE",
"182.667 209.333 OFFCURVE",
"160.667 218 OFFCURVE",
"142 218 CURVE SMOOTH",
"86 218 OFFCURVE",
"53 172.333 OFFCURVE",
"53 119 CURVE SMOOTH",
"53 38.634 OFFCURVE",
"137.575 -8 OFFCURVE",
"225 -8 CURVE SMOOTH",
"353.288 -8 OFFCURVE",
"484 63.003 OFFCURVE",
"484 172 CURVE SMOOTH",
"484 241.333 OFFCURVE",
"439.333 276 OFFCURVE",
"374 280 CURVE",
"374 282 LINE",
"481.671 295.459 OFFCURVE",
"598 334.482 OFFCURVE",
"598 429 CURVE SMOOTH",
"598 493.07 OFFCURVE",
"552.771 538 OFFCURVE",
"471 538 CURVE SMOOTH",
"384.864 538 OFFCURVE",
"308 476.97 OFFCURVE",
"308 402 CURVE SMOOTH",
"308 367.333 OFFCURVE",
"330.333 338 OFFCURVE",
"369 338 CURVE SMOOTH",
"399.667 338 OFFCURVE",
"428.667 356.667 OFFCURVE",
"430 382 CURVE",
"416.667 375.333 OFFCURVE",
"409.667 374 OFFCURVE",
"395 374 CURVE SMOOTH",
"363 374 OFFCURVE",
"348 403.667 OFFCURVE",
"348 433 CURVE SMOOTH",
"348 487.956 OFFCURVE",
"402.145 522 OFFCURVE",
"455 522 CURVE SMOOTH",
"511 522 OFFCURVE",
"538 481 OFFCURVE",
"538 429 CURVE SMOOTH",
"538 362.5 OFFCURVE",
"497.754 324.41 OFFCURVE",
"441.5 306 CURVE SMOOTH",
"392.076 289.825 OFFCURVE",
"326.345 286.793 OFFCURVE",
"272 280 CURVE"
);
}
);
userData = {
assembly = "PUSHW[ ]\011/* 4 values pushed */
68 4 56 4 
CALL[ ]\011/* CallFunction */
PUSHW[ ]\011/* 4 values pushed */
15 5 27 4 
CALL[ ]\011/* CallFunction */
PUSHW[ ]\011/* 4 values pushed */
46 8 76 4 
CALL[ ]\011/* CallFunction */
PUSHW[ ]\011/* 4 values pushed */
37 8 7 4 
CALL[ ]\011/* CallFunction */
NPUSHW[ ]\011/* 5 values pushed */
122 7 138 7 2 
DELTAP2[ ]\011/* DeltaExceptionP2 */
NPUSHW[ ]\011/* 15 values pushed */
153 7 169 7 185 7 201 7 217 7 233 7 249 7 7 
DELTAP1[ ]\011/* DeltaExceptionP1 */
NPUSHW[ ]\011/* 15 values pushed */
9 7 25 7 41 7 57 7 73 7 89 7 105 7 7 
DELTAP2[ ]\011/* DeltaExceptionP2 */
NPUSHW[ ]\011/* 5 values pushed */
122 76 138 76 2 
DELTAP2[ ]\011/* DeltaExceptionP2 */
NPUSHW[ ]\011/* 15 values pushed */
153 76 169 76 185 76 201 76 217 76 233 76 249 76 7 
DELTAP1[ ]\011/* DeltaExceptionP1 */
NPUSHW[ ]\011/* 15 values pushed */
9 76 25 76 41 76 57 76 73 76 89 76 105 76 7 
DELTAP2[ ]\011/* DeltaExceptionP2 */
PUSHW[ ]\011/* 1 value pushed */
76 
SRP0[ ]\011/* SetRefPoint0 */
PUSHW[ ]\011/* 1 value pushed */
21 
MDRP[10000]\011/* MoveDirectRelPt */
PUSHW[ ]\011/* 1 value pushed */
21 
MDAP[1]\011/* MoveDirectAbsPt */
NPUSHW[ ]\011/* 5 values pushed */
74 27 90 27 2 
DELTAP3[ ]\011/* DeltaExceptionP3 */
NPUSHW[ ]\011/* 15 values pushed */
153 27 169 27 185 27 201 27 217 27 233 27 249 27 7 
DELTAP1[ ]\011/* DeltaExceptionP1 */
NPUSHW[ ]\011/* 33 values pushed */
9 27 25 27 41 27 57 27 73 27 89 27 105 27 121 27 137 27 153 27 169 27 185 27 201 27 217 27 233 27 249 27 16 
DELTAP2[ ]\011/* DeltaExceptionP2 */
NPUSHW[ ]\011/* 9 values pushed */
9 27 25 27 41 27 57 27 4 
DELTAP3[ ]\011/* DeltaExceptionP3 */
PUSHW[ ]\011/* 3 values pushed */
43 56 37 
SRP1[ ]\011/* SetRefPoint1 */
SRP2[ ]\011/* SetRefPoint2 */
IP[ ]\011/* InterpolatePts */
PUSHW[ ]\011/* 3 values pushed */
63 56 37 
SRP1[ ]\011/* SetRefPoint1 */
SRP2[ ]\011/* SetRefPoint2 */
IP[ ]\011/* InterpolatePts */
NPUSHW[ ]\011/* 15 values pushed */
150 68 166 68 182 68 198 68 214 68 230 68 246 68 7 
DELTAP1[ ]\011/* DeltaExceptionP1 */
NPUSHW[ ]\011/* 15 values pushed */
6 68 22 68 38 68 54 68 70 68 86 68 102 68 7 
DELTAP2[ ]\011/* DeltaExceptionP2 */
NPUSHW[ ]\011/* 5 values pushed */
117 68 133 68 2 
DELTAP2[ ]\011/* DeltaExceptionP2 */
PUSHW[ ]\011/* 1 value pushed */
37 
SRP0[ ]\011/* SetRefPoint0 */
PUSHW[ ]\011/* 1 value pushed */
84 
MDRP[11100]\011/* MoveDirectRelPt */
SVTCA[0]\011/* SetFreedomAndProjectionVectorToAxis */
PUSHW[ ]\011/* 1 value pushed */
0 
RCVT[ ]\011/* ReadCVT */
IF[ ]\011/* If */
PUSHW[ ]\011/* 1 value pushed */
51 
MDAP[1]\011/* MoveDirectAbsPt */
ELSE[ ]\011/* Else */
PUSHW[ ]\011/* 2 values pushed */
51 10 
MIAP[0]\011/* MoveIndirectAbsPt */
EIF[ ]\011/* EndIf */
PUSHW[ ]\011/* 4 values pushed */
18 3 24 4 
CALL[ ]\011/* CallFunction */
PUSHW[ ]\011/* 1 value pushed */
24 
SRP0[ ]\011/* SetRefPoint0 */
PUSHW[ ]\011/* 1 value pushed */
32 
MDRP[11100]\011/* MoveDirectRelPt */
PUSHW[ ]\011/* 3 values pushed */
21 24 32 
SRP1[ ]\011/* SetRefPoint1 */
SRP2[ ]\011/* SetRefPoint2 */
IP[ ]\011/* InterpolatePts */
PUSHW[ ]\011/* 1 value pushed */
18 
SRP0[ ]\011/* SetRefPoint0 */
PUSHW[ ]\011/* 2 values pushed */
79 1 
MIRP[10100]\011/* MoveIndirectRelPt */
PUSHW[ ]\011/* 3 values pushed */
43 18 79 
SRP1[ ]\011/* SetRefPoint1 */
SRP2[ ]\011/* SetRefPoint2 */
IP[ ]\011/* InterpolatePts */
PUSHW[ ]\011/* 1 value pushed */
51 
SRP0[ ]\011/* SetRefPoint0 */
PUSHW[ ]\011/* 1 value pushed */
59 
MDRP[11100]\011/* MoveDirectRelPt */
NPUSHW[ ]\011/* 15 values pushed */
151 59 167 59 183 59 199 59 215 59 231 59 247 59 7 
DELTAP1[ ]\011/* DeltaExceptionP1 */
NPUSHW[ ]\011/* 13 values pushed */
7 59 23 59 39 59 55 59 71 59 87 59 6 
DELTAP2[ ]\011/* DeltaExceptionP2 */
NPUSHW[ ]\011/* 5 values pushed */
102 59 118 59 2 
DELTAP2[ ]\011/* DeltaExceptionP2 */
PUSHW[ ]\011/* 3 values pushed */
63 51 59 
SRP1[ ]\011/* SetRefPoint1 */
SRP2[ ]\011/* SetRefPoint2 */
IP[ ]\011/* InterpolatePts */
PUSHW[ ]\011/* 2 values pushed */
65 2 
MIRP[10100]\011/* MoveIndirectRelPt */
PUSHW[ ]\011/* 1 value pushed */
79 
SRP0[ ]\011/* SetRefPoint0 */
PUSHW[ ]\011/* 1 value pushed */
82 
MDRP[10000]\011/* MoveDirectRelPt */
PUSHW[ ]\011/* 1 value pushed */
82 
MDAP[1]\011/* MoveDirectAbsPt */
IUP[0]\011/* InterpolateUntPts */
IUP[1]\011/* InterpolateUntPts */";
};
width = 500;
}
);
note = three;
unicode = 0033;
},
{
glyphname = four;
lastChange = "2018-11-16 05:15:47 +0000";
layers = (
{
layerId = "C82BC34C-76D5-4A26-949B-BF353CFC0606";
paths = (
{
closed = 1;
nodes = (
"616 516 LINE",
"559 510 LINE",
"354 199 LINE",
"110 199 LINE",
"110 203 LINE",
"602 609 LINE",
"576 609 LINE",
"78 187 LINE",
"347 187 LINE",
"224 0 LINE",
"294 10 LINE",
"407 187 LINE",
"529 187 LINE",
"536 199 LINE",
"414 199 LINE"
);
}
);
userData = {
assembly = "SVTCA[0]\011/* SetFreedomAndProjectionVectorToAxis */
PUSHW[ ]\011/* 1 value pushed */
8 
MDAP[1]\011/* MoveDirectAbsPt */
PUSHW[ ]\011/* 1 value pushed */
0 
RCVT[ ]\011/* ReadCVT */
IF[ ]\011/* If */
PUSHW[ ]\011/* 1 value pushed */
5 
MDAP[1]\011/* MoveDirectAbsPt */
ELSE[ ]\011/* Else */
PUSHW[ ]\011/* 2 values pushed */
5 10 
MIAP[0]\011/* MoveIndirectAbsPt */
EIF[ ]\011/* EndIf */
PUSHW[ ]\011/* 3 values pushed */
0 5 8 
SRP1[ ]\011/* SetRefPoint1 */
SRP2[ ]\011/* SetRefPoint2 */
IP[ ]\011/* InterpolatePts */
PUSHW[ ]\011/* 3 values pushed */
1 5 8 
SRP1[ ]\011/* SetRefPoint1 */
SRP2[ ]\011/* SetRefPoint2 */
IP[ ]\011/* InterpolatePts */
PUSHW[ ]\011/* 3 values pushed */
6 5 8 
SRP1[ ]\011/* SetRefPoint1 */
SRP2[ ]\011/* SetRefPoint2 */
IP[ ]\011/* InterpolatePts */
PUSHW[ ]\011/* 3 values pushed */
7 5 8 
SRP1[ ]\011/* SetRefPoint1 */
SRP2[ ]\011/* SetRefPoint2 */
IP[ ]\011/* InterpolatePts */
PUSHW[ ]\011/* 3 values pushed */
11 5 8 
SRP1[ ]\011/* SetRefPoint1 */
SRP2[ ]\011/* SetRefPoint2 */
IP[ ]\011/* InterpolatePts */
PUSHW[ ]\011/* 3 values pushed */
14 5 8 
SRP1[ ]\011/* SetRefPoint1 */
SRP2[ ]\011/* SetRefPoint2 */
IP[ ]\011/* InterpolatePts */
IUP[0]\011/* InterpolateUntPts */
IUP[1]\011/* InterpolateUntPts */";
};
width = 500;
}
);
note = four;
unicode = 0034;
},
{
glyphname = five;
lastChange = "2018-11-16 05:15:47 +0000";
layers = (
{
layerId = "C82BC34C-76D5-4A26-949B-BF353CFC0606";
paths = (
{
closed = 1;
nodes = (
"226 273 LINE",
"231 269 LINE",
"264.333 287.667 OFFCURVE",
"300.333 302 OFFCURVE",
"339 302 CURVE SMOOTH",
"397.667 302 OFFCURVE",
"426 267 OFFCURVE",
"426 211 CURVE SMOOTH",
"426 100.473 OFFCURVE",
"346.434 4 OFFCURVE",
"234 4 CURVE SMOOTH",
"167.333 4 OFFCURVE",
"125 42.667 OFFCURVE",
"125 108 CURVE SMOOTH",
"125 157.333 OFFCURVE",
"156 194 OFFCURVE",
"200 194 CURVE SMOOTH",
"206.667 194 OFFCURVE",
"212.333 193.333 OFFCURVE",
"219 192 CURVE",
"220 196 LINE",
"204 213.333 OFFCURVE",
"184.667 222 OFFCURVE",
"162 222 CURVE SMOOTH",
"107.333 222 OFFCURVE",
"71 178.667 OFFCURVE",
"71 124 CURVE SMOOTH",
"71 37.19 OFFCURVE",
"150.18 -8 OFFCURVE",
"236 -8 CURVE SMOOTH",
"358.345 -8 OFFCURVE",
"486 94.738 OFFCURVE",
"486 204 CURVE SMOOTH",
"486 280 OFFCURVE",
"438 318 OFFCURVE",
"358 318 CURVE SMOOTH",
"322 318 OFFCURVE",
"298.667 309.667 OFFCURVE",
"272 299 CURVE",
"270 301 LINE",
"442 473 LINE",
"475.333 458.333 OFFCURVE",
"493.333 448 OFFCURVE",
"524 448 CURVE SMOOTH",
"561.883 448 OFFCURVE",
"619.545 483.817 OFFCURVE",
"641 516 CURVE",
"638 520 LINE",
"616.667 504 OFFCURVE",
"591.333 492 OFFCURVE",
"558 492 CURVE SMOOTH",
"531.333 492 OFFCURVE",
"500.667 504.667 OFFCURVE",
"478 530 CURVE"
);
}
);
userData = {
assembly = "PUSHW[ ]\011/* 1 value pushed */
61 
MDAP[1]\011/* MoveDirectAbsPt */
PUSHW[ ]\011/* 1 value pushed */
53 
MDAP[1]\011/* MoveDirectAbsPt */
PUSHW[ ]\011/* 1 value pushed */
61 
SRP0[ ]\011/* SetRefPoint0 */
PUSHW[ ]\011/* 1 value pushed */
33 
MDRP[10000]\011/* MoveDirectRelPt */
PUSHW[ ]\011/* 1 value pushed */
33 
MDAP[1]\011/* MoveDirectAbsPt */
NPUSHW[ ]\011/* 5 values pushed */
122 53 138 53 2 
DELTAP2[ ]\011/* DeltaExceptionP2 */
NPUSHW[ ]\011/* 15 values pushed */
153 53 169 53 185 53 201 53 217 53 233 53 249 53 7 
DELTAP1[ ]\011/* DeltaExceptionP1 */
NPUSHW[ ]\011/* 15 values pushed */
9 53 25 53 41 53 57 53 73 53 89 53 105 53 7 
DELTAP2[ ]\011/* DeltaExceptionP2 */
PUSHW[ ]\011/* 1 value pushed */
53 
SRP0[ ]\011/* SetRefPoint0 */
PUSHW[ ]\011/* 2 values pushed */
23 8 
MIRP[10100]\011/* MoveIndirectRelPt */
PUSHW[ ]\011/* 3 values pushed */
17 33 23 
SRP1[ ]\011/* SetRefPoint1 */
SRP2[ ]\011/* SetRefPoint2 */
IP[ ]\011/* InterpolatePts */
PUSHW[ ]\011/* 1 value pushed */
33 
SRP0[ ]\011/* SetRefPoint0 */
PUSHW[ ]\011/* 2 values pushed */
45 4 
MIRP[10100]\011/* MoveIndirectRelPt */
NPUSHW[ ]\011/* 15 values pushed */
150 45 166 45 182 45 198 45 214 45 230 45 246 45 7 
DELTAP1[ ]\011/* DeltaExceptionP1 */
NPUSHW[ ]\011/* 15 values pushed */
6 45 22 45 38 45 54 45 70 45 86 45 102 45 7 
DELTAP2[ ]\011/* DeltaExceptionP2 */
NPUSHW[ ]\011/* 5 values pushed */
117 45 133 45 2 
DELTAP2[ ]\011/* DeltaExceptionP2 */
PUSHW[ ]\011/* 1 value pushed */
23 
SRP0[ ]\011/* SetRefPoint0 */
PUSHW[ ]\011/* 1 value pushed */
62 
MDRP[11100]\011/* MoveDirectRelPt */
SVTCA[0]\011/* SetFreedomAndProjectionVectorToAxis */
PUSHW[ ]\011/* 1 value pushed */
0 
MDAP[1]\011/* MoveDirectAbsPt */
PUSHW[ ]\011/* 1 value pushed */
0 
RCVT[ ]\011/* ReadCVT */
IF[ ]\011/* If */
PUSHW[ ]\011/* 1 value pushed */
28 
MDAP[1]\011/* MoveDirectAbsPt */
ELSE[ ]\011/* Else */
PUSHW[ ]\011/* 2 values pushed */
28 10 
MIAP[0]\011/* MoveIndirectAbsPt */
EIF[ ]\011/* EndIf */
PUSHW[ ]\011/* 4 values pushed */
3 3 12 4 
CALL[ ]\011/* CallFunction */
PUSHW[ ]\011/* 3 values pushed */
7 28 0 
SRP1[ ]\011/* SetRefPoint1 */
SRP2[ ]\011/* SetRefPoint2 */
IP[ ]\011/* InterpolatePts */
PUSHW[ ]\011/* 3 values pushed */
17 28 0 
SRP1[ ]\011/* SetRefPoint1 */
SRP2[ ]\011/* SetRefPoint2 */
IP[ ]\011/* InterpolatePts */
PUSHW[ ]\011/* 1 value pushed */
28 
SRP0[ ]\011/* SetRefPoint0 */
PUSHW[ ]\011/* 1 value pushed */
36 
MDRP[11100]\011/* MoveDirectRelPt */
NPUSHW[ ]\011/* 15 values pushed */
151 36 167 36 183 36 199 36 215 36 231 36 247 36 7 
DELTAP1[ ]\011/* DeltaExceptionP1 */
NPUSHW[ ]\011/* 13 values pushed */
7 36 23 36 39 36 55 36 71 36 87 36 6 
DELTAP2[ ]\011/* DeltaExceptionP2 */
NPUSHW[ ]\011/* 5 values pushed */
102 36 118 36 2 
DELTAP2[ ]\011/* DeltaExceptionP2 */
PUSHW[ ]\011/* 2 values pushed */
42 2 
MIRP[10100]\011/* MoveIndirectRelPt */
IUP[0]\011/* InterpolateUntPts */
IUP[1]\011/* InterpolateUntPts */";
};
width = 500;
}
);
note = five;
unicode = 0035;
},
{
glyphname = six;
lastChange = "2018-11-16 05:15:47 +0000";
layers = (
{
layerId = "C82BC34C-76D5-4A26-949B-BF353CFC0606";
paths = (
{
closed = 1;
nodes = (
"468 179.335 OFFCURVE",
"358.958 4 OFFCURVE",
"255 4 CURVE SMOOTH",
"203.087 4 OFFCURVE",
"191 51.953 OFFCURVE",
"191 99 CURVE SMOOTH",
"191 233.497 OFFCURVE",
"314.774 390 OFFCURVE",
"406 390 CURVE SMOOTH",
"457.207 390 OFFCURVE",
"468 346.164 OFFCURVE",
"468 300 CURVE SMOOTH"
);
},
{
closed = 1;
nodes = (
"249 301 LINE",
"289 373 OFFCURVE",
"350.833 465.5 OFFCURVE",
"427.5 539.5 CURVE SMOOTH",
"504.167 613.5 OFFCURVE",
"596.667 670 OFFCURVE",
"694 670 CURVE SMOOTH",
"774.744 670 OFFCURVE",
"810 611.026 OFFCURVE",
"810 560 CURVE SMOOTH",
"810 549.333 OFFCURVE",
"809.333 546.667 OFFCURVE",
"808 536 CURVE",
"824 548 OFFCURVE",
"842 568.667 OFFCURVE",
"842 598 CURVE SMOOTH",
"842 650.311 OFFCURVE",
"793.72 686 OFFCURVE",
"711 686 CURVE SMOOTH",
"631 686 OFFCURVE",
"541.333 651 OFFCURVE",
"456 595 CURVE SMOOTH",
"413.333 567 OFFCURVE",
"372.833 534.5 OFFCURVE",
"334.5 497.5 CURVE SMOOTH",
"257.833 423.5 OFFCURVE",
"197.667 339.667 OFFCURVE",
"163 253 CURVE SMOOTH",
"145.667 209.667 OFFCURVE",
"137 167.667 OFFCURVE",
"137 127 CURVE SMOOTH",
"137 56.848 OFFCURVE",
"171.244 -8 OFFCURVE",
"245 -8 CURVE SMOOTH",
"371.764 -8 OFFCURVE",
"528 173.211 OFFCURVE",
"528 297 CURVE SMOOTH",
"528 366.333 OFFCURVE",
"494 406 OFFCURVE",
"426 406 CURVE SMOOTH",
"353.619 406 OFFCURVE",
"295.831 354.237 OFFCURVE",
"251 301 CURVE"
);
}
);
userData = {
assembly = "PUSHW[ ]\011/* 4 values pushed */
10 4 38 4 
CALL[ ]\011/* CallFunction */
PUSHW[ ]\011/* 4 values pushed */
28 8 0 4 
CALL[ ]\011/* CallFunction */
PUSHW[ ]\011/* 4 values pushed */
50 5 56 4 
CALL[ ]\011/* CallFunction */
NPUSHW[ ]\011/* 5 values pushed */
122 0 138 0 2 
DELTAP2[ ]\011/* DeltaExceptionP2 */
NPUSHW[ ]\011/* 15 values pushed */
153 0 169 0 185 0 201 0 217 0 233 0 249 0 7 
DELTAP1[ ]\011/* DeltaExceptionP1 */
NPUSHW[ ]\011/* 15 values pushed */
9 0 25 0 41 0 57 0 73 0 89 0 105 0 7 
DELTAP2[ ]\011/* DeltaExceptionP2 */
NPUSHW[ ]\011/* 15 values pushed */
150 10 166 10 182 10 198 10 214 10 230 10 246 10 7 
DELTAP1[ ]\011/* DeltaExceptionP1 */
NPUSHW[ ]\011/* 15 values pushed */
6 10 22 10 38 10 54 10 70 10 86 10 102 10 7 
DELTAP2[ ]\011/* DeltaExceptionP2 */
NPUSHW[ ]\011/* 5 values pushed */
117 10 133 10 2 
DELTAP2[ ]\011/* DeltaExceptionP2 */
NPUSHW[ ]\011/* 5 values pushed */
74 56 90 56 2 
DELTAP3[ ]\011/* DeltaExceptionP3 */
NPUSHW[ ]\011/* 15 values pushed */
153 56 169 56 185 56 201 56 217 56 233 56 249 56 7 
DELTAP1[ ]\011/* DeltaExceptionP1 */
NPUSHW[ ]\011/* 33 values pushed */
9 56 25 56 41 56 57 56 73 56 89 56 105 56 121 56 137 56 153 56 169 56 185 56 201 56 217 56 233 56 249 56 16 
DELTAP2[ ]\011/* DeltaExceptionP2 */
NPUSHW[ ]\011/* 9 values pushed */
9 56 25 56 41 56 57 56 4 
DELTAP3[ ]\011/* DeltaExceptionP3 */
PUSHW[ ]\011/* 1 value pushed */
56 
SRP0[ ]\011/* SetRefPoint0 */
PUSHW[ ]\011/* 1 value pushed */
53 
MDRP[10000]\011/* MoveDirectRelPt */
PUSHW[ ]\011/* 1 value pushed */
53 
MDAP[1]\011/* MoveDirectAbsPt */
PUSHW[ ]\011/* 1 value pushed */
50 
SRP0[ ]\011/* SetRefPoint0 */
PUSHW[ ]\011/* 1 value pushed */
68 
MDRP[11100]\011/* MoveDirectRelPt */
SVTCA[0]\011/* SetFreedomAndProjectionVectorToAxis */
PUSHW[ ]\011/* 1 value pushed */
45 
MDAP[1]\011/* MoveDirectAbsPt */
PUSHW[ ]\011/* 1 value pushed */
0 
RCVT[ ]\011/* ReadCVT */
IF[ ]\011/* If */
PUSHW[ ]\011/* 1 value pushed */
33 
MDAP[1]\011/* MoveDirectAbsPt */
ELSE[ ]\011/* Else */
PUSHW[ ]\011/* 2 values pushed */
33 10 
MIAP[0]\011/* MoveIndirectAbsPt */
EIF[ ]\011/* EndIf */
PUSHW[ ]\011/* 3 values pushed */
53 33 45 
SRP1[ ]\011/* SetRefPoint1 */
SRP2[ ]\011/* SetRefPoint2 */
IP[ ]\011/* InterpolatePts */
IUP[0]\011/* InterpolateUntPts */
IUP[1]\011/* InterpolateUntPts */";
};
width = 500;
}
);
note = six;
unicode = 0036;
},
{
glyphname = seven;
lastChange = "2018-11-16 05:15:47 +0000";
layers = (
{
layerId = "C82BC34C-76D5-4A26-949B-BF353CFC0606";
paths = (
{
closed = 1;
nodes = (
"176 -96 LINE",
"670 540 LINE",
"664 544 LINE",
"637.333 516 OFFCURVE",
"605.333 496 OFFCURVE",
"564 496 CURVE SMOOTH",
"536 496 OFFCURVE",
"514.667 506.333 OFFCURVE",
"492 517 CURVE SMOOTH",
"470.667 527.667 OFFCURVE",
"451.333 538 OFFCURVE",
"426 538 CURVE SMOOTH",
"379.333 538 OFFCURVE",
"357.667 519.667 OFFCURVE",
"323 493 CURVE",
"321 495 LINE",
"334.333 513.667 OFFCURVE",
"347.333 536.333 OFFCURVE",
"358 559 CURVE",
"350 562 LINE",
"344 550.667 OFFCURVE",
"337.333 538 OFFCURVE",
"330 524 CURVE SMOOTH",
"322.667 510 OFFCURVE",
"315.667 498.333 OFFCURVE",
"309 489 CURVE",
"300.14 474.233 OFFCURVE",
"250 431.535 OFFCURVE",
"250 420 CURVE SMOOTH",
"250 414.667 OFFCURVE",
"252 412 OFFCURVE",
"256 412 CURVE SMOOTH",
"277.904 412 OFFCURVE",
"323.441 502 OFFCURVE",
"368 502 CURVE SMOOTH",
"394.667 502 OFFCURVE",
"416.333 491.667 OFFCURVE",
"439 481 CURVE SMOOTH",
"463 470.333 OFFCURVE",
"486.333 460 OFFCURVE",
"513 460 CURVE SMOOTH",
"567.667 460 OFFCURVE",
"602.333 481.667 OFFCURVE",
"641 515 CURVE",
"643 513 LINE",
"88 -106 LINE"
);
}
);
userData = {
assembly = "SVTCA[0]\011/* SetFreedomAndProjectionVectorToAxis */
PUSHW[ ]\011/* 1 value pushed */
26 
MDAP[1]\011/* MoveDirectAbsPt */
PUSHW[ ]\011/* 1 value pushed */
0 
MDAP[1]\011/* MoveDirectAbsPt */
PUSHW[ ]\011/* 4 values pushed */
34 3 11 4 
CALL[ ]\011/* CallFunction */
PUSHW[ ]\011/* 3 values pushed */
2 11 34 
SRP1[ ]\011/* SetRefPoint1 */
SRP2[ ]\011/* SetRefPoint2 */
IP[ ]\011/* InterpolatePts */
PUSHW[ ]\011/* 1 value pushed */
11 
SRP0[ ]\011/* SetRefPoint0 */
PUSHW[ ]\011/* 1 value pushed */
40 
MDRP[10000]\011/* MoveDirectRelPt */
PUSHW[ ]\011/* 1 value pushed */
40 
MDAP[1]\011/* MoveDirectAbsPt */
PUSHW[ ]\011/* 2 values pushed */
5 3 
MIRP[10100]\011/* MoveIndirectRelPt */
PUSHW[ ]\011/* 3 values pushed */
31 40 5 
SRP1[ ]\011/* SetRefPoint1 */
SRP2[ ]\011/* SetRefPoint2 */
IP[ ]\011/* InterpolatePts */
IUP[0]\011/* InterpolateUntPts */
IUP[1]\011/* InterpolateUntPts */";
};
width = 500;
}
);
note = seven;
unicode = 0037;
},
{
glyphname = eight;
lastChange = "2018-11-16 05:15:47 +0000";
layers = (
{
layerId = "C82BC34C-76D5-4A26-949B-BF353CFC0606";
paths = (
{
closed = 1;
nodes = (
"494 295 LINE",
"579.944 317.179 OFFCURVE",
"662 380.295 OFFCURVE",
"662 471 CURVE SMOOTH",
"662 561.667 OFFCURVE",
"609 620 OFFCURVE",
"517 620 CURVE SMOOTH",
"418.747 620 OFFCURVE",
"330 550.379 OFFCURVE",
"330 450 CURVE SMOOTH",
"330 415.333 OFFCURVE",
"340 384 OFFCURVE",
"352 352 CURVE",
"231.815 352 OFFCURVE",
"114 272.888 OFFCURVE",
"114 151 CURVE SMOOTH",
"114 60.242 OFFCURVE",
"184.696 -8 OFFCURVE",
"276 -8 CURVE SMOOTH",
"382.68 -8 OFFCURVE",
"469 67.567 OFFCURVE",
"469 170 CURVE SMOOTH",
"469 275.039 OFFCURVE",
"384 357.641 OFFCURVE",
"384 468 CURVE SMOOTH",
"384 552 OFFCURVE",
"431 608 OFFCURVE",
"499 608 CURVE SMOOTH",
"568.333 608 OFFCURVE",
"614 548 OFFCURVE",
"614 460 CURVE SMOOTH",
"614 377.333 OFFCURVE",
"573.333 322.667 OFFCURVE",
"492 304 CURVE"
);
},
{
closed = 1;
nodes = (
"168 287 OFFCURVE",
"232 338.667 OFFCURVE",
"356 340 CURVE",
"382.667 282.667 OFFCURVE",
"415 223.667 OFFCURVE",
"415 157 CURVE SMOOTH",
"415 75.934 OFFCURVE",
"391.246 8 OFFCURVE",
"304 8 CURVE SMOOTH",
"219.546 8 OFFCURVE",
"168 81.285 OFFCURVE",
"168 163 CURVE SMOOTH"
);
}
);
userData = {
assembly = "PUSHW[ ]\011/* 4 values pushed */
46 4 24 4 
CALL[ ]\011/* CallFunction */
PUSHW[ ]\011/* 4 values pushed */
9 4 32 4 
CALL[ ]\011/* CallFunction */
PUSHW[ ]\011/* 4 values pushed */
14 4 56 4 
CALL[ ]\011/* CallFunction */
PUSHW[ ]\011/* 4 values pushed */
40 7 3 4 
CALL[ ]\011/* CallFunction */
NPUSHW[ ]\011/* 5 values pushed */
74 3 90 3 2 
DELTAP3[ ]\011/* DeltaExceptionP3 */
NPUSHW[ ]\011/* 15 values pushed */
153 3 169 3 185 3 201 3 217 3 233 3 249 3 7 
DELTAP1[ ]\011/* DeltaExceptionP1 */
NPUSHW[ ]\011/* 33 values pushed */
9 3 25 3 41 3 57 3 73 3 89 3 105 3 121 3 137 3 153 3 169 3 185 3 201 3 217 3 233 3 249 3 16 
DELTAP2[ ]\011/* DeltaExceptionP2 */
NPUSHW[ ]\011/* 9 values pushed */
9 3 25 3 41 3 57 3 4 
DELTAP3[ ]\011/* DeltaExceptionP3 */
NPUSHW[ ]\011/* 15 values pushed */
150 9 166 9 182 9 198 9 214 9 230 9 246 9 7 
DELTAP1[ ]\011/* DeltaExceptionP1 */
NPUSHW[ ]\011/* 15 values pushed */
6 9 22 9 38 9 54 9 70 9 86 9 102 9 7 
DELTAP2[ ]\011/* DeltaExceptionP2 */
NPUSHW[ ]\011/* 5 values pushed */
117 9 133 9 2 
DELTAP2[ ]\011/* DeltaExceptionP2 */
PUSHW[ ]\011/* 3 values pushed */
29 32 9 
SRP1[ ]\011/* SetRefPoint1 */
SRP2[ ]\011/* SetRefPoint2 */
IP[ ]\011/* InterpolatePts */
NPUSHW[ ]\011/* 15 values pushed */
150 46 166 46 182 46 198 46 214 46 230 46 246 46 7 
DELTAP1[ ]\011/* DeltaExceptionP1 */
NPUSHW[ ]\011/* 15 values pushed */
6 46 22 46 38 46 54 46 70 46 86 46 102 46 7 
DELTAP2[ ]\011/* DeltaExceptionP2 */
NPUSHW[ ]\011/* 5 values pushed */
117 46 133 46 2 
DELTAP2[ ]\011/* DeltaExceptionP2 */
NPUSHW[ ]\011/* 5 values pushed */
122 56 138 56 2 
DELTAP2[ ]\011/* DeltaExceptionP2 */
NPUSHW[ ]\011/* 15 values pushed */
153 56 169 56 185 56 201 56 217 56 233 56 249 56 7 
DELTAP1[ ]\011/* DeltaExceptionP1 */
NPUSHW[ ]\011/* 15 values pushed */
9 56 25 56 41 56 57 56 73 56 89 56 105 56 7 
DELTAP2[ ]\011/* DeltaExceptionP2 */
PUSHW[ ]\011/* 1 value pushed */
40 
SRP0[ ]\011/* SetRefPoint0 */
PUSHW[ ]\011/* 1 value pushed */
63 
MDRP[11100]\011/* MoveDirectRelPt */
SVTCA[0]\011/* SetFreedomAndProjectionVectorToAxis */
PUSHW[ ]\011/* 1 value pushed */
37 
MDAP[1]\011/* MoveDirectAbsPt */
PUSHW[ ]\011/* 1 value pushed */
0 
RCVT[ ]\011/* ReadCVT */
IF[ ]\011/* If */
PUSHW[ ]\011/* 1 value pushed */
19 
MDAP[1]\011/* MoveDirectAbsPt */
ELSE[ ]\011/* Else */
PUSHW[ ]\011/* 2 values pushed */
19 10 
MIAP[0]\011/* MoveIndirectAbsPt */
EIF[ ]\011/* EndIf */
PUSHW[ ]\011/* 3 values pushed */
29 19 37 
SRP1[ ]\011/* SetRefPoint1 */
SRP2[ ]\011/* SetRefPoint2 */
IP[ ]\011/* InterpolatePts */
IUP[0]\011/* InterpolateUntPts */
IUP[1]\011/* InterpolateUntPts */";
};
width = 500;
}
);
note = eight;
unicode = 0038;
},
{
glyphname = nine;
lastChange = "2018-11-16 05:15:47 +0000";
layers = (
{
layerId = "C82BC34C-76D5-4A26-949B-BF353CFC0606";
paths = (
{
closed = 1;
nodes = (
"488 288.645 OFFCURVE",
"370.175 144 OFFCURVE",
"279 144 CURVE SMOOTH",
"239.667 144 OFFCURVE",
"220 175.667 OFFCURVE",
"220 239 CURVE SMOOTH",
"220 352.407 OFFCURVE",
"319.326 526 OFFCURVE",
"425 526 CURVE SMOOTH",
"471.667 526 OFFCURVE",
"488 487.667 OFFCURVE",
"488 437 CURVE SMOOTH"
);
},
{
closed = 1;
nodes = (
"439 245 LINE",
"413.667 189 OFFCURVE",
"374 120.5 OFFCURVE",
"326 54.5 CURVE SMOOTH",
"302 21.5 OFFCURVE",
"275.833 -10.333 OFFCURVE",
"247.5 -41 CURVE SMOOTH",
"190.833 -102.333 OFFCURVE",
"127.667 -151 OFFCURVE",
"61 -179 CURVE SMOOTH",
"27.667 -193 OFFCURVE",
"-6.333 -200 OFFCURVE",
"-41 -200 CURVE SMOOTH",
"-127.212 -200 OFFCURVE",
"-196 -147.995 OFFCURVE",
"-196 -68 CURVE SMOOTH",
"-196 -53.333 OFFCURVE",
"-195.667 -46.667 OFFCURVE",
"-193 -36 CURVE",
"-226.333 -46.667 OFFCURVE",
"-240 -72.667 OFFCURVE",
"-240 -102 CURVE SMOOTH",
"-240 -171.737 OFFCURVE",
"-160.525 -216 OFFCURVE",
"-69 -216 CURVE SMOOTH",
"23 -216 OFFCURVE",
"123.167 -172.5 OFFCURVE",
"214.5 -106.5 CURVE SMOOTH",
"260.167 -73.5 OFFCURVE",
"303.167 -35.167 OFFCURVE",
"343.5 8.5 CURVE SMOOTH",
"424.167 95.833 OFFCURVE",
"486.167 191.167 OFFCURVE",
"521.5 286.5 CURVE SMOOTH",
"539.167 334.167 OFFCURVE",
"548 379 OFFCURVE",
"548 421 CURVE SMOOTH",
"548 489 OFFCURVE",
"514 538 OFFCURVE",
"438 538 CURVE SMOOTH",
"323.868 538 OFFCURVE",
"160 368.533 OFFCURVE",
"160 235 CURVE SMOOTH",
"160 171 OFFCURVE",
"191.667 128 OFFCURVE",
"253 128 CURVE SMOOTH",
"329.583 128 OFFCURVE",
"396.038 184.922 OFFCURVE",
"437 245 CURVE"
);
}
);
userData = {
assembly = "PUSHW[ ]\011/* 4 values pushed */
49 6 43 4 
CALL[ ]\011/* CallFunction */
PUSHW[ ]\011/* 4 values pushed */
8 8 23 4 
CALL[ ]\011/* CallFunction */
PUSHW[ ]\011/* 4 values pushed */
31 8 0 4 
CALL[ ]\011/* CallFunction */
NPUSHW[ ]\011/* 5 values pushed */
122 0 138 0 2 
DELTAP2[ ]\011/* DeltaExceptionP2 */
NPUSHW[ ]\011/* 15 values pushed */
153 0 169 0 185 0 201 0 217 0 233 0 249 0 7 
DELTAP1[ ]\011/* DeltaExceptionP1 */
NPUSHW[ ]\011/* 15 values pushed */
9 0 25 0 41 0 57 0 73 0 89 0 105 0 7 
DELTAP2[ ]\011/* DeltaExceptionP2 */
NPUSHW[ ]\011/* 5 values pushed */
122 23 138 23 2 
DELTAP2[ ]\011/* DeltaExceptionP2 */
NPUSHW[ ]\011/* 15 values pushed */
153 23 169 23 185 23 201 23 217 23 233 23 249 23 7 
DELTAP1[ ]\011/* DeltaExceptionP1 */
NPUSHW[ ]\011/* 15 values pushed */
9 23 25 23 41 23 57 23 73 23 89 23 105 23 7 
DELTAP2[ ]\011/* DeltaExceptionP2 */
PUSHW[ ]\011/* 3 values pushed */
46 43 31 
SRP1[ ]\011/* SetRefPoint1 */
SRP2[ ]\011/* SetRefPoint2 */
IP[ ]\011/* InterpolatePts */
NPUSHW[ ]\011/* 15 values pushed */
150 49 166 49 182 49 198 49 214 49 230 49 246 49 7 
DELTAP1[ ]\011/* DeltaExceptionP1 */
NPUSHW[ ]\011/* 33 values pushed */
6 49 22 49 38 49 54 49 70 49 86 49 102 49 118 49 134 49 150 49 166 49 182 49 198 49 214 49 230 49 246 49 16 
DELTAP2[ ]\011/* DeltaExceptionP2 */
NPUSHW[ ]\011/* 9 values pushed */
6 49 22 49 38 49 54 49 4 
DELTAP3[ ]\011/* DeltaExceptionP3 */
NPUSHW[ ]\011/* 5 values pushed */
69 49 85 49 2 
DELTAP3[ ]\011/* DeltaExceptionP3 */
PUSHW[ ]\011/* 1 value pushed */
31 
SRP0[ ]\011/* SetRefPoint0 */
PUSHW[ ]\011/* 1 value pushed */
63 
MDRP[11100]\011/* MoveDirectRelPt */
SVTCA[0]\011/* SetFreedomAndProjectionVectorToAxis */
PUSHW[ ]\011/* 1 value pushed */
38 
MDAP[1]\011/* MoveDirectAbsPt */
PUSHW[ ]\011/* 1 value pushed */
28 
MDAP[1]\011/* MoveDirectAbsPt */
PUSHW[ ]\011/* 3 values pushed */
46 38 28 
SRP1[ ]\011/* SetRefPoint1 */
SRP2[ ]\011/* SetRefPoint2 */
IP[ ]\011/* InterpolatePts */
IUP[0]\011/* InterpolateUntPts */
IUP[1]\011/* InterpolateUntPts */";
};
width = 500;
}
);
note = nine;
unicode = 0039;
},
{
glyphname = colon;
lastChange = "2018-11-16 05:15:47 +0000";
layers = (
{
layerId = "C82BC34C-76D5-4A26-949B-BF353CFC0606";
paths = (
{
closed = 1;
nodes = (
"66 16.667 OFFCURVE",
"81.667 2 OFFCURVE",
"103 2 CURVE SMOOTH",
"121.667 2 OFFCURVE",
"140 19.333 OFFCURVE",
"140 38 CURVE SMOOTH",
"140 56.667 OFFCURVE",
"122.667 76 OFFCURVE",
"104 76 CURVE SMOOTH",
"81.333 76 OFFCURVE",
"66 60.667 OFFCURVE",
"66 38 CURVE SMOOTH"
);
},
{
closed = 1;
nodes = (
"246 284.333 OFFCURVE",
"260.333 270 OFFCURVE",
"283 270 CURVE SMOOTH",
"303 270 OFFCURVE",
"320 284.667 OFFCURVE",
"320 306 CURVE SMOOTH",
"320 324.667 OFFCURVE",
"305 344 OFFCURVE",
"285 344 CURVE SMOOTH",
"263.667 344 OFFCURVE",
"246 329.667 OFFCURVE",
"246 307 CURVE SMOOTH"
);
}
);
userData = {
assembly = "PUSHW[ ]\011/* 1 value pushed */
24 
MDAP[1]\011/* MoveDirectAbsPt */
PUSHW[ ]\011/* 1 value pushed */
12 
MDAP[1]\011/* MoveDirectAbsPt */
PUSHW[ ]\011/* 1 value pushed */
24 
SRP0[ ]\011/* SetRefPoint0 */
PUSHW[ ]\011/* 1 value pushed */
0 
MDRP[10000]\011/* MoveDirectRelPt */
PUSHW[ ]\011/* 1 value pushed */
0 
MDAP[1]\011/* MoveDirectAbsPt */
PUSHW[ ]\011/* 2 values pushed */
6 9 
MIRP[10100]\011/* MoveIndirectRelPt */
NPUSHW[ ]\011/* 15 values pushed */
150 6 166 6 182 6 198 6 214 6 230 6 246 6 7 
DELTAP1[ ]\011/* DeltaExceptionP1 */
NPUSHW[ ]\011/* 15 values pushed */
6 6 22 6 38 6 54 6 70 6 86 6 102 6 7 
DELTAP2[ ]\011/* DeltaExceptionP2 */
NPUSHW[ ]\011/* 5 values pushed */
117 6 133 6 2 
DELTAP2[ ]\011/* DeltaExceptionP2 */
NPUSHW[ ]\011/* 5 values pushed */
122 12 138 12 2 
DELTAP2[ ]\011/* DeltaExceptionP2 */
NPUSHW[ ]\011/* 15 values pushed */
153 12 169 12 185 12 201 12 217 12 233 12 249 12 7 
DELTAP1[ ]\011/* DeltaExceptionP1 */
NPUSHW[ ]\011/* 15 values pushed */
9 12 25 12 41 12 57 12 73 12 89 12 105 12 7 
DELTAP2[ ]\011/* DeltaExceptionP2 */
PUSHW[ ]\011/* 1 value pushed */
12 
SRP0[ ]\011/* SetRefPoint0 */
PUSHW[ ]\011/* 2 values pushed */
18 9 
MIRP[10100]\011/* MoveIndirectRelPt */
PUSHW[ ]\011/* 1 value pushed */
25 
MDRP[11100]\011/* MoveDirectRelPt */
SVTCA[0]\011/* SetFreedomAndProjectionVectorToAxis */
PUSHW[ ]\011/* 1 value pushed */
0 
RCVT[ ]\011/* ReadCVT */
IF[ ]\011/* If */
PUSHW[ ]\011/* 1 value pushed */
9 
MDAP[1]\011/* MoveDirectAbsPt */
ELSE[ ]\011/* Else */
PUSHW[ ]\011/* 2 values pushed */
9 10 
MIAP[0]\011/* MoveIndirectAbsPt */
EIF[ ]\011/* EndIf */
PUSHW[ ]\011/* 4 values pushed */
15 1 21 4 
CALL[ ]\011/* CallFunction */
PUSHW[ ]\011/* 1 value pushed */
9 
SRP0[ ]\011/* SetRefPoint0 */
PUSHW[ ]\011/* 2 values pushed */
3 1 
MIRP[10100]\011/* MoveIndirectRelPt */
NPUSHW[ ]\011/* 15 values pushed */
151 3 167 3 183 3 199 3 215 3 231 3 247 3 7 
DELTAP1[ ]\011/* DeltaExceptionP1 */
NPUSHW[ ]\011/* 15 values pushed */
7 3 23 3 39 3 55 3 71 3 87 3 103 3 7 
DELTAP2[ ]\011/* DeltaExceptionP2 */
NPUSHW[ ]\011/* 5 values pushed */
118 3 134 3 2 
DELTAP2[ ]\011/* DeltaExceptionP2 */
IUP[0]\011/* InterpolateUntPts */
IUP[1]\011/* InterpolateUntPts */";
};
width = 250;
}
);
note = colon;
unicode = 003A;
},
{
glyphname = semicolon;
lastChange = "2018-11-16 05:15:47 +0000";
layers = (
{
layerId = "C82BC34C-76D5-4A26-949B-BF353CFC0606";
paths = (
{
closed = 1;
nodes = (
"-32 -124 LINE",
"52.646 -113.078 OFFCURVE",
"144 -51.556 OFFCURVE",
"144 28 CURVE SMOOTH",
"144 50.667 OFFCURVE",
"130.333 74 OFFCURVE",
"105 74 CURVE SMOOTH",
"81 74 OFFCURVE",
"66 57 OFFCURVE",
"66 33 CURVE SMOOTH",
"66 10.333 OFFCURVE",
"85.333 0 OFFCURVE",
"100 0 CURVE SMOOTH",
"106 0 OFFCURVE",
"110 0.667 OFFCURVE",
"112 2 CURVE",
"106.821 -65.321 OFFCURVE",
"32.435 -106.794 OFFCURVE",
"-32 -118 CURVE"
);
},
{
closed = 1;
nodes = (
"246 284.333 OFFCURVE",
"260.333 270 OFFCURVE",
"283 270 CURVE SMOOTH",
"304.333 270 OFFCURVE",
"320 290 OFFCURVE",
"320 310 CURVE SMOOTH",
"320 327.333 OFFCURVE",
"302.333 344 OFFCURVE",
"285 344 CURVE SMOOTH",
"263.667 344 OFFCURVE",
"246 328.333 OFFCURVE",
"246 307 CURVE SMOOTH"
);
}
);
userData = {
assembly = "PUSHW[ ]\011/* 4 values pushed */
16 9 10 4 
CALL[ ]\011/* CallFunction */
PUSHW[ ]\011/* 4 values pushed */
28 9 22 4 
CALL[ ]\011/* CallFunction */
NPUSHW[ ]\011/* 15 values pushed */
150 16 166 16 182 16 198 16 214 16 230 16 246 16 7 
DELTAP1[ ]\011/* DeltaExceptionP1 */
NPUSHW[ ]\011/* 15 values pushed */
6 16 22 16 38 16 54 16 70 16 86 16 102 16 7 
DELTAP2[ ]\011/* DeltaExceptionP2 */
NPUSHW[ ]\011/* 5 values pushed */
117 16 133 16 2 
DELTAP2[ ]\011/* DeltaExceptionP2 */
PUSHW[ ]\011/* 1 value pushed */
16 
SRP0[ ]\011/* SetRefPoint0 */
PUSHW[ ]\011/* 2 values pushed */
5 5 
MIRP[10100]\011/* MoveIndirectRelPt */
NPUSHW[ ]\011/* 5 values pushed */
122 22 138 22 2 
DELTAP2[ ]\011/* DeltaExceptionP2 */
NPUSHW[ ]\011/* 15 values pushed */
153 22 169 22 185 22 201 22 217 22 233 22 249 22 7 
DELTAP1[ ]\011/* DeltaExceptionP1 */
NPUSHW[ ]\011/* 15 values pushed */
9 22 25 22 41 22 57 22 73 22 89 22 105 22 7 
DELTAP2[ ]\011/* DeltaExceptionP2 */
PUSHW[ ]\011/* 1 value pushed */
28 
SRP0[ ]\011/* SetRefPoint0 */
PUSHW[ ]\011/* 1 value pushed */
35 
MDRP[11100]\011/* MoveDirectRelPt */
SVTCA[0]\011/* SetFreedomAndProjectionVectorToAxis */
PUSHW[ ]\011/* 1 value pushed */
21 
MDAP[1]\011/* MoveDirectAbsPt */
PUSHW[ ]\011/* 1 value pushed */
0 
RCVT[ ]\011/* ReadCVT */
IF[ ]\011/* If */
PUSHW[ ]\011/* 1 value pushed */
5 
MDAP[1]\011/* MoveDirectAbsPt */
ELSE[ ]\011/* Else */
PUSHW[ ]\011/* 2 values pushed */
5 10 
MIAP[0]\011/* MoveIndirectAbsPt */
EIF[ ]\011/* EndIf */
PUSHW[ ]\011/* 1 value pushed */
0 
RCVT[ ]\011/* ReadCVT */
IF[ ]\011/* If */
PUSHW[ ]\011/* 1 value pushed */
7 
MDAP[1]\011/* MoveDirectAbsPt */
ELSE[ ]\011/* Else */
PUSHW[ ]\011/* 2 values pushed */
7 10 
MIAP[0]\011/* MoveIndirectAbsPt */
EIF[ ]\011/* EndIf */
PUSHW[ ]\011/* 4 values pushed */
25 1 31 4 
CALL[ ]\011/* CallFunction */
IUP[0]\011/* InterpolateUntPts */
IUP[1]\011/* InterpolateUntPts */";
};
width = 250;
}
);
note = semicolon;
unicode = 003B;
},
{
glyphname = less;
lastChange = "2018-11-16 05:15:47 +0000";
layers = (
{
layerId = "C82BC34C-76D5-4A26-949B-BF353CFC0606";
paths = (
{
closed = 1;
nodes = (
"625 367 LINE",
"573 340.333 OFFCURVE",
"498.333 306.667 OFFCURVE",
"417 272 CURVE SMOOTH",
"335.667 237.333 OFFCURVE",
"249 202 OFFCURVE",
"173 174 CURVE",
"173 166 LINE",
"466 22 LINE",
"497 46 LINE",
"217 183 LINE",
"303.262 212.575 OFFCURVE",
"524.182 306.938 OFFCURVE",
"628 360 CURVE"
);
}
);
userData = {
assembly = "SVTCA[0]\011/* SetFreedomAndProjectionVectorToAxis */
PUSHW[ ]\011/* 1 value pushed */
14 
MDAP[1]\011/* MoveDirectAbsPt */
PUSHW[ ]\011/* 1 value pushed */
7 
MDAP[1]\011/* MoveDirectAbsPt */
PUSHW[ ]\011/* 3 values pushed */
5 7 14 
SRP1[ ]\011/* SetRefPoint1 */
SRP2[ ]\011/* SetRefPoint2 */
IP[ ]\011/* InterpolatePts */
PUSHW[ ]\011/* 3 values pushed */
6 7 14 
SRP1[ ]\011/* SetRefPoint1 */
SRP2[ ]\011/* SetRefPoint2 */
IP[ ]\011/* InterpolatePts */
IUP[0]\011/* InterpolateUntPts */
IUP[1]\011/* InterpolateUntPts */";
};
width = 600;
}
);
note = less;
unicode = 003C;
},
{
glyphname = equal;
lastChange = "2018-11-16 05:15:47 +0000";
layers = (
{
layerId = "C82BC34C-76D5-4A26-949B-BF353CFC0606";
paths = (
{
closed = 1;
nodes = (
"581 255 LINE",
"237 255 LINE",
"230 244 LINE",
"574 244 LINE"
);
},
{
closed = 1;
nodes = (
"495 123 LINE",
"151 123 LINE",
"144 112 LINE",
"488 112 LINE"
);
}
);
userData = {
assembly = "SVTCA[0]\011/* SetFreedomAndProjectionVectorToAxis */
PUSHW[ ]\011/* 4 values pushed */
3 1 4 4 
CALL[ ]\011/* CallFunction */
PUSHW[ ]\011/* 3 values pushed */
1 4 3 
SRP1[ ]\011/* SetRefPoint1 */
SRP2[ ]\011/* SetRefPoint2 */
IP[ ]\011/* InterpolatePts */
IUP[0]\011/* InterpolateUntPts */
IUP[1]\011/* InterpolateUntPts */";
};
width = 600;
}
);
note = equal;
unicode = 003D;
},
{
glyphname = greater;
lastChange = "2018-11-16 05:15:47 +0000";
layers = (
{
layerId = "C82BC34C-76D5-4A26-949B-BF353CFC0606";
paths = (
{
closed = 1;
nodes = (
"238 358 LINE",
"211 327 LINE",
"544 179 LINE",
"93 -5 LINE",
"97 -13 LINE",
"589 188 LINE",
"589 200 LINE"
);
}
);
userData = {
assembly = "SVTCA[0]\011/* SetFreedomAndProjectionVectorToAxis */
PUSHW[ ]\011/* 1 value pushed */
0 
RCVT[ ]\011/* ReadCVT */
IF[ ]\011/* If */
PUSHW[ ]\011/* 1 value pushed */
6 
MDAP[1]\011/* MoveDirectAbsPt */
ELSE[ ]\011/* Else */
PUSHW[ ]\011/* 2 values pushed */
6 14 
MIAP[0]\011/* MoveIndirectAbsPt */
EIF[ ]\011/* EndIf */
PUSHW[ ]\011/* 1 value pushed */
0 
RCVT[ ]\011/* ReadCVT */
IF[ ]\011/* If */
PUSHW[ ]\011/* 1 value pushed */
2 
MDAP[1]\011/* MoveDirectAbsPt */
ELSE[ ]\011/* Else */
PUSHW[ ]\011/* 2 values pushed */
2 10 
MIAP[0]\011/* MoveIndirectAbsPt */
EIF[ ]\011/* EndIf */
PUSHW[ ]\011/* 3 values pushed */
4 2 6 
SRP1[ ]\011/* SetRefPoint1 */
SRP2[ ]\011/* SetRefPoint2 */
IP[ ]\011/* InterpolatePts */
PUSHW[ ]\011/* 3 values pushed */
5 2 6 
SRP1[ ]\011/* SetRefPoint1 */
SRP2[ ]\011/* SetRefPoint2 */
IP[ ]\011/* InterpolatePts */
IUP[0]\011/* InterpolateUntPts */
IUP[1]\011/* InterpolateUntPts */";
};
width = 600;
}
);
note = greater;
unicode = 003E;
},
{
glyphname = question;
lastChange = "2018-11-16 05:15:47 +0000";
layers = (
{
layerId = "C82BC34C-76D5-4A26-949B-BF353CFC0606";
paths = (
{
closed = 1;
nodes = (
"157 129 LINE",
"181.774 178.547 OFFCURVE",
"262.776 211.37 OFFCURVE",
"325 241 CURVE SMOOTH",
"401.615 277.986 OFFCURVE",
"479 338.141 OFFCURVE",
"479 415 CURVE SMOOTH",
"479 499 OFFCURVE",
"420 538 OFFCURVE",
"340 538 CURVE SMOOTH",
"249.656 538 OFFCURVE",
"144 465.81 OFFCURVE",
"144 379 CURVE SMOOTH",
"144 323 OFFCURVE",
"178 288 OFFCURVE",
"234 288 CURVE SMOOTH",
"270 288 OFFCURVE",
"304.333 308.333 OFFCURVE",
"323 335 CURVE",
"316 340 LINE",
"294.667 313.333 OFFCURVE",
"264 300 OFFCURVE",
"236 300 CURVE SMOOTH",
"187.699 300 OFFCURVE",
"174 342.825 OFFCURVE",
"174 384 CURVE SMOOTH",
"174 461.167 OFFCURVE",
"254.63 526 OFFCURVE",
"326 526 CURVE SMOOTH",
"388.667 526 OFFCURVE",
"425 486 OFFCURVE",
"425 422 CURVE SMOOTH",
"425 363.333 OFFCURVE",
"406.667 316.667 OFFCURVE",
"360 278 CURVE SMOOTH",
"281.171 212.309 OFFCURVE",
"198.69 213.667 OFFCURVE",
"148 132 CURVE"
);
},
{
closed = 1;
nodes = (
"87 74 OFFCURVE",
"70 57 OFFCURVE",
"70 37 CURVE SMOOTH",
"70 17 OFFCURVE",
"87 0 OFFCURVE",
"107 0 CURVE SMOOTH",
"127 0 OFFCURVE",
"144 17 OFFCURVE",
"144 37 CURVE SMOOTH",
"144 57 OFFCURVE",
"127 74 OFFCURVE",
"107 74 CURVE SMOOTH"
);
}
);
userData = {
assembly = "PUSHW[ ]\011/* 4 values pushed */
53 9 59 4 
CALL[ ]\011/* CallFunction */
PUSHW[ ]\011/* 4 values pushed */
39 4 8 4 
CALL[ ]\011/* CallFunction */
NPUSHW[ ]\011/* 5 values pushed */
122 8 138 8 2 
DELTAP2[ ]\011/* DeltaExceptionP2 */
NPUSHW[ ]\011/* 15 values pushed */
153 8 169 8 185 8 201 8 217 8 233 8 249 8 7 
DELTAP1[ ]\011/* DeltaExceptionP1 */
NPUSHW[ ]\011/* 15 values pushed */
9 8 25 8 41 8 57 8 73 8 89 8 105 8 7 
DELTAP2[ ]\011/* DeltaExceptionP2 */
NPUSHW[ ]\011/* 15 values pushed */
150 53 166 53 182 53 198 53 214 53 230 53 246 53 7 
DELTAP1[ ]\011/* DeltaExceptionP1 */
NPUSHW[ ]\011/* 15 values pushed */
6 53 22 53 38 53 54 53 70 53 86 53 102 53 7 
DELTAP2[ ]\011/* DeltaExceptionP2 */
NPUSHW[ ]\011/* 5 values pushed */
117 53 133 53 2 
DELTAP2[ ]\011/* DeltaExceptionP2 */
PUSHW[ ]\011/* 1 value pushed */
53 
SRP0[ ]\011/* SetRefPoint0 */
PUSHW[ ]\011/* 2 values pushed */
16 5 
MIRP[10100]\011/* MoveIndirectRelPt */
PUSHW[ ]\011/* 1 value pushed */
53 
SRP0[ ]\011/* SetRefPoint0 */
PUSHW[ ]\011/* 1 value pushed */
31 
MDRP[10000]\011/* MoveDirectRelPt */
PUSHW[ ]\011/* 1 value pushed */
39 
SRP0[ ]\011/* SetRefPoint0 */
PUSHW[ ]\011/* 1 value pushed */
63 
MDRP[11100]\011/* MoveDirectRelPt */
SVTCA[0]\011/* SetFreedomAndProjectionVectorToAxis */
PUSHW[ ]\011/* 1 value pushed */
0 
RCVT[ ]\011/* ReadCVT */
IF[ ]\011/* If */
PUSHW[ ]\011/* 1 value pushed */
56 
MDAP[1]\011/* MoveDirectAbsPt */
ELSE[ ]\011/* Else */
PUSHW[ ]\011/* 2 values pushed */
56 10 
MIAP[0]\011/* MoveIndirectAbsPt */
EIF[ ]\011/* EndIf */
PUSHW[ ]\011/* 3 values pushed */
36 28 3 
CALL[ ]\011/* CallFunction */
PUSHW[ ]\011/* 1 value pushed */
56 
SRP0[ ]\011/* SetRefPoint0 */
PUSHW[ ]\011/* 2 values pushed */
50 1 
MIRP[10100]\011/* MoveIndirectRelPt */
NPUSHW[ ]\011/* 15 values pushed */
151 50 167 50 183 50 199 50 215 50 231 50 247 50 7 
DELTAP1[ ]\011/* DeltaExceptionP1 */
NPUSHW[ ]\011/* 15 values pushed */
7 50 23 50 39 50 55 50 71 50 87 50 103 50 7 
DELTAP2[ ]\011/* DeltaExceptionP2 */
NPUSHW[ ]\011/* 5 values pushed */
118 50 134 50 2 
DELTAP2[ ]\011/* DeltaExceptionP2 */
IUP[0]\011/* InterpolateUntPts */
IUP[1]\011/* InterpolateUntPts */";
};
width = 444;
}
);
note = question;
unicode = 003F;
},
{
glyphname = at;
lastChange = "2018-11-16 05:15:47 +0000";
layers = (
{
layerId = "C82BC34C-76D5-4A26-949B-BF353CFC0606";
paths = (
{
closed = 1;
nodes = (
"868 381.667 OFFCURVE",
"863.5 455.5 OFFCURVE",
"821.5 509.5 CURVE SMOOTH",
"779.5 563.5 OFFCURVE",
"701 596 OFFCURVE",
"605 596 CURVE SMOOTH",
"501 596 OFFCURVE",
"401 572.167 OFFCURVE",
"313 523.5 CURVE SMOOTH",
"225 474.833 OFFCURVE",
"149.667 401.333 OFFCURVE",
"99 300 CURVE SMOOTH",
"72.333 245.333 OFFCURVE",
"59.5 183 OFFCURVE",
"65.5 123 CURVE SMOOTH",
"68.5 93 OFFCURVE",
"76.167 64.167 OFFCURVE",
"88.5 36.5 CURVE SMOOTH",
"113.167 -18.833 OFFCURVE",
"159.833 -61.833 OFFCURVE",
"228.5 -86.5 CURVE SMOOTH",
"262.833 -98.833 OFFCURVE",
"303.333 -105 OFFCURVE",
"350 -105 CURVE SMOOTH",
"483.333 -105 OFFCURVE",
"610 -52.333 OFFCURVE",
"714 21 CURVE SMOOTH",
"818 94.333 OFFCURVE",
"899 187.333 OFFCURVE",
"943 266 CURVE",
"936 270 LINE",
"884 182 OFFCURVE",
"799.333 91.333 OFFCURVE",
"698 22 CURVE SMOOTH",
"596.667 -47.333 OFFCURVE",
"477.333 -95 OFFCURVE",
"356 -95 CURVE SMOOTH",
"282.667 -95 OFFCURVE",
"228.333 -69.167 OFFCURVE",
"191 -28.5 CURVE SMOOTH",
"172.333 -8.167 OFFCURVE",
"158.167 15.5 OFFCURVE",
"148.5 42.5 CURVE SMOOTH",
"129.167 96.5 OFFCURVE",
"127.167 158.667 OFFCURVE",
"142.5 224 CURVE SMOOTH",
"150.167 256.667 OFFCURVE",
"162 288.333 OFFCURVE",
"178 319 CURVE SMOOTH",
"218 395 OFFCURVE",
"271.167 461 OFFCURVE",
"338.5 509 CURVE SMOOTH",
"405.833 557 OFFCURVE",
"486.667 586 OFFCURVE",
"580 586 CURVE SMOOTH",
"684 586 OFFCURVE",
"748.167 544.5 OFFCURVE",
"775.5 486.5 CURVE SMOOTH",
"802.833 428.5 OFFCURVE",
"792 353.333 OFFCURVE",
"748 288 CURVE SMOOTH",
"685.527 196.694 OFFCURVE",
"587.913 104 OFFCURVE",
"514 104 CURVE SMOOTH",
"499.333 104 OFFCURVE",
"492 111 OFFCURVE",
"492 125 CURVE SMOOTH",
"492 164.763 OFFCURVE",
"583.973 292.162 OFFCURVE",
"646 379 CURVE",
"593 379 LINE",
"566 331 LINE",
"564 331 LINE",
"557.333 359 OFFCURVE",
"541.333 386 OFFCURVE",
"496 386 CURVE SMOOTH",
"449.264 386 OFFCURVE",
"391.733 346.345 OFFCURVE",
"352 303 CURVE SMOOTH",
"313.341 260.827 OFFCURVE",
"277 197.88 OFFCURVE",
"277 153 CURVE SMOOTH",
"277 121 OFFCURVE",
"292 92 OFFCURVE",
"332 92 CURVE SMOOTH",
"377.477 92 OFFCURVE",
"438.63 145.96 OFFCURVE",
"468 178 CURVE",
"470 177 LINE",
"463.333 161 OFFCURVE",
"458 146.667 OFFCURVE",
"458 132 CURVE SMOOTH",
"458 109.333 OFFCURVE",
"472 92 OFFCURVE",
"504 92 CURVE SMOOTH",
"596.827 92 OFFCURVE",
"758.64 207.746 OFFCURVE",
"816 299 CURVE SMOOTH"
);
},
{
closed = 1;
nodes = (
"330 245.601 OFFCURVE",
"428.325 372 OFFCURVE",
"497 372 CURVE SMOOTH",
"518.333 372 OFFCURVE",
"538 363.333 OFFCURVE",
"538 338 CURVE SMOOTH",
"538 256.764 OFFCURVE",
"416.862 116 OFFCURVE",
"357 116 CURVE SMOOTH",
"341 116 OFFCURVE",
"330 126.333 OFFCURVE",
"330 153 CURVE SMOOTH"
);
}
);
userData = {
assembly = "PUSHW[ ]\011/* 4 values pushed */
90 4 20 4 
CALL[ ]\011/* CallFunction */
PUSHW[ ]\011/* 4 values pushed */
38 5 8 4 
CALL[ ]\011/* CallFunction */
NPUSHW[ ]\011/* 15 values pushed */
150 38 166 38 182 38 198 38 214 38 230 38 246 38 7 
DELTAP1[ ]\011/* DeltaExceptionP1 */
NPUSHW[ ]\011/* 33 values pushed */
6 38 22 38 38 38 54 38 70 38 86 38 102 38 118 38 134 38 150 38 166 38 182 38 198 38 214 38 230 38 246 38 16 
DELTAP2[ ]\011/* DeltaExceptionP2 */
NPUSHW[ ]\011/* 9 values pushed */
6 38 22 38 38 38 54 38 4 
DELTAP3[ ]\011/* DeltaExceptionP3 */
NPUSHW[ ]\011/* 5 values pushed */
69 38 85 38 2 
DELTAP3[ ]\011/* DeltaExceptionP3 */
PUSHW[ ]\011/* 3 values pushed */
12 8 38 
SRP1[ ]\011/* SetRefPoint1 */
SRP2[ ]\011/* SetRefPoint2 */
IP[ ]\011/* InterpolatePts */
NPUSHW[ ]\011/* 15 values pushed */
150 90 166 90 182 90 198 90 214 90 230 90 246 90 7 
DELTAP1[ ]\011/* DeltaExceptionP1 */
NPUSHW[ ]\011/* 15 values pushed */
6 90 22 90 38 90 54 90 70 90 86 90 102 90 7 
DELTAP2[ ]\011/* DeltaExceptionP2 */
NPUSHW[ ]\011/* 5 values pushed */
117 90 133 90 2 
DELTAP2[ ]\011/* DeltaExceptionP2 */
PUSHW[ ]\011/* 1 value pushed */
38 
SRP0[ ]\011/* SetRefPoint0 */
PUSHW[ ]\011/* 2 values pushed */
98 6 
MIRP[10100]\011/* MoveIndirectRelPt */
SVTCA[0]\011/* SetFreedomAndProjectionVectorToAxis */
PUSHW[ ]\011/* 3 values pushed */
40 73 3 
CALL[ ]\011/* CallFunction */
PUSHW[ ]\011/* 4 values pushed */
93 2 17 4 
CALL[ ]\011/* CallFunction */
PUSHW[ ]\011/* 3 values pushed */
85 101 3 
CALL[ ]\011/* CallFunction */
PUSHW[ ]\011/* 1 value pushed */
17 
SRP0[ ]\011/* SetRefPoint0 */
PUSHW[ ]\011/* 1 value pushed */
5 
MDRP[10000]\011/* MoveDirectRelPt */
PUSHW[ ]\011/* 1 value pushed */
101 
SRP0[ ]\011/* SetRefPoint0 */
PUSHW[ ]\011/* 1 value pushed */
32 
MDRP[10000]\011/* MoveDirectRelPt */
PUSHW[ ]\011/* 1 value pushed */
32 
MDAP[1]\011/* MoveDirectAbsPt */
PUSHW[ ]\011/* 3 values pushed */
33 101 85 
SRP1[ ]\011/* SetRefPoint1 */
SRP2[ ]\011/* SetRefPoint2 */
IP[ ]\011/* InterpolatePts */
IUP[0]\011/* InterpolateUntPts */
IUP[1]\011/* InterpolateUntPts */";
};
width = 800;
}
);
note = at;
unicode = 0040;
},
{
glyphname = A;
lastChange = "2018-11-16 05:15:47 +0000";
layers = (
{
layerId = "C82BC34C-76D5-4A26-949B-BF353CFC0606";
paths = (
{
closed = 1;
nodes = (
"734 311 LINE",
"707.333 243 OFFCURVE",
"682 174 OFFCURVE",
"682 98 CURVE SMOOTH",
"682 39.738 OFFCURVE",
"709.935 -8 OFFCURVE",
"771 -8 CURVE SMOOTH",
"869.788 -8 OFFCURVE",
"989.9 155.639 OFFCURVE",
"1074 262 CURVE",
"1067 265 LINE",
"1044.904 234.87 OFFCURVE",
"981.273 157.911 OFFCURVE",
"943.5 118 CURVE SMOOTH",
"898.733 70.699 OFFCURVE",
"834.529 16 OFFCURVE",
"795 16 CURVE SMOOTH",
"752.333 16 OFFCURVE",
"742 48.667 OFFCURVE",
"742 90 CURVE SMOOTH",
"742 150 OFFCURVE",
"762.833 223.5 OFFCURVE",
"795.5 301.5 CURVE SMOOTH",
"811.833 340.5 OFFCURVE",
"830.667 379.667 OFFCURVE",
"852 419 CURVE SMOOTH",
"894.667 497.667 OFFCURVE",
"942.667 569.667 OFFCURVE",
"992 631 CURVE SMOOTH",
"1016.667 661.667 OFFCURVE",
"1040.333 687.333 OFFCURVE",
"1063 708 CURVE",
"1060 712 LINE",
"988 692 OFFCURVE",
"918 649.667 OFFCURVE",
"854 599 CURVE SMOOTH",
"822 573.667 OFFCURVE",
"791.833 546.833 OFFCURVE",
"763.5 518.5 CURVE SMOOTH",
"706.833 461.833 OFFCURVE",
"658.5 405.667 OFFCURVE",
"620.5 359 CURVE SMOOTH",
"601.5 335.667 OFFCURVE",
"585.667 316 OFFCURVE",
"573 300 CURVE SMOOTH",
"514.333 228 OFFCURVE",
"449.167 156.5 OFFCURVE",
"384.5 102.5 CURVE SMOOTH",
"319.833 48.5 OFFCURVE",
"255.333 12 OFFCURVE",
"198 12 CURVE SMOOTH",
"175.333 12 OFFCURVE",
"152 16.333 OFFCURVE",
"140 35 CURVE",
"152 37.667 OFFCURVE",
"159 52 OFFCURVE",
"159 64 CURVE SMOOTH",
"159 84 OFFCURVE",
"146.333 101 OFFCURVE",
"125 101 CURVE SMOOTH",
"101 101 OFFCURVE",
"87 82.667 OFFCURVE",
"87 60 CURVE SMOOTH",
"87 25.816 OFFCURVE",
"113.864 -8 OFFCURVE",
"187 -8 CURVE SMOOTH",
"251 -8 OFFCURVE",
"321.5 30.167 OFFCURVE",
"391.5 89.5 CURVE SMOOTH",
"461.5 148.833 OFFCURVE",
"531.667 228.333 OFFCURVE",
"597 311 CURVE"
);
},
{
closed = 1;
nodes = (
"605 323 LINE",
"662.333 396.333 OFFCURVE",
"723 466.667 OFFCURVE",
"787 528 CURVE SMOOTH",
"851 589.333 OFFCURVE",
"918.333 641.333 OFFCURVE",
"989 676 CURVE",
"991 674 LINE",
"879 567.333 OFFCURVE",
"799 447 OFFCURVE",
"739 323 CURVE"
);
}
);
userData = {
assembly = "PUSHW[ ]\011/* 1 value pushed */
77 
MDAP[1]\011/* MoveDirectAbsPt */
PUSHW[ ]\011/* 1 value pushed */
63 
MDAP[1]\011/* MoveDirectAbsPt */
PUSHW[ ]\011/* 1 value pushed */
77 
SRP0[ ]\011/* SetRefPoint0 */
PUSHW[ ]\011/* 1 value pushed */
10 
MDRP[10000]\011/* MoveDirectRelPt */
PUSHW[ ]\011/* 1 value pushed */
10 
MDAP[1]\011/* MoveDirectAbsPt */
PUSHW[ ]\011/* 2 values pushed */
16 9 
MIRP[10100]\011/* MoveIndirectRelPt */
NPUSHW[ ]\011/* 15 values pushed */
150 16 166 16 182 16 198 16 214 16 230 16 246 16 7 
DELTAP1[ ]\011/* DeltaExceptionP1 */
NPUSHW[ ]\011/* 15 values pushed */
6 16 22 16 38 16 54 16 70 16 86 16 102 16 7 
DELTAP2[ ]\011/* DeltaExceptionP2 */
NPUSHW[ ]\011/* 5 values pushed */
117 16 133 16 2 
DELTAP2[ ]\011/* DeltaExceptionP2 */
PUSHW[ ]\011/* 3 values pushed */
19 10 16 
SRP1[ ]\011/* SetRefPoint1 */
SRP2[ ]\011/* SetRefPoint2 */
IP[ ]\011/* InterpolatePts */
NPUSHW[ ]\011/* 5 values pushed */
122 63 138 63 2 
DELTAP2[ ]\011/* DeltaExceptionP2 */
NPUSHW[ ]\011/* 15 values pushed */
153 63 169 63 185 63 201 63 217 63 233 63 249 63 7 
DELTAP1[ ]\011/* DeltaExceptionP1 */
NPUSHW[ ]\011/* 15 values pushed */
9 63 25 63 41 63 57 63 73 63 89 63 105 63 7 
DELTAP2[ ]\011/* DeltaExceptionP2 */
PUSHW[ ]\011/* 1 value pushed */
63 
SRP0[ ]\011/* SetRefPoint0 */
PUSHW[ ]\011/* 2 values pushed */
42 8 
MIRP[10100]\011/* MoveIndirectRelPt */
PUSHW[ ]\011/* 3 values pushed */
66 63 42 
SRP1[ ]\011/* SetRefPoint1 */
SRP2[ ]\011/* SetRefPoint2 */
IP[ ]\011/* InterpolatePts */
PUSHW[ ]\011/* 1 value pushed */
67 
MDRP[10000]\011/* MoveDirectRelPt */
PUSHW[ ]\011/* 1 value pushed */
67 
MDAP[1]\011/* MoveDirectAbsPt */
PUSHW[ ]\011/* 1 value pushed */
42 
SRP0[ ]\011/* SetRefPoint0 */
PUSHW[ ]\011/* 1 value pushed */
78 
MDRP[11100]\011/* MoveDirectRelPt */
SVTCA[0]\011/* SetFreedomAndProjectionVectorToAxis */
PUSHW[ ]\011/* 1 value pushed */
34 
MDAP[1]\011/* MoveDirectAbsPt */
PUSHW[ ]\011/* 1 value pushed */
0 
RCVT[ ]\011/* ReadCVT */
IF[ ]\011/* If */
PUSHW[ ]\011/* 1 value pushed */
5 
MDAP[1]\011/* MoveDirectAbsPt */
ELSE[ ]\011/* Else */
PUSHW[ ]\011/* 2 values pushed */
5 10 
MIAP[0]\011/* MoveIndirectAbsPt */
EIF[ ]\011/* EndIf */
PUSHW[ ]\011/* 1 value pushed */
0 
RCVT[ ]\011/* ReadCVT */
IF[ ]\011/* If */
PUSHW[ ]\011/* 1 value pushed */
58 
MDAP[1]\011/* MoveDirectAbsPt */
ELSE[ ]\011/* Else */
PUSHW[ ]\011/* 2 values pushed */
58 10 
MIAP[0]\011/* MoveIndirectAbsPt */
EIF[ ]\011/* EndIf */
PUSHW[ ]\011/* 1 value pushed */
5 
SRP0[ ]\011/* SetRefPoint0 */
PUSHW[ ]\011/* 2 values pushed */
13 1 
MIRP[10100]\011/* MoveIndirectRelPt */
NPUSHW[ ]\011/* 15 values pushed */
151 13 167 13 183 13 199 13 215 13 231 13 247 13 7 
DELTAP1[ ]\011/* DeltaExceptionP1 */
NPUSHW[ ]\011/* 15 values pushed */
7 13 23 13 39 13 55 13 71 13 87 13 103 13 7 
DELTAP2[ ]\011/* DeltaExceptionP2 */
NPUSHW[ ]\011/* 5 values pushed */
118 13 134 13 2 
DELTAP2[ ]\011/* DeltaExceptionP2 */
PUSHW[ ]\011/* 3 values pushed */
19 5 13 
SRP1[ ]\011/* SetRefPoint1 */
SRP2[ ]\011/* SetRefPoint2 */
IP[ ]\011/* InterpolatePts */
PUSHW[ ]\011/* 1 value pushed */
5 
SRP0[ ]\011/* SetRefPoint0 */
PUSHW[ ]\011/* 2 values pushed */
22 2 
MIRP[10100]\011/* MoveIndirectRelPt */
NPUSHW[ ]\011/* 15 values pushed */
151 22 167 22 183 22 199 22 215 22 231 22 247 22 7 
DELTAP1[ ]\011/* DeltaExceptionP1 */
NPUSHW[ ]\011/* 33 values pushed */
7 22 23 22 39 22 55 22 71 22 87 22 103 22 119 22 135 22 151 22 167 22 183 22 199 22 215 22 231 22 247 22 16 
DELTAP2[ ]\011/* DeltaExceptionP2 */
NPUSHW[ ]\011/* 33 values pushed */
7 22 23 22 39 22 55 22 71 22 87 22 103 22 119 22 135 22 151 22 167 22 183 22 199 22 215 22 231 22 247 22 16 
DELTAP3[ ]\011/* DeltaExceptionP3 */
PUSHW[ ]\011/* 3 values pushed */
35 5 34 
SRP1[ ]\011/* SetRefPoint1 */
SRP2[ ]\011/* SetRefPoint2 */
IP[ ]\011/* InterpolatePts */
PUSHW[ ]\011/* 1 value pushed */
45 
MDRP[10000]\011/* MoveDirectRelPt */
PUSHW[ ]\011/* 3 values pushed */
53 5 34 
SRP1[ ]\011/* SetRefPoint1 */
SRP2[ ]\011/* SetRefPoint2 */
IP[ ]\011/* InterpolatePts */
PUSHW[ ]\011/* 3 values pushed */
66 5 34 
SRP1[ ]\011/* SetRefPoint1 */
SRP2[ ]\011/* SetRefPoint2 */
IP[ ]\011/* InterpolatePts */
PUSHW[ ]\011/* 3 values pushed */
71 5 34 
SRP1[ ]\011/* SetRefPoint1 */
SRP2[ ]\011/* SetRefPoint2 */
IP[ ]\011/* InterpolatePts */
PUSHW[ ]\011/* 3 values pushed */
76 5 34 
SRP1[ ]\011/* SetRefPoint1 */
SRP2[ ]\011/* SetRefPoint2 */
IP[ ]\011/* InterpolatePts */
IUP[0]\011/* InterpolateUntPts */
IUP[1]\011/* InterpolateUntPts */";
};
width = 944;
}
);
note = A;
unicode = 0041;
},
{
glyphname = B;
lastChange = "2018-11-16 05:15:47 +0000";
layers = (
{
layerId = "C82BC34C-76D5-4A26-949B-BF353CFC0606";
paths = (
{
closed = 1;
nodes = (
"453 448 LINE",
"455.667 426.667 OFFCURVE",
"457 406.333 OFFCURVE",
"457 385 CURVE SMOOTH",
"457 265.717 OFFCURVE",
"391.112 172 OFFCURVE",
"289 172 CURVE SMOOTH",
"211.15 172 OFFCURVE",
"172 254.424 OFFCURVE",
"172 330 CURVE SMOOTH",
"172 424.667 OFFCURVE",
"224.333 516.833 OFFCURVE",
"307 585.5 CURVE SMOOTH",
"389.667 654.167 OFFCURVE",
"504 700 OFFCURVE",
"628 700 CURVE SMOOTH",
"696 700 OFFCURVE",
"760.333 689.667 OFFCURVE",
"803 655 CURVE",
"743 617.667 OFFCURVE",
"694.667 563.333 OFFCURVE",
"648 498 CURVE SMOOTH",
"609.964 444.75 OFFCURVE",
"545.897 337.083 OFFCURVE",
"504 269 CURVE SMOOTH",
"453.333 185 OFFCURVE",
"412.167 116.833 OFFCURVE",
"367.5 69.5 CURVE SMOOTH",
"322.833 22.167 OFFCURVE",
"274.667 -4 OFFCURVE",
"208 -4 CURVE SMOOTH",
"184.338 -4 OFFCURVE",
"144.339 5.303 OFFCURVE",
"139 32 CURVE",
"157.667 32 OFFCURVE",
"172 46.333 OFFCURVE",
"172 65 CURVE SMOOTH",
"172 86.333 OFFCURVE",
"160.667 102 OFFCURVE",
"138 102 CURVE SMOOTH",
"115.333 102 OFFCURVE",
"98 85.667 OFFCURVE",
"98 59 CURVE SMOOTH",
"98 17.667 OFFCURVE",
"140.667 -16 OFFCURVE",
"210 -16 CURVE SMOOTH",
"310 -16 OFFCURVE",
"389.833 38.333 OFFCURVE",
"458.5 117 CURVE SMOOTH",
"492.833 156.333 OFFCURVE",
"524.833 200.333 OFFCURVE",
"554.5 249 CURVE SMOOTH",
"602.324 327.453 OFFCURVE",
"679.355 460.896 OFFCURVE",
"726.5 533 CURVE SMOOTH",
"754.833 576.333 OFFCURVE",
"785 612 OFFCURVE",
"817 640 CURVE",
"838.333 617.333 OFFCURVE",
"851 586.667 OFFCURVE",
"851 556 CURVE SMOOTH",
"851 439.485 OFFCURVE",
"769.703 355 OFFCURVE",
"652 355 CURVE",
"652 343 LINE",
"732.408 343 OFFCURVE",
"792 316.164 OFFCURVE",
"792 232 CURVE SMOOTH",
"792 113.801 OFFCURVE",
"728.027 4 OFFCURVE",
"608 4 CURVE SMOOTH",
"566.667 4 OFFCURVE",
"537 31 OFFCURVE",
"537 67 CURVE SMOOTH",
"537 100.333 OFFCURVE",
"545.333 124 OFFCURVE",
"568 128 CURVE",
"560 136 OFFCURVE",
"550.667 140 OFFCURVE",
"540 140 CURVE SMOOTH",
"505.333 140 OFFCURVE",
"483 112.333 OFFCURVE",
"483 79 CURVE SMOOTH",
"483 28.333 OFFCURVE",
"533 -8 OFFCURVE",
"609 -8 CURVE SMOOTH",
"721.798 -8 OFFCURVE",
"852 98.585 OFFCURVE",
"852 225 CURVE SMOOTH",
"852 307.009 OFFCURVE",
"794.739 350.25 OFFCURVE",
"715 353 CURVE",
"715 355 LINE",
"809.364 371.653 OFFCURVE",
"905 437.62 OFFCURVE",
"905 536 CURVE SMOOTH",
"905 592 OFFCURVE",
"882.667 626.333 OFFCURVE",
"840 661 CURVE",
"882.667 689 OFFCURVE",
"921.333 699.333 OFFCURVE",
"964 706 CURVE",
"964 718 LINE",
"921.333 711.333 OFFCURVE",
"878.333 699.333 OFFCURVE",
"825 670 CURVE",
"777 696.667 OFFCURVE",
"710.333 712 OFFCURVE",
"633 712 CURVE SMOOTH",
"537 712 OFFCURVE",
"450.5 688.5 OFFCURVE",
"376.5 650.5 CURVE SMOOTH",
"339.5 631.5 OFFCURVE",
"306.167 609.333 OFFCURVE",
"276.5 584 CURVE SMOOTH",
"217.167 533.333 OFFCURVE",
"175.667 475.333 OFFCURVE",
"153 414 CURVE SMOOTH",
"141.667 383.333 OFFCURVE",
"136 353.333 OFFCURVE",
"136 324 CURVE SMOOTH",
"136 234.404 OFFCURVE",
"192.991 160 OFFCURVE",
"289 160 CURVE SMOOTH",
"400.32 160 OFFCURVE",
"469 263.499 OFFCURVE",
"469 383 CURVE SMOOTH",
"469 404.333 OFFCURVE",
"468 421 OFFCURVE",
"464 449 CURVE"
);
}
);
userData = {
assembly = "PUSHW[ ]\011/* 4 values pushed */
98 9 92 4 
CALL[ ]\011/* CallFunction */
PUSHW[ ]\011/* 4 values pushed */
60 9 134 4 
CALL[ ]\011/* CallFunction */
PUSHW[ ]\011/* 4 values pushed */
44 8 68 4 
CALL[ ]\011/* CallFunction */
PUSHW[ ]\011/* 1 value pushed */
134 
SRP0[ ]\011/* SetRefPoint0 */
PUSHW[ ]\011/* 1 value pushed */
0 
MDRP[10000]\011/* MoveDirectRelPt */
PUSHW[ ]\011/* 1 value pushed */
0 
MDAP[1]\011/* MoveDirectAbsPt */
NPUSHW[ ]\011/* 15 values pushed */
150 98 166 98 182 98 198 98 214 98 230 98 246 98 7 
DELTAP1[ ]\011/* DeltaExceptionP1 */
NPUSHW[ ]\011/* 15 values pushed */
6 98 22 98 38 98 54 98 70 98 86 98 102 98 7 
DELTAP2[ ]\011/* DeltaExceptionP2 */
NPUSHW[ ]\011/* 5 values pushed */
117 98 133 98 2 
DELTAP2[ ]\011/* DeltaExceptionP2 */
PUSHW[ ]\011/* 1 value pushed */
98 
SRP0[ ]\011/* SetRefPoint0 */
PUSHW[ ]\011/* 2 values pushed */
13 5 
MIRP[10100]\011/* MoveIndirectRelPt */
NPUSHW[ ]\011/* 5 values pushed */
122 68 138 68 2 
DELTAP2[ ]\011/* DeltaExceptionP2 */
NPUSHW[ ]\011/* 15 values pushed */
153 68 169 68 185 68 201 68 217 68 233 68 249 68 7 
DELTAP1[ ]\011/* DeltaExceptionP1 */
NPUSHW[ ]\011/* 15 values pushed */
9 68 25 68 41 68 57 68 73 68 89 68 105 68 7 
DELTAP2[ ]\011/* DeltaExceptionP2 */
PUSHW[ ]\011/* 3 values pushed */
30 68 44 
SRP1[ ]\011/* SetRefPoint1 */
SRP2[ ]\011/* SetRefPoint2 */
IP[ ]\011/* InterpolatePts */
PUSHW[ ]\011/* 1 value pushed */
44 
SRP0[ ]\011/* SetRefPoint0 */
PUSHW[ ]\011/* 2 values pushed */
33 4 
MIRP[10100]\011/* MoveIndirectRelPt */
PUSHW[ ]\011/* 3 values pushed */
39 92 33 
SRP1[ ]\011/* SetRefPoint1 */
SRP2[ ]\011/* SetRefPoint2 */
IP[ ]\011/* InterpolatePts */
NPUSHW[ ]\011/* 15 values pushed */
150 60 166 60 182 60 198 60 214 60 230 60 246 60 7 
DELTAP1[ ]\011/* DeltaExceptionP1 */
NPUSHW[ ]\011/* 15 values pushed */
6 60 22 60 38 60 54 60 70 60 86 60 102 60 7 
DELTAP2[ ]\011/* DeltaExceptionP2 */
NPUSHW[ ]\011/* 5 values pushed */
117 60 133 60 2 
DELTAP2[ ]\011/* DeltaExceptionP2 */
PUSHW[ ]\011/* 1 value pushed */
60 
SRP0[ ]\011/* SetRefPoint0 */
PUSHW[ ]\011/* 2 values pushed */
52 4 
MIRP[10100]\011/* MoveIndirectRelPt */
PUSHW[ ]\011/* 3 values pushed */
57 92 33 
SRP1[ ]\011/* SetRefPoint1 */
SRP2[ ]\011/* SetRefPoint2 */
IP[ ]\011/* InterpolatePts */
PUSHW[ ]\011/* 1 value pushed */
44 
SRP0[ ]\011/* SetRefPoint0 */
PUSHW[ ]\011/* 1 value pushed */
79 
MDRP[10000]\011/* MoveDirectRelPt */
PUSHW[ ]\011/* 1 value pushed */
79 
MDAP[1]\011/* MoveDirectAbsPt */
PUSHW[ ]\011/* 3 values pushed */
116 68 44 
SRP1[ ]\011/* SetRefPoint1 */
SRP2[ ]\011/* SetRefPoint2 */
IP[ ]\011/* InterpolatePts */
PUSHW[ ]\011/* 1 value pushed */
98 
SRP0[ ]\011/* SetRefPoint0 */
PUSHW[ ]\011/* 1 value pushed */
124 
MDRP[10000]\011/* MoveDirectRelPt */
PUSHW[ ]\011/* 1 value pushed */
134 
SRP0[ ]\011/* SetRefPoint0 */
PUSHW[ ]\011/* 1 value pushed */
137 
MDRP[10000]\011/* MoveDirectRelPt */
PUSHW[ ]\011/* 1 value pushed */
137 
MDAP[1]\011/* MoveDirectAbsPt */
PUSHW[ ]\011/* 1 value pushed */
44 
SRP0[ ]\011/* SetRefPoint0 */
PUSHW[ ]\011/* 1 value pushed */
139 
MDRP[11100]\011/* MoveDirectRelPt */
SVTCA[0]\011/* SetFreedomAndProjectionVectorToAxis */
PUSHW[ ]\011/* 1 value pushed */
20 
MDAP[1]\011/* MoveDirectAbsPt */
PUSHW[ ]\011/* 1 value pushed */
26 
MDAP[1]\011/* MoveDirectAbsPt */
PUSHW[ ]\011/* 1 value pushed */
0 
RCVT[ ]\011/* ReadCVT */
IF[ ]\011/* If */
PUSHW[ ]\011/* 1 value pushed */
49 
MDAP[1]\011/* MoveDirectAbsPt */
ELSE[ ]\011/* Else */
PUSHW[ ]\011/* 2 values pushed */
49 10 
MIAP[0]\011/* MoveIndirectAbsPt */
EIF[ ]\011/* EndIf */
PUSHW[ ]\011/* 1 value pushed */
0 
RCVT[ ]\011/* ReadCVT */
IF[ ]\011/* If */
PUSHW[ ]\011/* 1 value pushed */
106 
MDAP[1]\011/* MoveDirectAbsPt */
ELSE[ ]\011/* Else */
PUSHW[ ]\011/* 2 values pushed */
106 10 
MIAP[0]\011/* MoveIndirectAbsPt */
EIF[ ]\011/* EndIf */
PUSHW[ ]\011/* 1 value pushed */
0 
RCVT[ ]\011/* ReadCVT */
IF[ ]\011/* If */
PUSHW[ ]\011/* 1 value pushed */
89 
MDAP[1]\011/* MoveDirectAbsPt */
ELSE[ ]\011/* Else */
PUSHW[ ]\011/* 2 values pushed */
89 10 
MIAP[0]\011/* MoveIndirectAbsPt */
EIF[ ]\011/* EndIf */
PUSHW[ ]\011/* 3 values pushed */
30 89 26 
SRP1[ ]\011/* SetRefPoint1 */
SRP2[ ]\011/* SetRefPoint2 */
IP[ ]\011/* InterpolatePts */
PUSHW[ ]\011/* 3 values pushed */
39 89 26 
SRP1[ ]\011/* SetRefPoint1 */
SRP2[ ]\011/* SetRefPoint2 */
IP[ ]\011/* InterpolatePts */
PUSHW[ ]\011/* 1 value pushed */
49 
SRP0[ ]\011/* SetRefPoint0 */
PUSHW[ ]\011/* 1 value pushed */
55 
MDRP[11100]\011/* MoveDirectRelPt */
NPUSHW[ ]\011/* 15 values pushed */
151 55 167 55 183 55 199 55 215 55 231 55 247 55 7 
DELTAP1[ ]\011/* DeltaExceptionP1 */
NPUSHW[ ]\011/* 13 values pushed */
7 55 23 55 39 55 55 55 71 55 87 55 6 
DELTAP2[ ]\011/* DeltaExceptionP2 */
NPUSHW[ ]\011/* 5 values pushed */
102 55 118 55 2 
DELTAP2[ ]\011/* DeltaExceptionP2 */
PUSHW[ ]\011/* 1 value pushed */
89 
SRP0[ ]\011/* SetRefPoint0 */
PUSHW[ ]\011/* 1 value pushed */
129 
MDRP[11100]\011/* MoveDirectRelPt */
NPUSHW[ ]\011/* 15 values pushed */
151 129 167 129 183 129 199 129 215 129 231 129 247 129 7 
DELTAP1[ ]\011/* DeltaExceptionP1 */
NPUSHW[ ]\011/* 13 values pushed */
7 129 23 129 39 129 55 129 71 129 87 129 6 
DELTAP2[ ]\011/* DeltaExceptionP2 */
NPUSHW[ ]\011/* 5 values pushed */
102 129 118 129 2 
DELTAP2[ ]\011/* DeltaExceptionP2 */
PUSHW[ ]\011/* 3 values pushed */
57 89 129 
SRP1[ ]\011/* SetRefPoint1 */
SRP2[ ]\011/* SetRefPoint2 */
IP[ ]\011/* InterpolatePts */
PUSHW[ ]\011/* 1 value pushed */
106 
SRP0[ ]\011/* SetRefPoint0 */
PUSHW[ ]\011/* 2 values pushed */
95 1 
MIRP[10100]\011/* MoveIndirectRelPt */
NPUSHW[ ]\011/* 15 values pushed */
151 95 167 95 183 95 199 95 215 95 231 95 247 95 7 
DELTAP1[ ]\011/* DeltaExceptionP1 */
NPUSHW[ ]\011/* 15 values pushed */
7 95 23 95 39 95 55 95 71 95 87 95 103 95 7 
DELTAP2[ ]\011/* DeltaExceptionP2 */
NPUSHW[ ]\011/* 5 values pushed */
118 95 134 95 2 
DELTAP2[ ]\011/* DeltaExceptionP2 */
PUSHW[ ]\011/* 3 values pushed */
116 89 26 
SRP1[ ]\011/* SetRefPoint1 */
SRP2[ ]\011/* SetRefPoint2 */
IP[ ]\011/* InterpolatePts */
IUP[0]\011/* InterpolateUntPts */
IUP[1]\011/* InterpolateUntPts */";
};
width = 889;
}
);
note = B;
unicode = 0042;
},
{
glyphname = C;
lastChange = "2018-11-16 05:15:47 +0000";
layers = (
{
layerId = "C82BC34C-76D5-4A26-949B-BF353CFC0606";
paths = (
{
closed = 1;
nodes = (
"534 556 LINE",
"533.333 552 OFFCURVE",
"533 547.333 OFFCURVE",
"533 542 CURVE SMOOTH",
"533 537.333 OFFCURVE",
"533 533 OFFCURVE",
"533 529 CURVE",
"535.667 469 OFFCURVE",
"578 447 OFFCURVE",
"630 447 CURVE SMOOTH",
"728.961 447 OFFCURVE",
"825 517.297 OFFCURVE",
"825 610 CURVE SMOOTH",
"825 676.667 OFFCURVE",
"784 712 OFFCURVE",
"700 712 CURVE SMOOTH",
"632 712 OFFCURVE",
"546.5 679.167 OFFCURVE",
"464.5 626.5 CURVE SMOOTH",
"423.5 600.167 OFFCURVE",
"383.667 569.167 OFFCURVE",
"345 533.5 CURVE SMOOTH",
"267.667 462.167 OFFCURVE",
"207 379.833 OFFCURVE",
"171 292.5 CURVE SMOOTH",
"153 248.833 OFFCURVE",
"144 206 OFFCURVE",
"144 164 CURVE SMOOTH",
"144 77.713 OFFCURVE",
"203.724 -16 OFFCURVE",
"330 -16 CURVE SMOOTH",
"422 -16 OFFCURVE",
"494 21.5 OFFCURVE",
"542 71.5 CURVE SMOOTH",
"590 121.5 OFFCURVE",
"615 183.333 OFFCURVE",
"615 230 CURVE SMOOTH",
"615 310 OFFCURVE",
"575 340 OFFCURVE",
"491 340 CURVE",
"492 328 LINE",
"545.333 328 OFFCURVE",
"579 299.333 OFFCURVE",
"579 246 CURVE SMOOTH",
"579 125.461 OFFCURVE",
"461.454 -4 OFFCURVE",
"334 -4 CURVE SMOOTH",
"247.213 -4 OFFCURVE",
"208 70.856 OFFCURVE",
"208 152 CURVE SMOOTH",
"208 244 OFFCURVE",
"242.5 334.667 OFFCURVE",
"296.5 416 CURVE SMOOTH",
"323.5 456.667 OFFCURVE",
"354.167 494.333 OFFCURVE",
"388.5 529 CURVE SMOOTH",
"457.167 598.333 OFFCURVE",
"533 649.833 OFFCURVE",
"605 678.5 CURVE SMOOTH",
"641 692.833 OFFCURVE",
"674 700 OFFCURVE",
"704 700 CURVE SMOOTH",
"756 700 OFFCURVE",
"789 685 OFFCURVE",
"789 629 CURVE SMOOTH",
"789 541.028 OFFCURVE",
"706.396 459 OFFCURVE",
"631 459 CURVE SMOOTH",
"584.842 459 OFFCURVE",
"545 478.581 OFFCURVE",
"545 532 CURVE SMOOTH",
"545 536.667 OFFCURVE",
"545 540.667 OFFCURVE",
"545 544 CURVE SMOOTH",
"545 548 OFFCURVE",
"545.333 552 OFFCURVE",
"546 556 CURVE"
);
}
);
userData = {
assembly = "PUSHW[ ]\011/* 4 values pushed */
24 9 51 4 
CALL[ ]\011/* CallFunction */
PUSHW[ ]\011/* 4 values pushed */
41 5 34 4 
CALL[ ]\011/* CallFunction */
PUSHW[ ]\011/* 4 values pushed */
61 5 14 4 
CALL[ ]\011/* CallFunction */
NPUSHW[ ]\011/* 5 values pushed */
74 14 90 14 2 
DELTAP3[ ]\011/* DeltaExceptionP3 */
NPUSHW[ ]\011/* 15 values pushed */
153 14 169 14 185 14 201 14 217 14 233 14 249 14 7 
DELTAP1[ ]\011/* DeltaExceptionP1 */
NPUSHW[ ]\011/* 33 values pushed */
9 14 25 14 41 14 57 14 73 14 89 14 105 14 121 14 137 14 153 14 169 14 185 14 201 14 217 14 233 14 249 14 16 
DELTAP2[ ]\011/* DeltaExceptionP2 */
NPUSHW[ ]\011/* 9 values pushed */
9 14 25 14 41 14 57 14 4 
DELTAP3[ ]\011/* DeltaExceptionP3 */
NPUSHW[ ]\011/* 15 values pushed */
150 24 166 24 182 24 198 24 214 24 230 24 246 24 7 
DELTAP1[ ]\011/* DeltaExceptionP1 */
NPUSHW[ ]\011/* 15 values pushed */
6 24 22 24 38 24 54 24 70 24 86 24 102 24 7 
DELTAP2[ ]\011/* DeltaExceptionP2 */
NPUSHW[ ]\011/* 5 values pushed */
117 24 133 24 2 
DELTAP2[ ]\011/* DeltaExceptionP2 */
NPUSHW[ ]\011/* 5 values pushed */
74 34 90 34 2 
DELTAP3[ ]\011/* DeltaExceptionP3 */
NPUSHW[ ]\011/* 15 values pushed */
153 34 169 34 185 34 201 34 217 34 233 34 249 34 7 
DELTAP1[ ]\011/* DeltaExceptionP1 */
NPUSHW[ ]\011/* 33 values pushed */
9 34 25 34 41 34 57 34 73 34 89 34 105 34 121 34 137 34 153 34 169 34 185 34 201 34 217 34 233 34 249 34 16 
DELTAP2[ ]\011/* DeltaExceptionP2 */
NPUSHW[ ]\011/* 9 values pushed */
9 34 25 34 41 34 57 34 4 
DELTAP3[ ]\011/* DeltaExceptionP3 */
PUSHW[ ]\011/* 1 value pushed */
61 
SRP0[ ]\011/* SetRefPoint0 */
PUSHW[ ]\011/* 1 value pushed */
75 
MDRP[11100]\011/* MoveDirectRelPt */
SVTCA[0]\011/* SetFreedomAndProjectionVectorToAxis */
PUSHW[ ]\011/* 1 value pushed */
58 
MDAP[1]\011/* MoveDirectAbsPt */
PUSHW[ ]\011/* 1 value pushed */
0 
RCVT[ ]\011/* ReadCVT */
IF[ ]\011/* If */
PUSHW[ ]\011/* 1 value pushed */
46 
MDAP[1]\011/* MoveDirectAbsPt */
ELSE[ ]\011/* Else */
PUSHW[ ]\011/* 2 values pushed */
46 10 
MIAP[0]\011/* MoveIndirectAbsPt */
EIF[ ]\011/* EndIf */
PUSHW[ ]\011/* 1 value pushed */
0 
RCVT[ ]\011/* ReadCVT */
IF[ ]\011/* If */
PUSHW[ ]\011/* 1 value pushed */
29 
MDAP[1]\011/* MoveDirectAbsPt */
ELSE[ ]\011/* Else */
PUSHW[ ]\011/* 2 values pushed */
29 10 
MIAP[0]\011/* MoveIndirectAbsPt */
EIF[ ]\011/* EndIf */
PUSHW[ ]\011/* 4 values pushed */
9 1 37 4 
CALL[ ]\011/* CallFunction */
IUP[0]\011/* InterpolateUntPts */
IUP[1]\011/* InterpolateUntPts */";
};
width = 667;
}
);
note = C;
unicode = 0043;
},
{
glyphname = D;
lastChange = "2018-11-16 05:15:47 +0000";
layers = (
{
layerId = "C82BC34C-76D5-4A26-949B-BF353CFC0606";
paths = (
{
closed = 1;
nodes = (
"992 738 LINE",
"921.333 727.333 OFFCURVE",
"859 693.667 OFFCURVE",
"803 651 CURVE",
"747 693.667 OFFCURVE",
"678.333 718 OFFCURVE",
"601 718 CURVE SMOOTH",
"470.333 718 OFFCURVE",
"354.667 663.833 OFFCURVE",
"272 588.5 CURVE SMOOTH",
"189.333 513.167 OFFCURVE",
"139 418.667 OFFCURVE",
"139 336 CURVE SMOOTH",
"139 239.979 OFFCURVE",
"191.257 160 OFFCURVE",
"290 160 CURVE SMOOTH",
"427.789 160 OFFCURVE",
"520 287.335 OFFCURVE",
"520 447 CURVE SMOOTH",
"520 476 LINE",
"508 476 LINE",
"508 442 LINE SMOOTH",
"508 302.308 OFFCURVE",
"426.969 176 OFFCURVE",
"305 176 CURVE SMOOTH",
"211.73 176 OFFCURVE",
"179 244.859 OFFCURVE",
"179 334 CURVE SMOOTH",
"179 440.667 OFFCURVE",
"231.167 533.333 OFFCURVE",
"310.5 600 CURVE SMOOTH",
"389.833 666.667 OFFCURVE",
"496 706 OFFCURVE",
"604 706 CURVE SMOOTH",
"661.333 706 OFFCURVE",
"736 688.667 OFFCURVE",
"792 642 CURVE",
"721.333 583.333 OFFCURVE",
"663.167 499.833 OFFCURVE",
"610.5 412.5 CURVE SMOOTH",
"584.167 368.833 OFFCURVE",
"558.667 325 OFFCURVE",
"534 281 CURVE SMOOTH",
"484.667 193 OFFCURVE",
"434.167 118.333 OFFCURVE",
"377.5 65 CURVE SMOOTH",
"349.167 38.333 OFFCURVE",
"318 20.667 OFFCURVE",
"284 12 CURVE",
"231.866 20.021 OFFCURVE",
"186.208 32 OFFCURVE",
"158 32 CURVE SMOOTH",
"135.333 32 OFFCURVE",
"120 27 OFFCURVE",
"120 11 CURVE SMOOTH",
"120 3 OFFCURVE",
"124.333 -2.5 OFFCURVE",
"133 -5.5 CURVE SMOOTH",
"141.667 -8.5 OFFCURVE",
"154 -10 OFFCURVE",
"170 -10 CURVE SMOOTH",
"223.193 -10 OFFCURVE",
"235.953 -4.007 OFFCURVE",
"285 3 CURVE",
"331.433 -7.925 OFFCURVE",
"380.382 -16 OFFCURVE",
"453 -16 CURVE SMOOTH",
"562.333 -16 OFFCURVE",
"673.833 30.167 OFFCURVE",
"758.5 105.5 CURVE SMOOTH",
"843.167 180.833 OFFCURVE",
"900 287 OFFCURVE",
"900 407 CURVE SMOOTH",
"900 487.497 OFFCURVE",
"876.021 582.589 OFFCURVE",
"816 640 CURVE",
"865.333 686.667 OFFCURVE",
"927.333 718 OFFCURVE",
"994 730 CURVE"
);
},
{
closed = 1;
nodes = (
"382.667 -4 OFFCURVE",
"343.333 -2 OFFCURVE",
"302 6 CURVE",
"302 8 LINE",
"390 36 OFFCURVE",
"457 94.333 OFFCURVE",
"513 165 CURVE SMOOTH",
"541 200.333 OFFCURVE",
"567 238.333 OFFCURVE",
"591 279 CURVE SMOOTH",
"629.467 344.179 OFFCURVE",
"691.667 458.397 OFFCURVE",
"729.5 522 CURVE SMOOTH",
"752.5 560.667 OFFCURVE",
"777.667 595.333 OFFCURVE",
"805 626 CURVE",
"838.333 590 OFFCURVE",
"852 531.333 OFFCURVE",
"852 478 CURVE SMOOTH",
"852 407.333 OFFCURVE",
"836.667 329.833 OFFCURVE",
"806 258.5 CURVE SMOOTH",
"790.667 222.833 OFFCURVE",
"771.667 189 OFFCURVE",
"749 157 CURVE SMOOTH",
"703.667 93 OFFCURVE",
"641.333 45 OFFCURVE",
"564 17 CURVE SMOOTH",
"525.333 3 OFFCURVE",
"482.667 -4 OFFCURVE",
"436 -4 CURVE SMOOTH"
);
}
);
userData = {
assembly = "PUSHW[ ]\011/* 1 value pushed */
105 
MDAP[1]\011/* MoveDirectAbsPt */
PUSHW[ ]\011/* 1 value pushed */
91 
MDAP[1]\011/* MoveDirectAbsPt */
NPUSHW[ ]\011/* 5 values pushed */
74 91 90 91 2 
DELTAP3[ ]\011/* DeltaExceptionP3 */
NPUSHW[ ]\011/* 15 values pushed */
153 91 169 91 185 91 201 91 217 91 233 91 249 91 7 
DELTAP1[ ]\011/* DeltaExceptionP1 */
NPUSHW[ ]\011/* 33 values pushed */
9 91 25 91 41 91 57 91 73 91 89 91 105 91 121 91 137 91 153 91 169 91 185 91 201 91 217 91 233 91 249 91 16 
DELTAP2[ ]\011/* DeltaExceptionP2 */
NPUSHW[ ]\011/* 9 values pushed */
9 91 25 91 41 91 57 91 4 
DELTAP3[ ]\011/* DeltaExceptionP3 */
PUSHW[ ]\011/* 2 values pushed */
8 7 
MIRP[10100]\011/* MoveIndirectRelPt */
PUSHW[ ]\011/* 1 value pushed */
105 
SRP0[ ]\011/* SetRefPoint0 */
PUSHW[ ]\011/* 1 value pushed */
72 
MDRP[10000]\011/* MoveDirectRelPt */
PUSHW[ ]\011/* 1 value pushed */
72 
MDAP[1]\011/* MoveDirectAbsPt */
PUSHW[ ]\011/* 2 values pushed */
49 5 
MIRP[10100]\011/* MoveIndirectRelPt */
NPUSHW[ ]\011/* 15 values pushed */
150 49 166 49 182 49 198 49 214 49 230 49 246 49 7 
DELTAP1[ ]\011/* DeltaExceptionP1 */
NPUSHW[ ]\011/* 33 values pushed */
6 49 22 49 38 49 54 49 70 49 86 49 102 49 118 49 134 49 150 49 166 49 182 49 198 49 214 49 230 49 246 49 16 
DELTAP2[ ]\011/* DeltaExceptionP2 */
NPUSHW[ ]\011/* 9 values pushed */
6 49 22 49 38 49 54 49 4 
DELTAP3[ ]\011/* DeltaExceptionP3 */
NPUSHW[ ]\011/* 5 values pushed */
69 49 85 49 2 
DELTAP3[ ]\011/* DeltaExceptionP3 */
PUSHW[ ]\011/* 3 values pushed */
102 72 8 
SRP1[ ]\011/* SetRefPoint1 */
SRP2[ ]\011/* SetRefPoint2 */
IP[ ]\011/* InterpolatePts */
PUSHW[ ]\011/* 1 value pushed */
8 
SRP0[ ]\011/* SetRefPoint0 */
PUSHW[ ]\011/* 1 value pushed */
106 
MDRP[11100]\011/* MoveDirectRelPt */
SVTCA[0]\011/* SetFreedomAndProjectionVectorToAxis */
PUSHW[ ]\011/* 1 value pushed */
83 
MDAP[1]\011/* MoveDirectAbsPt */
PUSHW[ ]\011/* 1 value pushed */
0 
RCVT[ ]\011/* ReadCVT */
IF[ ]\011/* If */
PUSHW[ ]\011/* 1 value pushed */
13 
MDAP[1]\011/* MoveDirectAbsPt */
ELSE[ ]\011/* Else */
PUSHW[ ]\011/* 2 values pushed */
13 10 
MIAP[0]\011/* MoveIndirectAbsPt */
EIF[ ]\011/* EndIf */
PUSHW[ ]\011/* 1 value pushed */
0 
RCVT[ ]\011/* ReadCVT */
IF[ ]\011/* If */
PUSHW[ ]\011/* 1 value pushed */
23 
MDAP[1]\011/* MoveDirectAbsPt */
ELSE[ ]\011/* Else */
PUSHW[ ]\011/* 2 values pushed */
23 10 
MIAP[0]\011/* MoveIndirectAbsPt */
EIF[ ]\011/* EndIf */
PUSHW[ ]\011/* 1 value pushed */
0 
RCVT[ ]\011/* ReadCVT */
IF[ ]\011/* If */
PUSHW[ ]\011/* 1 value pushed */
84 
MDAP[1]\011/* MoveDirectAbsPt */
ELSE[ ]\011/* Else */
PUSHW[ ]\011/* 2 values pushed */
84 10 
MIAP[0]\011/* MoveIndirectAbsPt */
EIF[ ]\011/* EndIf */
PUSHW[ ]\011/* 1 value pushed */
0 
RCVT[ ]\011/* ReadCVT */
IF[ ]\011/* If */
PUSHW[ ]\011/* 1 value pushed */
18 
MDAP[1]\011/* MoveDirectAbsPt */
ELSE[ ]\011/* Else */
PUSHW[ ]\011/* 2 values pushed */
18 10 
MIAP[0]\011/* MoveIndirectAbsPt */
EIF[ ]\011/* EndIf */
PUSHW[ ]\011/* 1 value pushed */
23 
SRP0[ ]\011/* SetRefPoint0 */
PUSHW[ ]\011/* 2 values pushed */
29 3 
MIRP[10100]\011/* MoveIndirectRelPt */
NPUSHW[ ]\011/* 15 values pushed */
151 29 167 29 183 29 199 29 215 29 231 29 247 29 7 
DELTAP1[ ]\011/* DeltaExceptionP1 */
NPUSHW[ ]\011/* 33 values pushed */
7 29 23 29 39 29 55 29 71 29 87 29 103 29 119 29 135 29 151 29 167 29 183 29 199 29 215 29 231 29 247 29 16 
DELTAP2[ ]\011/* DeltaExceptionP2 */
NPUSHW[ ]\011/* 9 values pushed */
7 29 23 29 39 29 55 29 4 
DELTAP3[ ]\011/* DeltaExceptionP3 */
NPUSHW[ ]\011/* 5 values pushed */
70 29 86 29 2 
DELTAP3[ ]\011/* DeltaExceptionP3 */
PUSHW[ ]\011/* 1 value pushed */
18 
SRP0[ ]\011/* SetRefPoint0 */
PUSHW[ ]\011/* 1 value pushed */
54 
MDRP[11100]\011/* MoveDirectRelPt */
NPUSHW[ ]\011/* 15 values pushed */
151 54 167 54 183 54 199 54 215 54 231 54 247 54 7 
DELTAP1[ ]\011/* DeltaExceptionP1 */
NPUSHW[ ]\011/* 13 values pushed */
7 54 23 54 39 54 55 54 71 54 87 54 6 
DELTAP2[ ]\011/* DeltaExceptionP2 */
NPUSHW[ ]\011/* 5 values pushed */
102 54 118 54 2 
DELTAP2[ ]\011/* DeltaExceptionP2 */
PUSHW[ ]\011/* 3 values pushed */
102 23 29 
SRP1[ ]\011/* SetRefPoint1 */
SRP2[ ]\011/* SetRefPoint2 */
IP[ ]\011/* InterpolatePts */
IUP[0]\011/* InterpolateUntPts */
IUP[1]\011/* InterpolateUntPts */";
};
width = 889;
}
);
note = D;
unicode = 0044;
},
{
glyphname = E;
lastChange = "2018-11-16 05:15:47 +0000";
layers = (
{
layerId = "C82BC34C-76D5-4A26-949B-BF353CFC0606";
paths = (
{
closed = 1;
nodes = (
"342 180 LINE",
"372.529 224.405 OFFCURVE",
"426.811 268 OFFCURVE",
"481 268 CURVE SMOOTH",
"534.333 268 OFFCURVE",
"557 236.667 OFFCURVE",
"557 178 CURVE SMOOTH",
"557 63.271 OFFCURVE",
"433.853 0 OFFCURVE",
"330 0 CURVE SMOOTH",
"229.843 0 OFFCURVE",
"154 76.911 OFFCURVE",
"154 164 CURVE SMOOTH",
"154 307.85 OFFCURVE",
"250.869 344.401 OFFCURVE",
"367 398 CURVE SMOOTH",
"413.667 419.333 OFFCURVE",
"434 453.333 OFFCURVE",
"434 504 CURVE SMOOTH",
"434 594.476 OFFCURVE",
"480.34 700 OFFCURVE",
"590 700 CURVE SMOOTH",
"654 700 OFFCURVE",
"692 673.333 OFFCURVE",
"692 612 CURVE SMOOTH",
"692 559.861 OFFCURVE",
"645.47 483 OFFCURVE",
"572 483 CURVE SMOOTH",
"551.333 483 OFFCURVE",
"536.667 484.667 OFFCURVE",
"528 488 CURVE",
"527 477 LINE",
"533.667 474.333 OFFCURVE",
"553.333 471 OFFCURVE",
"572 471 CURVE SMOOTH",
"650.778 471 OFFCURVE",
"736 524.267 OFFCURVE",
"736 610 CURVE SMOOTH",
"736 680.682 OFFCURVE",
"666.371 712 OFFCURVE",
"600 712 CURVE SMOOTH",
"452.533 712 OFFCURVE",
"370 616.657 OFFCURVE",
"370 492 CURVE SMOOTH",
"370 419.959 OFFCURVE",
"366.024 407.599 OFFCURVE",
"318 385 CURVE SMOOTH",
"198.412 332.159 OFFCURVE",
"90 278.319 OFFCURVE",
"90 148 CURVE SMOOTH",
"90 45.033 OFFCURVE",
"184.301 -16 OFFCURVE",
"320 -16 CURVE SMOOTH",
"445.875 -16 OFFCURVE",
"611 86.142 OFFCURVE",
"611 185 CURVE SMOOTH",
"611 238.333 OFFCURVE",
"575 280 OFFCURVE",
"503 280 CURVE SMOOTH",
"431 280 OFFCURVE",
"376.333 242.333 OFFCURVE",
"335 185 CURVE"
);
}
);
userData = {
assembly = "PUSHW[ ]\011/* 4 values pushed */
68 9 16 4 
CALL[ ]\011/* CallFunction */
PUSHW[ ]\011/* 4 values pushed */
60 9 26 4 
CALL[ ]\011/* CallFunction */
PUSHW[ ]\011/* 4 values pushed */
6 4 78 4 
CALL[ ]\011/* CallFunction */
PUSHW[ ]\011/* 4 values pushed */
36 6 52 4 
CALL[ ]\011/* CallFunction */
PUSHW[ ]\011/* 3 values pushed */
45 16 36 
SRP1[ ]\011/* SetRefPoint1 */
SRP2[ ]\011/* SetRefPoint2 */
IP[ ]\011/* InterpolatePts */
NPUSHW[ ]\011/* 5 values pushed */
74 52 90 52 2 
DELTAP3[ ]\011/* DeltaExceptionP3 */
NPUSHW[ ]\011/* 15 values pushed */
153 52 169 52 185 52 201 52 217 52 233 52 249 52 7 
DELTAP1[ ]\011/* DeltaExceptionP1 */
NPUSHW[ ]\011/* 33 values pushed */
9 52 25 52 41 52 57 52 73 52 89 52 105 52 121 52 137 52 153 52 169 52 185 52 201 52 217 52 233 52 249 52 16 
DELTAP2[ ]\011/* DeltaExceptionP2 */
NPUSHW[ ]\011/* 9 values pushed */
9 52 25 52 41 52 57 52 4 
DELTAP3[ ]\011/* DeltaExceptionP3 */
NPUSHW[ ]\011/* 15 values pushed */
150 60 166 60 182 60 198 60 214 60 230 60 246 60 7 
DELTAP1[ ]\011/* DeltaExceptionP1 */
NPUSHW[ ]\011/* 15 values pushed */
6 60 22 60 38 60 54 60 70 60 86 60 102 60 7 
DELTAP2[ ]\011/* DeltaExceptionP2 */
NPUSHW[ ]\011/* 5 values pushed */
117 60 133 60 2 
DELTAP2[ ]\011/* DeltaExceptionP2 */
NPUSHW[ ]\011/* 15 values pushed */
150 68 166 68 182 68 198 68 214 68 230 68 246 68 7 
DELTAP1[ ]\011/* DeltaExceptionP1 */
NPUSHW[ ]\011/* 15 values pushed */
6 68 22 68 38 68 54 68 70 68 86 68 102 68 7 
DELTAP2[ ]\011/* DeltaExceptionP2 */
NPUSHW[ ]\011/* 5 values pushed */
117 68 133 68 2 
DELTAP2[ ]\011/* DeltaExceptionP2 */
NPUSHW[ ]\011/* 5 values pushed */
122 78 138 78 2 
DELTAP2[ ]\011/* DeltaExceptionP2 */
NPUSHW[ ]\011/* 15 values pushed */
153 78 169 78 185 78 201 78 217 78 233 78 249 78 7 
DELTAP1[ ]\011/* DeltaExceptionP1 */
NPUSHW[ ]\011/* 15 values pushed */
9 78 25 78 41 78 57 78 73 78 89 78 105 78 7 
DELTAP2[ ]\011/* DeltaExceptionP2 */
PUSHW[ ]\011/* 1 value pushed */
36 
SRP0[ ]\011/* SetRefPoint0 */
PUSHW[ ]\011/* 1 value pushed */
88 
MDRP[11100]\011/* MoveDirectRelPt */
SVTCA[0]\011/* SetFreedomAndProjectionVectorToAxis */
PUSHW[ ]\011/* 1 value pushed */
0 
RCVT[ ]\011/* ReadCVT */
IF[ ]\011/* If */
PUSHW[ ]\011/* 1 value pushed */
11 
MDAP[1]\011/* MoveDirectAbsPt */
ELSE[ ]\011/* Else */
PUSHW[ ]\011/* 2 values pushed */
11 10 
MIAP[0]\011/* MoveIndirectAbsPt */
EIF[ ]\011/* EndIf */
PUSHW[ ]\011/* 1 value pushed */
0 
RCVT[ ]\011/* ReadCVT */
IF[ ]\011/* If */
PUSHW[ ]\011/* 1 value pushed */
73 
MDAP[1]\011/* MoveDirectAbsPt */
ELSE[ ]\011/* Else */
PUSHW[ ]\011/* 2 values pushed */
73 10 
MIAP[0]\011/* MoveIndirectAbsPt */
EIF[ ]\011/* EndIf */
PUSHW[ ]\011/* 3 values pushed */
31 41 3 
CALL[ ]\011/* CallFunction */
PUSHW[ ]\011/* 3 values pushed */
47 81 3 
CALL[ ]\011/* CallFunction */
PUSHW[ ]\011/* 3 values pushed */
45 41 31 
SRP1[ ]\011/* SetRefPoint1 */
SRP2[ ]\011/* SetRefPoint2 */
IP[ ]\011/* InterpolatePts */
IUP[0]\011/* InterpolateUntPts */
IUP[1]\011/* InterpolateUntPts */";
};
width = 667;
}
);
note = E;
unicode = 0045;
},
{
glyphname = F;
lastChange = "2018-11-16 05:15:47 +0000";
layers = (
{
layerId = "C82BC34C-76D5-4A26-949B-BF353CFC0606";
paths = (
{
closed = 1;
nodes = (
"602 323 LINE",
"563.333 261.667 OFFCURVE",
"516.667 181 OFFCURVE",
"458 117 CURVE SMOOTH",
"399.333 53 OFFCURVE",
"327.667 4 OFFCURVE",
"241 4 CURVE SMOOTH",
"137.109 4 OFFCURVE",
"102 55.075 OFFCURVE",
"102 99 CURVE",
"104.667 98.333 OFFCURVE",
"108 98 OFFCURVE",
"112 98 CURVE SMOOTH",
"130.667 98 OFFCURVE",
"140 114.333 OFFCURVE",
"140 133 CURVE SMOOTH",
"140 153 OFFCURVE",
"128.333 168 OFFCURVE",
"107 168 CURVE SMOOTH",
"77.667 168 OFFCURVE",
"62 140.667 OFFCURVE",
"62 114 CURVE SMOOTH",
"62 32.09 OFFCURVE",
"158.87 -8 OFFCURVE",
"236 -8 CURVE SMOOTH",
"341.333 -8 OFFCURVE",
"424 35.167 OFFCURVE",
"492 98.5 CURVE SMOOTH",
"560 161.833 OFFCURVE",
"614 244 OFFCURVE",
"662 324 CURVE",
"671.178 325.147 OFFCURVE",
"753.213 332.417 OFFCURVE",
"770 335 CURVE",
"760.667 317.667 OFFCURVE",
"751.333 300.5 OFFCURVE",
"742 283.5 CURVE SMOOTH",
"732.667 266.5 OFFCURVE",
"724.667 248.667 OFFCURVE",
"718 230 CURVE",
"724 227 LINE",
"762.667 288.333 OFFCURVE",
"811.333 342.333 OFFCURVE",
"866 389 CURVE",
"858 391.667 OFFCURVE",
"849.667 393 OFFCURVE",
"841 393 CURVE SMOOTH",
"813 393 OFFCURVE",
"798 373 OFFCURVE",
"786 357 CURVE",
"775.973 341.96 OFFCURVE",
"697.612 342.102 OFFCURVE",
"667 337 CURVE",
"696.644 377.623 OFFCURVE",
"737.008 456.17 OFFCURVE",
"767.5 499.5 CURVE SMOOTH",
"805.5 553.5 OFFCURVE",
"854.667 602 OFFCURVE",
"932 630 CURVE",
"1036.101 630 OFFCURVE",
"1122 618.147 OFFCURVE",
"1122 664 CURVE SMOOTH",
"1122 684 OFFCURVE",
"1100.667 684 OFFCURVE",
"1074 684 CURVE SMOOTH",
"1064 684 OFFCURVE",
"1052.833 683.333 OFFCURVE",
"1040.5 682 CURVE SMOOTH",
"1028.167 680.667 OFFCURVE",
"1014.333 680 OFFCURVE",
"999 680 CURVE SMOOTH",
"977.667 680 OFFCURVE",
"945.167 680.667 OFFCURVE",
"901.5 682 CURVE SMOOTH",
"857.833 683.333 OFFCURVE",
"806.667 684 OFFCURVE",
"748 684 CURVE SMOOTH",
"572 684 OFFCURVE",
"432.667 651 OFFCURVE",
"338 599 CURVE SMOOTH",
"243.333 547 OFFCURVE",
"192 477.333 OFFCURVE",
"192 404 CURVE SMOOTH",
"192 332 OFFCURVE",
"247.667 290 OFFCURVE",
"337 290 CURVE SMOOTH",
"464.393 290 OFFCURVE",
"592 383.483 OFFCURVE",
"592 485 CURVE SMOOTH",
"592 505 OFFCURVE",
"588.333 524.333 OFFCURVE",
"581 543 CURVE",
"571 541 LINE",
"575 526.333 OFFCURVE",
"580 508.667 OFFCURVE",
"580 486 CURVE SMOOTH",
"580 379.227 OFFCURVE",
"448.818 302 OFFCURVE",
"338 302 CURVE SMOOTH",
"254 302 OFFCURVE",
"201.333 343 OFFCURVE",
"204 407 CURVE SMOOTH",
"206.667 473.667 OFFCURVE",
"250.833 529.667 OFFCURVE",
"327.5 571 CURVE SMOOTH",
"404.167 612.333 OFFCURVE",
"514 636 OFFCURVE",
"646 636 CURVE SMOOTH",
"743.404 636 OFFCURVE",
"860.117 632 OFFCURVE",
"915 632 CURVE",
"915 630 LINE",
"769.696 593.013 OFFCURVE",
"685.926 455.92 OFFCURVE",
"608 335 CURVE",
"565 335 LINE",
"563 323 LINE"
);
}
);
userData = {
assembly = "PUSHW[ ]\011/* 4 values pushed */
102 9 96 4 
CALL[ ]\011/* CallFunction */
NPUSHW[ ]\011/* 15 values pushed */
150 102 166 102 182 102 198 102 214 102 230 102 246 102 7 
DELTAP1[ ]\011/* DeltaExceptionP1 */
NPUSHW[ ]\011/* 15 values pushed */
6 102 22 102 38 102 54 102 70 102 86 102 102 102 7 
DELTAP2[ ]\011/* DeltaExceptionP2 */
NPUSHW[ ]\011/* 5 values pushed */
117 102 133 102 2 
DELTAP2[ ]\011/* DeltaExceptionP2 */
SVTCA[0]\011/* SetFreedomAndProjectionVectorToAxis */
PUSHW[ ]\011/* 1 value pushed */
0 
RCVT[ ]\011/* ReadCVT */
IF[ ]\011/* If */
PUSHW[ ]\011/* 1 value pushed */
91 
MDAP[1]\011/* MoveDirectAbsPt */
ELSE[ ]\011/* Else */
PUSHW[ ]\011/* 2 values pushed */
91 10 
MIAP[0]\011/* MoveIndirectAbsPt */
EIF[ ]\011/* EndIf */
PUSHW[ ]\011/* 4 values pushed */
45 3 13 4 
CALL[ ]\011/* CallFunction */
PUSHW[ ]\011/* 1 value pushed */
13 
SRP0[ ]\011/* SetRefPoint0 */
PUSHW[ ]\011/* 1 value pushed */
8 
MDRP[10000]\011/* MoveDirectRelPt */
PUSHW[ ]\011/* 1 value pushed */
8 
MDAP[1]\011/* MoveDirectAbsPt */
PUSHW[ ]\011/* 1 value pushed */
45 
SRP0[ ]\011/* SetRefPoint0 */
PUSHW[ ]\011/* 1 value pushed */
48 
MDRP[10000]\011/* MoveDirectRelPt */
PUSHW[ ]\011/* 1 value pushed */
48 
MDAP[1]\011/* MoveDirectAbsPt */
PUSHW[ ]\011/* 1 value pushed */
45 
SRP0[ ]\011/* SetRefPoint0 */
PUSHW[ ]\011/* 1 value pushed */
51 
MDRP[10000]\011/* MoveDirectRelPt */
PUSHW[ ]\011/* 1 value pushed */
13 
SRP0[ ]\011/* SetRefPoint0 */
PUSHW[ ]\011/* 1 value pushed */
59 
MDRP[10000]\011/* MoveDirectRelPt */
PUSHW[ ]\011/* 1 value pushed */
59 
MDAP[1]\011/* MoveDirectAbsPt */
PUSHW[ ]\011/* 1 value pushed */
91 
SRP0[ ]\011/* SetRefPoint0 */
PUSHW[ ]\011/* 1 value pushed */
99 
MDRP[11100]\011/* MoveDirectRelPt */
NPUSHW[ ]\011/* 15 values pushed */
151 99 167 99 183 99 199 99 215 99 231 99 247 99 7 
DELTAP1[ ]\011/* DeltaExceptionP1 */
NPUSHW[ ]\011/* 13 values pushed */
7 99 23 99 39 99 55 99 71 99 87 99 6 
DELTAP2[ ]\011/* DeltaExceptionP2 */
NPUSHW[ ]\011/* 5 values pushed */
102 99 118 99 2 
DELTAP2[ ]\011/* DeltaExceptionP2 */
IUP[0]\011/* InterpolateUntPts */
IUP[1]\011/* InterpolateUntPts */";
};
width = 778;
}
);
note = F;
unicode = 0046;
},
{
glyphname = G;
lastChange = "2018-11-16 05:15:47 +0000";
layers = (
{
layerId = "C82BC34C-76D5-4A26-949B-BF353CFC0606";
paths = (
{
closed = 1;
nodes = (
"454 799 LINE",
"424.667 773.667 OFFCURVE",
"401 735 OFFCURVE",
"401 691 CURVE SMOOTH",
"401 662.333 OFFCURVE",
"409.333 636 OFFCURVE",
"426 612 CURVE",
"331.411 550.795 OFFCURVE",
"206 426.502 OFFCURVE",
"206 312 CURVE SMOOTH",
"206 237.333 OFFCURVE",
"252.333 190 OFFCURVE",
"327 190 CURVE SMOOTH",
"391 190 OFFCURVE",
"451.333 219.333 OFFCURVE",
"498 258 CURVE",
"500 256 LINE",
"428.748 144.846 OFFCURVE",
"330.248 -4 OFFCURVE",
"191 -4 CURVE SMOOTH",
"124.009 -4 OFFCURVE",
"60 31.851 OFFCURVE",
"60 92 CURVE SMOOTH",
"60 95.333 OFFCURVE",
"60 98.667 OFFCURVE",
"60 102 CURVE SMOOTH",
"60 106 OFFCURVE",
"60.667 110.333 OFFCURVE",
"62 115 CURVE",
"66 112.333 OFFCURVE",
"75 112 OFFCURVE",
"79 112 CURVE",
"100.333 110.667 OFFCURVE",
"114 125.667 OFFCURVE",
"114 147 CURVE SMOOTH",
"114 165.667 OFFCURVE",
"97.667 182 OFFCURVE",
"79 182 CURVE SMOOTH",
"41.667 182 OFFCURVE",
"26 150.667 OFFCURVE",
"26 116 CURVE SMOOTH",
"26 36.184 OFFCURVE",
"98.888 -16 OFFCURVE",
"188 -16 CURVE SMOOTH",
"282.667 -16 OFFCURVE",
"362.667 26.833 OFFCURVE",
"428 87.5 CURVE SMOOTH",
"493.333 148.167 OFFCURVE",
"545.667 228.667 OFFCURVE",
"587 302 CURVE",
"601 320 OFFCURVE",
"614.667 336.667 OFFCURVE",
"628 352 CURVE SMOOTH",
"641.333 367.333 OFFCURVE",
"648 378.667 OFFCURVE",
"648 386 CURVE SMOOTH",
"648 398 OFFCURVE",
"639 401 OFFCURVE",
"631 401 CURVE SMOOTH",
"570.3 401 OFFCURVE",
"554.545 356.744 OFFCURVE",
"528 301 CURVE",
"515.052 268.63 OFFCURVE",
"416.045 206 OFFCURVE",
"352 206 CURVE SMOOTH",
"288.593 206 OFFCURVE",
"270 248.3 OFFCURVE",
"270 307 CURVE SMOOTH",
"270 398.362 OFFCURVE",
"367.851 536.484 OFFCURVE",
"444 589 CURVE",
"494.667 538.333 OFFCURVE",
"566.667 524 OFFCURVE",
"628 524 CURVE SMOOTH",
"725.181 524 OFFCURVE",
"836 554.781 OFFCURVE",
"836 642 CURVE SMOOTH",
"836 696.266 OFFCURVE",
"778.502 712 OFFCURVE",
"726 712 CURVE SMOOTH",
"622 712 OFFCURVE",
"521.667 673.333 OFFCURVE",
"435 620 CURVE",
"421.667 636 OFFCURVE",
"413 665 OFFCURVE",
"413 693 CURVE SMOOTH",
"413 726.333 OFFCURVE",
"429.333 766.333 OFFCURVE",
"460 793 CURVE"
);
},
{
closed = 1;
nodes = (
"796 576.261 OFFCURVE",
"711.943 536 OFFCURVE",
"629 536 CURVE SMOOTH",
"550.333 536 OFFCURVE",
"485.333 558.333 OFFCURVE",
"452 597 CURVE",
"516.462 648.57 OFFCURVE",
"624.519 700 OFFCURVE",
"708 700 CURVE SMOOTH",
"748.708 700 OFFCURVE",
"796 695.708 OFFCURVE",
"796 651 CURVE SMOOTH"
);
}
);
userData = {
assembly = "PUSHW[ ]\011/* 4 values pushed */
72 5 58 4 
CALL[ ]\011/* CallFunction */
PUSHW[ ]\011/* 4 values pushed */
27 9 91 4 
CALL[ ]\011/* CallFunction */
PUSHW[ ]\011/* 4 values pushed */
14 5 102 4 
CALL[ ]\011/* CallFunction */
NPUSHW[ ]\011/* 15 values pushed */
150 27 166 27 182 27 198 27 214 27 230 27 246 27 7 
DELTAP1[ ]\011/* DeltaExceptionP1 */
NPUSHW[ ]\011/* 15 values pushed */
6 27 22 27 38 27 54 27 70 27 86 27 102 27 7 
DELTAP2[ ]\011/* DeltaExceptionP2 */
NPUSHW[ ]\011/* 5 values pushed */
117 27 133 27 2 
DELTAP2[ ]\011/* DeltaExceptionP2 */
NPUSHW[ ]\011/* 15 values pushed */
150 72 166 72 182 72 198 72 214 72 230 72 246 72 7 
DELTAP1[ ]\011/* DeltaExceptionP1 */
NPUSHW[ ]\011/* 33 values pushed */
6 72 22 72 38 72 54 72 70 72 86 72 102 72 118 72 134 72 150 72 166 72 182 72 198 72 214 72 230 72 246 72 16 
DELTAP2[ ]\011/* DeltaExceptionP2 */
NPUSHW[ ]\011/* 9 values pushed */
6 72 22 72 38 72 54 72 4 
DELTAP3[ ]\011/* DeltaExceptionP3 */
NPUSHW[ ]\011/* 5 values pushed */
69 72 85 72 2 
DELTAP3[ ]\011/* DeltaExceptionP3 */
PUSHW[ ]\011/* 1 value pushed */
72 
SRP0[ ]\011/* SetRefPoint0 */
PUSHW[ ]\011/* 1 value pushed */
74 
MDRP[10000]\011/* MoveDirectRelPt */
PUSHW[ ]\011/* 3 values pushed */
85 58 14 
SRP1[ ]\011/* SetRefPoint1 */
SRP2[ ]\011/* SetRefPoint2 */
IP[ ]\011/* InterpolatePts */
NPUSHW[ ]\011/* 5 values pushed */
74 102 90 102 2 
DELTAP3[ ]\011/* DeltaExceptionP3 */
NPUSHW[ ]\011/* 15 values pushed */
153 102 169 102 185 102 201 102 217 102 233 102 249 102 7 
DELTAP1[ ]\011/* DeltaExceptionP1 */
NPUSHW[ ]\011/* 33 values pushed */
9 102 25 102 41 102 57 102 73 102 89 102 105 102 121 102 137 102 153 102 169 102 185 102 201 102 217 102 233 102 249 102 16 
DELTAP2[ ]\011/* DeltaExceptionP2 */
NPUSHW[ ]\011/* 9 values pushed */
9 102 25 102 41 102 57 102 4 
DELTAP3[ ]\011/* DeltaExceptionP3 */
PUSHW[ ]\011/* 1 value pushed */
14 
SRP0[ ]\011/* SetRefPoint0 */
PUSHW[ ]\011/* 1 value pushed */
121 
MDRP[11100]\011/* MoveDirectRelPt */
SVTCA[0]\011/* SetFreedomAndProjectionVectorToAxis */
PUSHW[ ]\011/* 1 value pushed */
101 
MDAP[1]\011/* MoveDirectAbsPt */
PUSHW[ ]\011/* 1 value pushed */
0 
RCVT[ ]\011/* ReadCVT */
IF[ ]\011/* If */
PUSHW[ ]\011/* 1 value pushed */
79 
MDAP[1]\011/* MoveDirectAbsPt */
ELSE[ ]\011/* Else */
PUSHW[ ]\011/* 2 values pushed */
79 10 
MIAP[0]\011/* MoveIndirectAbsPt */
EIF[ ]\011/* EndIf */
PUSHW[ ]\011/* 1 value pushed */
0 
RCVT[ ]\011/* ReadCVT */
IF[ ]\011/* If */
PUSHW[ ]\011/* 1 value pushed */
53 
MDAP[1]\011/* MoveDirectAbsPt */
ELSE[ ]\011/* Else */
PUSHW[ ]\011/* 2 values pushed */
53 10 
MIAP[0]\011/* MoveIndirectAbsPt */
EIF[ ]\011/* EndIf */
PUSHW[ ]\011/* 3 values pushed */
9 19 3 
CALL[ ]\011/* CallFunction */
PUSHW[ ]\011/* 1 value pushed */
79 
SRP0[ ]\011/* SetRefPoint0 */
PUSHW[ ]\011/* 1 value pushed */
32 
MDRP[11100]\011/* MoveDirectRelPt */
NPUSHW[ ]\011/* 15 values pushed */
151 32 167 32 183 32 199 32 215 32 231 32 247 32 7 
DELTAP1[ ]\011/* DeltaExceptionP1 */
NPUSHW[ ]\011/* 13 values pushed */
7 32 23 32 39 32 55 32 71 32 87 32 6 
DELTAP2[ ]\011/* DeltaExceptionP2 */
NPUSHW[ ]\011/* 5 values pushed */
102 32 118 32 2 
DELTAP2[ ]\011/* DeltaExceptionP2 */
PUSHW[ ]\011/* 1 value pushed */
53 
SRP0[ ]\011/* SetRefPoint0 */
PUSHW[ ]\011/* 1 value pushed */
61 
MDRP[11100]\011/* MoveDirectRelPt */
NPUSHW[ ]\011/* 15 values pushed */
151 61 167 61 183 61 199 61 215 61 231 61 247 61 7 
DELTAP1[ ]\011/* DeltaExceptionP1 */
NPUSHW[ ]\011/* 13 values pushed */
7 61 23 61 39 61 55 61 71 61 87 61 6 
DELTAP2[ ]\011/* DeltaExceptionP2 */
NPUSHW[ ]\011/* 5 values pushed */
102 61 118 61 2 
DELTAP2[ ]\011/* DeltaExceptionP2 */
PUSHW[ ]\011/* 3 values pushed */
85 53 101 
SRP1[ ]\011/* SetRefPoint1 */
SRP2[ ]\011/* SetRefPoint2 */
IP[ ]\011/* InterpolatePts */
IUP[0]\011/* InterpolateUntPts */
IUP[1]\011/* InterpolateUntPts */";
};
width = 611;
}
);
note = G;
unicode = 0047;
},
{
glyphname = H;
lastChange = "2018-11-16 05:15:47 +0000";
layers = (
{
layerId = "C82BC34C-76D5-4A26-949B-BF353CFC0606";
paths = (
{
closed = 1;
nodes = (
"456 531 LINE",
"462.667 517.667 OFFCURVE",
"467 506.333 OFFCURVE",
"467 485 CURVE SMOOTH",
"467 409.09 OFFCURVE",
"381.239 353 OFFCURVE",
"310 353 CURVE SMOOTH",
"256.612 353 OFFCURVE",
"227 392.412 OFFCURVE",
"227 436 CURVE SMOOTH",
"227 513.333 OFFCURVE",
"288.333 578.667 OFFCURVE",
"395 624 CURVE SMOOTH",
"501.667 669.333 OFFCURVE",
"653.333 696 OFFCURVE",
"836 696 CURVE",
"836 694 LINE",
"741.333 672.667 OFFCURVE",
"670.5 622 OFFCURVE",
"612.5 558 CURVE SMOOTH",
"554.5 494 OFFCURVE",
"507 415.667 OFFCURVE",
"459 341 CURVE SMOOTH",
"435.691 304.372 OFFCURVE",
"394.773 236.276 OFFCURVE",
"368 195 CURVE SMOOTH",
"352 170.333 OFFCURVE",
"335.333 146.333 OFFCURVE",
"318 123 CURVE SMOOTH",
"281.495 73.859 OFFCURVE",
"199.636 4 OFFCURVE",
"146 4 CURVE SMOOTH",
"115.333 4 OFFCURVE",
"87.667 15 OFFCURVE",
"81 35 CURVE",
"99.667 35 OFFCURVE",
"112 45.667 OFFCURVE",
"112 67 CURVE SMOOTH",
"112 85.667 OFFCURVE",
"99 99 OFFCURVE",
"79 99 CURVE SMOOTH",
"56.333 99 OFFCURVE",
"38 82.667 OFFCURVE",
"38 60 CURVE SMOOTH",
"38 11.865 OFFCURVE",
"97.135 -8 OFFCURVE",
"141 -8 CURVE SMOOTH",
"229 -8 OFFCURVE",
"305.167 45.667 OFFCURVE",
"368.5 115 CURVE SMOOTH",
"431.833 184.333 OFFCURVE",
"483 271 OFFCURVE",
"523 335 CURVE",
"667 335 LINE",
"624.13 263.551 OFFCURVE",
"570 171.741 OFFCURVE",
"570 78 CURVE SMOOTH",
"570 24.373 OFFCURVE",
"595.189 -16 OFFCURVE",
"654 -16 CURVE SMOOTH",
"707.396 -16 OFFCURVE",
"795.319 50.961 OFFCURVE",
"836 96 CURVE SMOOTH",
"876 140.286 OFFCURVE",
"937.275 226.494 OFFCURVE",
"957 262 CURVE",
"948 266 LINE",
"884.115 160.344 OFFCURVE",
"755.947 0 OFFCURVE",
"668 0 CURVE SMOOTH",
"645.333 0 OFFCURVE",
"634 28.333 OFFCURVE",
"634 59 CURVE SMOOTH",
"634 132.333 OFFCURVE",
"668.167 226.833 OFFCURVE",
"719.5 319.5 CURVE SMOOTH",
"745.167 365.833 OFFCURVE",
"774.167 411.167 OFFCURVE",
"806.5 455.5 CURVE SMOOTH",
"871.167 544.167 OFFCURVE",
"939.333 614.5 OFFCURVE",
"1002 656.5 CURVE SMOOTH",
"1033.333 677.5 OFFCURVE",
"1060.667 688 OFFCURVE",
"1084 688 CURVE SMOOTH",
"1122.356 688 OFFCURVE",
"1125.08 632 OFFCURVE",
"1158 632 CURVE SMOOTH",
"1176.667 632 OFFCURVE",
"1190 646.333 OFFCURVE",
"1190 665 CURVE SMOOTH",
"1190 694.333 OFFCURVE",
"1161 712 OFFCURVE",
"1133 712 CURVE SMOOTH",
"1074.333 712 OFFCURVE",
"1013.667 686.667 OFFCURVE",
"955 648 CURVE SMOOTH",
"925.667 628.667 OFFCURVE",
"897.333 606.5 OFFCURVE",
"870 581.5 CURVE SMOOTH",
"815.333 531.5 OFFCURVE",
"766.167 475.5 OFFCURVE",
"725.5 421.5 CURVE SMOOTH",
"705.167 394.5 OFFCURVE",
"687.333 369.667 OFFCURVE",
"672 347 CURVE",
"528 347 LINE",
"597.333 465 OFFCURVE",
"661.167 552.667 OFFCURVE",
"719.5 610 CURVE SMOOTH",
"777.833 667.333 OFFCURVE",
"833 696 OFFCURVE",
"885 696 CURVE SMOOTH",
"902.333 696 OFFCURVE",
"915.333 696.667 OFFCURVE",
"924 698 CURVE SMOOTH",
"932.667 699.333 OFFCURVE",
"937 704 OFFCURVE",
"937 712 CURVE SMOOTH",
"937 720 OFFCURVE",
"928.667 722 OFFCURVE",
"922 722 CURVE SMOOTH",
"910.667 722 OFFCURVE",
"899 719.667 OFFCURVE",
"887 715 CURVE SMOOTH",
"875 710.333 OFFCURVE",
"860 708 OFFCURVE",
"842 708 CURVE SMOOTH",
"739.333 708 OFFCURVE",
"629.833 701.167 OFFCURVE",
"530.5 684.5 CURVE SMOOTH",
"480.833 676.167 OFFCURVE",
"434.333 665.333 OFFCURVE",
"391 652 CURVE SMOOTH",
"304.333 625.333 OFFCURVE",
"238.333 587 OFFCURVE",
"201 535 CURVE SMOOTH",
"182.333 509 OFFCURVE",
"173 479.667 OFFCURVE",
"173 447 CURVE SMOOTH",
"173 388.333 OFFCURVE",
"221.333 341 OFFCURVE",
"304 341 CURVE SMOOTH",
"386.113 341 OFFCURVE",
"479 402.135 OFFCURVE",
"479 487 CURVE SMOOTH",
"479 504.333 OFFCURVE",
"475.333 519.333 OFFCURVE",
"468 532 CURVE"
);
}
);
userData = {
assembly = "PUSHW[ ]\011/* 4 values pushed */
98 9 92 4 
CALL[ ]\011/* CallFunction */
PUSHW[ ]\011/* 4 values pushed */
122 4 10 4 
CALL[ ]\011/* CallFunction */
PUSHW[ ]\011/* 3 values pushed */
55 132 3 
CALL[ ]\011/* CallFunction */
NPUSHW[ ]\011/* 15 values pushed */
150 55 166 55 182 55 198 55 214 55 230 55 246 55 7 
DELTAP1[ ]\011/* DeltaExceptionP1 */
NPUSHW[ ]\011/* 13 values pushed */
6 55 22 55 38 55 54 55 70 55 86 55 6 
DELTAP2[ ]\011/* DeltaExceptionP2 */
NPUSHW[ ]\011/* 5 values pushed */
101 55 117 55 2 
DELTAP2[ ]\011/* DeltaExceptionP2 */
PUSHW[ ]\011/* 3 values pushed */
29 132 55 
SRP1[ ]\011/* SetRefPoint1 */
SRP2[ ]\011/* SetRefPoint2 */
IP[ ]\011/* InterpolatePts */
PUSHW[ ]\011/* 1 value pushed */
55 
SRP0[ ]\011/* SetRefPoint0 */
PUSHW[ ]\011/* 2 values pushed */
76 9 
MIRP[10100]\011/* MoveIndirectRelPt */
NPUSHW[ ]\011/* 15 values pushed */
150 98 166 98 182 98 198 98 214 98 230 98 246 98 7 
DELTAP1[ ]\011/* DeltaExceptionP1 */
NPUSHW[ ]\011/* 15 values pushed */
6 98 22 98 38 98 54 98 70 98 86 98 102 98 7 
DELTAP2[ ]\011/* DeltaExceptionP2 */
NPUSHW[ ]\011/* 5 values pushed */
117 98 133 98 2 
DELTAP2[ ]\011/* DeltaExceptionP2 */
PUSHW[ ]\011/* 3 values pushed */
101 92 98 
SRP1[ ]\011/* SetRefPoint1 */
SRP2[ ]\011/* SetRefPoint2 */
IP[ ]\011/* InterpolatePts */
NPUSHW[ ]\011/* 15 values pushed */
150 122 166 122 182 122 198 122 214 122 230 122 246 122 7 
DELTAP1[ ]\011/* DeltaExceptionP1 */
NPUSHW[ ]\011/* 15 values pushed */
6 122 22 122 38 122 54 122 70 122 86 122 102 122 7 
DELTAP2[ ]\011/* DeltaExceptionP2 */
NPUSHW[ ]\011/* 5 values pushed */
117 122 133 122 2 
DELTAP2[ ]\011/* DeltaExceptionP2 */
PUSHW[ ]\011/* 3 values pushed */
135 92 55 
SRP1[ ]\011/* SetRefPoint1 */
SRP2[ ]\011/* SetRefPoint2 */
IP[ ]\011/* InterpolatePts */
PUSHW[ ]\011/* 1 value pushed */
55 
SRP0[ ]\011/* SetRefPoint0 */
PUSHW[ ]\011/* 1 value pushed */
137 
MDRP[11100]\011/* MoveDirectRelPt */
SVTCA[0]\011/* SetFreedomAndProjectionVectorToAxis */
PUSHW[ ]\011/* 1 value pushed */
0 
RCVT[ ]\011/* ReadCVT */
IF[ ]\011/* If */
PUSHW[ ]\011/* 1 value pushed */
20 
MDAP[1]\011/* MoveDirectAbsPt */
ELSE[ ]\011/* Else */
PUSHW[ ]\011/* 2 values pushed */
20 16 
MIAP[0]\011/* MoveIndirectAbsPt */
EIF[ ]\011/* EndIf */
PUSHW[ ]\011/* 1 value pushed */
0 
RCVT[ ]\011/* ReadCVT */
IF[ ]\011/* If */
PUSHW[ ]\011/* 1 value pushed */
71 
MDAP[1]\011/* MoveDirectAbsPt */
ELSE[ ]\011/* Else */
PUSHW[ ]\011/* 2 values pushed */
71 10 
MIAP[0]\011/* MoveIndirectAbsPt */
EIF[ ]\011/* EndIf */
PUSHW[ ]\011/* 1 value pushed */
0 
RCVT[ ]\011/* ReadCVT */
IF[ ]\011/* If */
PUSHW[ ]\011/* 1 value pushed */
58 
MDAP[1]\011/* MoveDirectAbsPt */
ELSE[ ]\011/* Else */
PUSHW[ ]\011/* 2 values pushed */
58 10 
MIAP[0]\011/* MoveIndirectAbsPt */
EIF[ ]\011/* EndIf */
PUSHW[ ]\011/* 1 value pushed */
0 
RCVT[ ]\011/* ReadCVT */
IF[ ]\011/* If */
PUSHW[ ]\011/* 1 value pushed */
104 
MDAP[1]\011/* MoveDirectAbsPt */
ELSE[ ]\011/* Else */
PUSHW[ ]\011/* 2 values pushed */
104 10 
MIAP[0]\011/* MoveIndirectAbsPt */
EIF[ ]\011/* EndIf */
PUSHW[ ]\011/* 1 value pushed */
0 
RCVT[ ]\011/* ReadCVT */
IF[ ]\011/* If */
PUSHW[ ]\011/* 1 value pushed */
87 
MDAP[1]\011/* MoveDirectAbsPt */
ELSE[ ]\011/* Else */
PUSHW[ ]\011/* 2 values pushed */
87 10 
MIAP[0]\011/* MoveIndirectAbsPt */
EIF[ ]\011/* EndIf */
PUSHW[ ]\011/* 4 values pushed */
37 1 43 4 
CALL[ ]\011/* CallFunction */
PUSHW[ ]\011/* 1 value pushed */
37 
SRP0[ ]\011/* SetRefPoint0 */
PUSHW[ ]\011/* 1 value pushed */
17 
MDRP[10000]\011/* MoveDirectRelPt */
PUSHW[ ]\011/* 1 value pushed */
17 
MDAP[1]\011/* MoveDirectAbsPt */
PUSHW[ ]\011/* 3 values pushed */
29 71 20 
SRP1[ ]\011/* SetRefPoint1 */
SRP2[ ]\011/* SetRefPoint2 */
IP[ ]\011/* InterpolatePts */
PUSHW[ ]\011/* 3 values pushed */
81 71 20 
SRP1[ ]\011/* SetRefPoint1 */
SRP2[ ]\011/* SetRefPoint2 */
IP[ ]\011/* InterpolatePts */
PUSHW[ ]\011/* 1 value pushed */
87 
SRP0[ ]\011/* SetRefPoint0 */
PUSHW[ ]\011/* 2 values pushed */
95 1 
MIRP[10100]\011/* MoveIndirectRelPt */
NPUSHW[ ]\011/* 15 values pushed */
151 95 167 95 183 95 199 95 215 95 231 95 247 95 7 
DELTAP1[ ]\011/* DeltaExceptionP1 */
NPUSHW[ ]\011/* 15 values pushed */
7 95 23 95 39 95 55 95 71 95 87 95 103 95 7 
DELTAP2[ ]\011/* DeltaExceptionP2 */
NPUSHW[ ]\011/* 5 values pushed */
118 95 134 95 2 
DELTAP2[ ]\011/* DeltaExceptionP2 */
PUSHW[ ]\011/* 3 values pushed */
101 87 95 
SRP1[ ]\011/* SetRefPoint1 */
SRP2[ ]\011/* SetRefPoint2 */
IP[ ]\011/* InterpolatePts */
PUSHW[ ]\011/* 3 values pushed */
117 43 37 
SRP1[ ]\011/* SetRefPoint1 */
SRP2[ ]\011/* SetRefPoint2 */
IP[ ]\011/* InterpolatePts */
PUSHW[ ]\011/* 3 values pushed */
135 71 20 
SRP1[ ]\011/* SetRefPoint1 */
SRP2[ ]\011/* SetRefPoint2 */
IP[ ]\011/* InterpolatePts */
IUP[0]\011/* InterpolateUntPts */
IUP[1]\011/* InterpolateUntPts */";
};
width = 833;
}
);
note = H;
unicode = 0048;
},
{
glyphname = I;
lastChange = "2018-11-16 05:15:47 +0000";
layers = (
{
layerId = "C82BC34C-76D5-4A26-949B-BF353CFC0606";
paths = (
{
closed = 1;
nodes = (
"-15 23.743 OFFCURVE",
"75.016 -16 OFFCURVE",
"154 -16 CURVE SMOOTH",
"250 -16 OFFCURVE",
"331.333 21.5 OFFCURVE",
"402 83.5 CURVE SMOOTH",
"472.667 145.5 OFFCURVE",
"535 232.333 OFFCURVE",
"591 331 CURVE SMOOTH",
"648.333 431 OFFCURVE",
"703 516.333 OFFCURVE",
"751 575 CURVE SMOOTH",
"799 633.667 OFFCURVE",
"841.667 668 OFFCURVE",
"875 668 CURVE SMOOTH",
"910.333 668 OFFCURVE",
"934 669.167 OFFCURVE",
"946 671.5 CURVE SMOOTH",
"958 673.833 OFFCURVE",
"964 678.333 OFFCURVE",
"964 685 CURVE SMOOTH",
"964 695.667 OFFCURVE",
"956.333 696 OFFCURVE",
"947 696 CURVE SMOOTH",
"939.667 696 OFFCURVE",
"923 693 OFFCURVE",
"897 687 CURVE SMOOTH",
"871 681 OFFCURVE",
"836 678 OFFCURVE",
"792 678 CURVE SMOOTH",
"718.667 679.333 OFFCURVE",
"630 673.833 OFFCURVE",
"546 658.5 CURVE SMOOTH",
"504 650.833 OFFCURVE",
"463.667 640.667 OFFCURVE",
"425 628 CURVE SMOOTH",
"347.667 602.667 OFFCURVE",
"285.833 566.667 OFFCURVE",
"250.5 520 CURVE SMOOTH",
"232.833 496.667 OFFCURVE",
"224 470.333 OFFCURVE",
"224 441 CURVE SMOOTH",
"224 365 OFFCURVE",
"277.333 325 OFFCURVE",
"356 325 CURVE SMOOTH",
"444.975 325 OFFCURVE",
"525 392.216 OFFCURVE",
"525 472 CURVE SMOOTH",
"525 482.667 OFFCURVE",
"521.667 502 OFFCURVE",
"519 510 CURVE",
"508 508 LINE",
"511.333 498 OFFCURVE",
"513 485.333 OFFCURVE",
"513 470 CURVE SMOOTH",
"513 401.412 OFFCURVE",
"432.389 337 OFFCURVE",
"359 337 CURVE SMOOTH",
"305.667 337 OFFCURVE",
"272 369 OFFCURVE",
"272 425 CURVE SMOOTH",
"272 497 OFFCURVE",
"314.167 548 OFFCURVE",
"377.5 584 CURVE SMOOTH",
"409.167 602 OFFCURVE",
"445.167 616.333 OFFCURVE",
"485.5 627 CURVE SMOOTH",
"566.167 648.333 OFFCURVE",
"651.333 659 OFFCURVE",
"730 663 CURVE SMOOTH",
"769.333 665 OFFCURVE",
"804 666 OFFCURVE",
"834 666 CURVE",
"834 664 LINE",
"772.667 641.333 OFFCURVE",
"713.667 586.167 OFFCURVE",
"663 525.5 CURVE SMOOTH",
"620.461 474.566 OFFCURVE",
"567.073 393.397 OFFCURVE",
"538 351 CURVE SMOOTH",
"520.012 323.418 OFFCURVE",
"483.604 260.881 OFFCURVE",
"454.5 217.5 CURVE SMOOTH",
"436.833 191.167 OFFCURVE",
"417.5 164.833 OFFCURVE",
"396.5 138.5 CURVE SMOOTH",
"354.5 85.833 OFFCURVE",
"304.333 42.667 OFFCURVE",
"247 16 CURVE SMOOTH",
"218.333 2.667 OFFCURVE",
"188 -4 OFFCURVE",
"156 -4 CURVE SMOOTH",
"78.634 -4 OFFCURVE",
"22.509 38.289 OFFCURVE",
"34 90 CURVE",
"55.333 86 OFFCURVE",
"71 103.667 OFFCURVE",
"71 125 CURVE SMOOTH",
"71 146.333 OFFCURVE",
"56.667 160 OFFCURVE",
"34 160 CURVE SMOOTH",
"3.333 160 OFFCURVE",
"-15 136 OFFCURVE",
"-15 108 CURVE SMOOTH"
);
}
);
userData = {
assembly = "PUSHW[ ]\011/* 4 values pushed */
6 9 0 4 
CALL[ ]\011/* CallFunction */
PUSHW[ ]\011/* 4 values pushed */
34 7 56 4 
CALL[ ]\011/* CallFunction */
NPUSHW[ ]\011/* 15 values pushed */
150 6 166 6 182 6 198 6 214 6 230 6 246 6 7 
DELTAP1[ ]\011/* DeltaExceptionP1 */
NPUSHW[ ]\011/* 15 values pushed */
6 6 22 6 38 6 54 6 70 6 86 6 102 6 7 
DELTAP2[ ]\011/* DeltaExceptionP2 */
NPUSHW[ ]\011/* 5 values pushed */
117 6 133 6 2 
DELTAP2[ ]\011/* DeltaExceptionP2 */
NPUSHW[ ]\011/* 15 values pushed */
150 34 166 34 182 34 198 34 214 34 230 34 246 34 7 
DELTAP1[ ]\011/* DeltaExceptionP1 */
NPUSHW[ ]\011/* 33 values pushed */
6 34 22 34 38 34 54 34 70 34 86 34 102 34 118 34 134 34 150 34 166 34 182 34 198 34 214 34 230 34 246 34 16 
DELTAP2[ ]\011/* DeltaExceptionP2 */
NPUSHW[ ]\011/* 9 values pushed */
6 34 22 34 38 34 54 34 4 
DELTAP3[ ]\011/* DeltaExceptionP3 */
NPUSHW[ ]\011/* 5 values pushed */
69 34 85 34 2 
DELTAP3[ ]\011/* DeltaExceptionP3 */
SVTCA[0]\011/* SetFreedomAndProjectionVectorToAxis */
PUSHW[ ]\011/* 1 value pushed */
66 
MDAP[1]\011/* MoveDirectAbsPt */
PUSHW[ ]\011/* 1 value pushed */
0 
RCVT[ ]\011/* ReadCVT */
IF[ ]\011/* If */
PUSHW[ ]\011/* 1 value pushed */
14 
MDAP[1]\011/* MoveDirectAbsPt */
ELSE[ ]\011/* Else */
PUSHW[ ]\011/* 2 values pushed */
14 10 
MIAP[0]\011/* MoveIndirectAbsPt */
EIF[ ]\011/* EndIf */
PUSHW[ ]\011/* 1 value pushed */
0 
RCVT[ ]\011/* ReadCVT */
IF[ ]\011/* If */
PUSHW[ ]\011/* 1 value pushed */
82 
MDAP[1]\011/* MoveDirectAbsPt */
ELSE[ ]\011/* Else */
PUSHW[ ]\011/* 2 values pushed */
82 10 
MIAP[0]\011/* MoveIndirectAbsPt */
EIF[ ]\011/* EndIf */
PUSHW[ ]\011/* 1 value pushed */
3 
MDRP[11100]\011/* MoveDirectRelPt */
NPUSHW[ ]\011/* 15 values pushed */
151 3 167 3 183 3 199 3 215 3 231 3 247 3 7 
DELTAP1[ ]\011/* DeltaExceptionP1 */
NPUSHW[ ]\011/* 13 values pushed */
7 3 23 3 39 3 55 3 71 3 87 3 6 
DELTAP2[ ]\011/* DeltaExceptionP2 */
NPUSHW[ ]\011/* 5 values pushed */
102 3 118 3 2 
DELTAP2[ ]\011/* DeltaExceptionP2 */
PUSHW[ ]\011/* 3 values pushed */
27 82 66 
SRP1[ ]\011/* SetRefPoint1 */
SRP2[ ]\011/* SetRefPoint2 */
IP[ ]\011/* InterpolatePts */
IUP[0]\011/* InterpolateUntPts */
IUP[1]\011/* InterpolateUntPts */";
};
width = 611;
}
);
note = I;
unicode = 0049;
},
{
glyphname = J;
lastChange = "2018-11-16 05:15:47 +0000";
layers = (
{
layerId = "C82BC34C-76D5-4A26-949B-BF353CFC0606";
paths = (
{
closed = 1;
nodes = (
"499 500 LINE",
"503 485.333 OFFCURVE",
"505 472.333 OFFCURVE",
"505 461 CURVE SMOOTH",
"505 385.021 OFFCURVE",
"429.416 325 OFFCURVE",
"350 325 CURVE SMOOTH",
"290 325 OFFCURVE",
"263 366.333 OFFCURVE",
"263 413 CURVE SMOOTH",
"263 483.667 OFFCURVE",
"307.5 535.667 OFFCURVE",
"373.5 573 CURVE SMOOTH",
"406.5 591.667 OFFCURVE",
"443.833 606.833 OFFCURVE",
"485.5 618.5 CURVE SMOOTH",
"568.833 641.833 OFFCURVE",
"655.5 654.667 OFFCURVE",
"733.5 660 CURVE SMOOTH",
"772.5 662.667 OFFCURVE",
"806 664 OFFCURVE",
"834 664 CURVE",
"834 662 LINE",
"763.333 630 OFFCURVE",
"700.5 571.5 OFFCURVE",
"642.5 501.5 CURVE SMOOTH",
"613.5 466.5 OFFCURVE",
"586 428.833 OFFCURVE",
"560 388.5 CURVE SMOOTH",
"508 307.833 OFFCURVE",
"459.167 224.833 OFFCURVE",
"414.5 145.5 CURVE SMOOTH",
"392.167 105.833 OFFCURVE",
"370.333 69.333 OFFCURVE",
"349 36 CURVE",
"278.645 21.709 OFFCURVE",
"160.675 6.906 OFFCURVE",
"95.5 -3.5 CURVE SMOOTH",
"55.833 -9.833 OFFCURVE",
"18.833 -17 OFFCURVE",
"-15.5 -25 CURVE SMOOTH",
"-84.167 -41 OFFCURVE",
"-135.833 -66.167 OFFCURVE",
"-164.5 -105.5 CURVE SMOOTH",
"-178.833 -125.167 OFFCURVE",
"-186 -149.667 OFFCURVE",
"-186 -179 CURVE SMOOTH",
"-186 -253.304 OFFCURVE",
"-107.717 -298 OFFCURVE",
"-30 -298 CURVE SMOOTH",
"66 -298 OFFCURVE",
"149.833 -254 OFFCURVE",
"222.5 -190 CURVE SMOOTH",
"295.167 -126 OFFCURVE",
"356 -42.667 OFFCURVE",
"408 36 CURVE",
"574.359 82.069 OFFCURVE",
"651.832 136.622 OFFCURVE",
"737 263 CURVE",
"729 268 LINE",
"644.952 145.995 OFFCURVE",
"573.869 97.028 OFFCURVE",
"423 51 CURVE",
"421 53 LINE",
"454.703 100.434 OFFCURVE",
"513.78 204.789 OFFCURVE",
"557.5 279.5 CURVE SMOOTH",
"583.833 324.5 OFFCURVE",
"610.833 369.833 OFFCURVE",
"638.5 415.5 CURVE SMOOTH",
"693.833 506.833 OFFCURVE",
"747.667 583.5 OFFCURVE",
"797 629.5 CURVE SMOOTH",
"821.667 652.5 OFFCURVE",
"844 664 OFFCURVE",
"864 664 CURVE SMOOTH",
"900.285 664 OFFCURVE",
"956 664.147 OFFCURVE",
"956 684 CURVE SMOOTH",
"956 693.333 OFFCURVE",
"945.667 696 OFFCURVE",
"939 696 CURVE SMOOTH",
"925.667 696 OFFCURVE",
"907.833 692.667 OFFCURVE",
"885.5 686 CURVE SMOOTH",
"863.167 679.333 OFFCURVE",
"838.333 676 OFFCURVE",
"811 676 CURVE SMOOTH",
"757.667 676 OFFCURVE",
"674 672.333 OFFCURVE",
"586 659 CURVE SMOOTH",
"542 652.333 OFFCURVE",
"497.833 643.167 OFFCURVE",
"453.5 631.5 CURVE SMOOTH",
"364.833 608.167 OFFCURVE",
"292 571.167 OFFCURVE",
"248 518.5 CURVE SMOOTH",
"226 492.167 OFFCURVE",
"215 461 OFFCURVE",
"215 425 CURVE SMOOTH",
"215 358.333 OFFCURVE",
"264.667 313 OFFCURVE",
"350 313 CURVE SMOOTH",
"434.138 313 OFFCURVE",
"517 377.928 OFFCURVE",
"517 460 CURVE SMOOTH",
"517 472 OFFCURVE",
"515.333 487.667 OFFCURVE",
"510 501 CURVE"
);
},
{
closed = 1;
nodes = (
"-92 -286 OFFCURVE",
"-138 -255.667 OFFCURVE",
"-138 -181 CURVE SMOOTH",
"-138 -115.769 OFFCURVE",
"-52.644 -49.965 OFFCURVE",
"12.5 -33.5 CURVE SMOOTH",
"73.167 -18.167 OFFCURVE",
"144.5 -7.667 OFFCURVE",
"222.5 3 CURVE SMOOTH",
"261.5 8.333 OFFCURVE",
"300.667 15 OFFCURVE",
"340 23 CURVE",
"265.065 -96.896 OFFCURVE",
"128.724 -286 OFFCURVE",
"-32 -286 CURVE SMOOTH"
);
}
);
userData = {
assembly = "PUSHW[ ]\011/* 1 value pushed */
106 
MDAP[1]\011/* MoveDirectAbsPt */
PUSHW[ ]\011/* 1 value pushed */
11 
MDAP[1]\011/* MoveDirectAbsPt */
NPUSHW[ ]\011/* 5 values pushed */
74 11 90 11 2 
DELTAP3[ ]\011/* DeltaExceptionP3 */
NPUSHW[ ]\011/* 15 values pushed */
153 11 169 11 185 11 201 11 217 11 233 11 249 11 7 
DELTAP1[ ]\011/* DeltaExceptionP1 */
NPUSHW[ ]\011/* 33 values pushed */
9 11 25 11 41 11 57 11 73 11 89 11 105 11 121 11 137 11 153 11 169 11 185 11 201 11 217 11 233 11 249 11 16 
DELTAP2[ ]\011/* DeltaExceptionP2 */
NPUSHW[ ]\011/* 9 values pushed */
9 11 25 11 41 11 57 11 4 
DELTAP3[ ]\011/* DeltaExceptionP3 */
PUSHW[ ]\011/* 1 value pushed */
106 
SRP0[ ]\011/* SetRefPoint0 */
PUSHW[ ]\011/* 1 value pushed */
58 
MDRP[10000]\011/* MoveDirectRelPt */
PUSHW[ ]\011/* 1 value pushed */
58 
MDAP[1]\011/* MoveDirectAbsPt */
PUSHW[ ]\011/* 1 value pushed */
11 
SRP0[ ]\011/* SetRefPoint0 */
PUSHW[ ]\011/* 2 values pushed */
80 7 
MIRP[10100]\011/* MoveIndirectRelPt */
PUSHW[ ]\011/* 1 value pushed */
58 
SRP0[ ]\011/* SetRefPoint0 */
PUSHW[ ]\011/* 2 values pushed */
103 7 
MIRP[10100]\011/* MoveIndirectRelPt */
NPUSHW[ ]\011/* 15 values pushed */
150 103 166 103 182 103 198 103 214 103 230 103 246 103 7 
DELTAP1[ ]\011/* DeltaExceptionP1 */
NPUSHW[ ]\011/* 33 values pushed */
6 103 22 103 38 103 54 103 70 103 86 103 102 103 118 103 134 103 150 103 166 103 182 103 198 103 214 103 230 103 246 103 16 
DELTAP2[ ]\011/* DeltaExceptionP2 */
NPUSHW[ ]\011/* 9 values pushed */
6 103 22 103 38 103 54 103 4 
DELTAP3[ ]\011/* DeltaExceptionP3 */
NPUSHW[ ]\011/* 5 values pushed */
69 103 85 103 2 
DELTAP3[ ]\011/* DeltaExceptionP3 */
SVTCA[0]\011/* SetFreedomAndProjectionVectorToAxis */
PUSHW[ ]\011/* 1 value pushed */
53 
MDAP[1]\011/* MoveDirectAbsPt */
PUSHW[ ]\011/* 4 values pushed */
21 3 29 4 
CALL[ ]\011/* CallFunction */
PUSHW[ ]\011/* 1 value pushed */
29 
SRP0[ ]\011/* SetRefPoint0 */
PUSHW[ ]\011/* 1 value pushed */
73 
MDRP[10000]\011/* MoveDirectRelPt */
IUP[0]\011/* InterpolateUntPts */
IUP[1]\011/* InterpolateUntPts */";
};
width = 611;
}
);
note = J;
unicode = 004A;
},
{
glyphname = K;
lastChange = "2018-11-16 05:15:47 +0000";
layers = (
{
layerId = "C82BC34C-76D5-4A26-949B-BF353CFC0606";
paths = (
{
closed = 1;
nodes = (
"1008 266 LINE",
"982.639 230.885 OFFCURVE",
"907.143 149.296 OFFCURVE",
"863 108 CURVE SMOOTH",
"819.037 66.873 OFFCURVE",
"732.241 4 OFFCURVE",
"689 4 CURVE SMOOTH",
"670.333 4 OFFCURVE",
"658 12.333 OFFCURVE",
"658 39 CURVE SMOOTH",
"658 85.193 OFFCURVE",
"728 184.349 OFFCURVE",
"728 246 CURVE SMOOTH",
"728 299.333 OFFCURVE",
"711 330.333 OFFCURVE",
"667 353 CURVE",
"667 355 LINE",
"757.667 360.333 OFFCURVE",
"827.333 398.5 OFFCURVE",
"886 448.5 CURVE SMOOTH",
"915.333 473.5 OFFCURVE",
"942 500.167 OFFCURVE",
"966 528.5 CURVE SMOOTH",
"1017.898 589.768 OFFCURVE",
"1097.458 692 OFFCURVE",
"1152 692 CURVE SMOOTH",
"1185.333 692 OFFCURVE",
"1203 674.333 OFFCURVE",
"1203 649 CURVE SMOOTH",
"1203 634.333 OFFCURVE",
"1199.667 622 OFFCURVE",
"1189 614 CURVE",
"1190.333 608.667 OFFCURVE",
"1196 606 OFFCURVE",
"1206 606 CURVE SMOOTH",
"1226 606 OFFCURVE",
"1243 626.333 OFFCURVE",
"1243 649 CURVE SMOOTH",
"1243 683.667 OFFCURVE",
"1206.333 704 OFFCURVE",
"1153 704 CURVE SMOOTH",
"1087.667 704 OFFCURVE",
"1032 665.5 OFFCURVE",
"980 615.5 CURVE SMOOTH",
"954 590.5 OFFCURVE",
"928.5 563.167 OFFCURVE",
"903.5 533.5 CURVE SMOOTH",
"853.5 474.167 OFFCURVE",
"803 422.5 OFFCURVE",
"747 388.5 CURVE SMOOTH",
"719 371.5 OFFCURVE",
"689 363 OFFCURVE",
"657 363 CURVE SMOOTH",
"651 363 OFFCURVE",
"644.5 363.5 OFFCURVE",
"637.5 364.5 CURVE SMOOTH",
"630.5 365.5 OFFCURVE",
"624.333 366 OFFCURVE",
"619 366 CURVE SMOOTH",
"616.333 366 OFFCURVE",
"609 364.667 OFFCURVE",
"609 358 CURVE SMOOTH",
"609 352 OFFCURVE",
"613.667 349 OFFCURVE",
"623 349 CURVE SMOOTH",
"626.333 349 OFFCURVE",
"630 349.333 OFFCURVE",
"634 350 CURVE SMOOTH",
"638 350.667 OFFCURVE",
"641.667 351 OFFCURVE",
"645 351 CURVE SMOOTH",
"665 351 OFFCURVE",
"692 338.667 OFFCURVE",
"692 300 CURVE SMOOTH",
"692 228.622 OFFCURVE",
"604 125.861 OFFCURVE",
"604 56 CURVE SMOOTH",
"604 13.333 OFFCURVE",
"640.333 -8 OFFCURVE",
"679 -8 CURVE SMOOTH",
"727.435 -8 OFFCURVE",
"818.89 54.914 OFFCURVE",
"864 96.5 CURVE SMOOTH",
"908.834 137.831 OFFCURVE",
"985.741 224.321 OFFCURVE",
"1014 262 CURVE"
);
},
{
closed = 1;
nodes = (
"453 495 LINE",
"455.667 484.333 OFFCURVE",
"460 467.667 OFFCURVE",
"460 453 CURVE SMOOTH",
"460 386.183 OFFCURVE",
"383.95 322 OFFCURVE",
"301 322 CURVE SMOOTH",
"258.333 322 OFFCURVE",
"221 354.667 OFFCURVE",
"221 408 CURVE SMOOTH",
"221 485.333 OFFCURVE",
"273 541 OFFCURVE",
"349 581 CURVE SMOOTH",
"387 601 OFFCURVE",
"429.5 617.5 OFFCURVE",
"476.5 630.5 CURVE SMOOTH",
"570.5 656.5 OFFCURVE",
"666.167 670.333 OFFCURVE",
"749.5 677 CURVE SMOOTH",
"791.167 680.333 OFFCURVE",
"825.333 682 OFFCURVE",
"852 682 CURVE",
"852 680 LINE",
"778.667 660 OFFCURVE",
"720.333 619.667 OFFCURVE",
"667 561 CURVE SMOOTH",
"613.667 502.333 OFFCURVE",
"565 426.667 OFFCURVE",
"509 336 CURVE SMOOTH",
"485.931 298.65 OFFCURVE",
"445.667 230.056 OFFCURVE",
"419 189.5 CURVE SMOOTH",
"403 165.167 OFFCURVE",
"386.5 141.667 OFFCURVE",
"369.5 119 CURVE SMOOTH",
"333.338 70.783 OFFCURVE",
"252.862 4 OFFCURVE",
"202 4 CURVE SMOOTH",
"168.667 4 OFFCURVE",
"140 18.333 OFFCURVE",
"140 37 CURVE",
"154.667 37 OFFCURVE",
"165 53.667 OFFCURVE",
"165 67 CURVE SMOOTH",
"165 85.667 OFFCURVE",
"152 101 OFFCURVE",
"132 101 CURVE SMOOTH",
"109.333 101 OFFCURVE",
"93 83.667 OFFCURVE",
"93 61 CURVE SMOOTH",
"93 11.683 OFFCURVE",
"149.015 -8 OFFCURVE",
"196 -8 CURVE SMOOTH",
"278.667 -8 OFFCURVE",
"350.5 42.333 OFFCURVE",
"412.5 109 CURVE SMOOTH",
"474.5 175.667 OFFCURVE",
"526.667 258.667 OFFCURVE",
"568 324 CURVE SMOOTH",
"610.171 390.585 OFFCURVE",
"677.296 505.819 OFFCURVE",
"725.5 566.5 CURVE SMOOTH",
"782.167 637.833 OFFCURVE",
"847 688 OFFCURVE",
"927 688 CURVE SMOOTH",
"943.667 688 OFFCURVE",
"956.5 688.833 OFFCURVE",
"965.5 690.5 CURVE SMOOTH",
"974.5 692.167 OFFCURVE",
"979 696 OFFCURVE",
"979 702 CURVE SMOOTH",
"979 708.667 OFFCURVE",
"972 712 OFFCURVE",
"964 712 CURVE SMOOTH",
"960 712 OFFCURVE",
"954.333 710.833 OFFCURVE",
"947 708.5 CURVE SMOOTH",
"939.667 706.167 OFFCURVE",
"930.333 703.333 OFFCURVE",
"919 700 CURVE",
"901.667 696 OFFCURVE",
"879 690 OFFCURVE",
"855 690 CURVE SMOOTH",
"736.333 690 OFFCURVE",
"619.333 680 OFFCURVE",
"518 660 CURVE SMOOTH",
"467.333 650 OFFCURVE",
"420.5 637.5 OFFCURVE",
"377.5 622.5 CURVE SMOOTH",
"291.5 592.5 OFFCURVE",
"227.667 553.167 OFFCURVE",
"193 504.5 CURVE SMOOTH",
"175.667 480.167 OFFCURVE",
"167 453.667 OFFCURVE",
"167 425 CURVE SMOOTH",
"167 357.527 OFFCURVE",
"226.592 310 OFFCURVE",
"294 310 CURVE SMOOTH",
"396.219 310 OFFCURVE",
"472 382.478 OFFCURVE",
"472 451 CURVE SMOOTH",
"472 467.667 OFFCURVE",
"469 483.333 OFFCURVE",
"463 498 CURVE"
);
}
);
userData = {
assembly = "PUSHW[ ]\011/* 4 values pushed */
129 9 123 4 
CALL[ ]\011/* CallFunction */
PUSHW[ ]\011/* 4 values pushed */
66 4 10 4 
CALL[ ]\011/* CallFunction */
PUSHW[ ]\011/* 4 values pushed */
61 5 15 4 
CALL[ ]\011/* CallFunction */
PUSHW[ ]\011/* 4 values pushed */
39 5 47 4 
CALL[ ]\011/* CallFunction */
NPUSHW[ ]\011/* 5 values pushed */
74 15 90 15 2 
DELTAP3[ ]\011/* DeltaExceptionP3 */
NPUSHW[ ]\011/* 15 values pushed */
153 15 169 15 185 15 201 15 217 15 233 15 249 15 7 
DELTAP1[ ]\011/* DeltaExceptionP1 */
NPUSHW[ ]\011/* 33 values pushed */
9 15 25 15 41 15 57 15 73 15 89 15 105 15 121 15 137 15 153 15 169 15 185 15 201 15 217 15 233 15 249 15 16 
DELTAP2[ ]\011/* DeltaExceptionP2 */
NPUSHW[ ]\011/* 9 values pushed */
9 15 25 15 41 15 57 15 4 
DELTAP3[ ]\011/* DeltaExceptionP3 */
PUSHW[ ]\011/* 1 value pushed */
10 
SRP0[ ]\011/* SetRefPoint0 */
PUSHW[ ]\011/* 1 value pushed */
23 
MDRP[10000]\011/* MoveDirectRelPt */
PUSHW[ ]\011/* 1 value pushed */
23 
MDAP[1]\011/* MoveDirectAbsPt */
NPUSHW[ ]\011/* 5 values pushed */
74 47 90 47 2 
DELTAP3[ ]\011/* DeltaExceptionP3 */
NPUSHW[ ]\011/* 15 values pushed */
153 47 169 47 185 47 201 47 217 47 233 47 249 47 7 
DELTAP1[ ]\011/* DeltaExceptionP1 */
NPUSHW[ ]\011/* 33 values pushed */
9 47 25 47 41 47 57 47 73 47 89 47 105 47 121 47 137 47 153 47 169 47 185 47 201 47 217 47 233 47 249 47 16 
DELTAP2[ ]\011/* DeltaExceptionP2 */
NPUSHW[ ]\011/* 9 values pushed */
9 47 25 47 41 47 57 47 4 
DELTAP3[ ]\011/* DeltaExceptionP3 */
PUSHW[ ]\011/* 3 values pushed */
58 123 39 
SRP1[ ]\011/* SetRefPoint1 */
SRP2[ ]\011/* SetRefPoint2 */
IP[ ]\011/* InterpolatePts */
NPUSHW[ ]\011/* 15 values pushed */
150 66 166 66 182 66 198 66 214 66 230 66 246 66 7 
DELTAP1[ ]\011/* DeltaExceptionP1 */
NPUSHW[ ]\011/* 15 values pushed */
6 66 22 66 38 66 54 66 70 66 86 66 102 66 7 
DELTAP2[ ]\011/* DeltaExceptionP2 */
NPUSHW[ ]\011/* 5 values pushed */
117 66 133 66 2 
DELTAP2[ ]\011/* DeltaExceptionP2 */
NPUSHW[ ]\011/* 15 values pushed */
150 129 166 129 182 129 198 129 214 129 230 129 246 129 7 
DELTAP1[ ]\011/* DeltaExceptionP1 */
NPUSHW[ ]\011/* 15 values pushed */
6 129 22 129 38 129 54 129 70 129 86 129 102 129 7 
DELTAP2[ ]\011/* DeltaExceptionP2 */
NPUSHW[ ]\011/* 5 values pushed */
117 129 133 129 2 
DELTAP2[ ]\011/* DeltaExceptionP2 */
PUSHW[ ]\011/* 1 value pushed */
129 
SRP0[ ]\011/* SetRefPoint0 */
PUSHW[ ]\011/* 1 value pushed */
89 
MDRP[10000]\011/* MoveDirectRelPt */
PUSHW[ ]\011/* 1 value pushed */
89 
MDAP[1]\011/* MoveDirectAbsPt */
PUSHW[ ]\011/* 3 values pushed */
148 123 39 
SRP1[ ]\011/* SetRefPoint1 */
SRP2[ ]\011/* SetRefPoint2 */
IP[ ]\011/* InterpolatePts */
PUSHW[ ]\011/* 1 value pushed */
129 
SRP0[ ]\011/* SetRefPoint0 */
PUSHW[ ]\011/* 2 values pushed */
155 4 
MIRP[10100]\011/* MoveIndirectRelPt */
PUSHW[ ]\011/* 1 value pushed */
39 
SRP0[ ]\011/* SetRefPoint0 */
PUSHW[ ]\011/* 1 value pushed */
168 
MDRP[11100]\011/* MoveDirectRelPt */
SVTCA[0]\011/* SetFreedomAndProjectionVectorToAxis */
PUSHW[ ]\011/* 1 value pushed */
102 
MDAP[1]\011/* MoveDirectAbsPt */
PUSHW[ ]\011/* 1 value pushed */
0 
RCVT[ ]\011/* ReadCVT */
IF[ ]\011/* If */
PUSHW[ ]\011/* 1 value pushed */
7 
MDAP[1]\011/* MoveDirectAbsPt */
ELSE[ ]\011/* Else */
PUSHW[ ]\011/* 2 values pushed */
7 10 
MIAP[0]\011/* MoveIndirectAbsPt */
EIF[ ]\011/* EndIf */
PUSHW[ ]\011/* 1 value pushed */
0 
RCVT[ ]\011/* ReadCVT */
IF[ ]\011/* If */
PUSHW[ ]\011/* 1 value pushed */
118 
MDAP[1]\011/* MoveDirectAbsPt */
ELSE[ ]\011/* Else */
PUSHW[ ]\011/* 2 values pushed */
118 10 
MIAP[0]\011/* MoveIndirectAbsPt */
EIF[ ]\011/* EndIf */
PUSHW[ ]\011/* 4 values pushed */
36 2 148 4 
CALL[ ]\011/* CallFunction */
PUSHW[ ]\011/* 1 value pushed */
36 
SRP0[ ]\011/* SetRefPoint0 */
PUSHW[ ]\011/* 2 values pushed */
42 1 
MIRP[10100]\011/* MoveIndirectRelPt */
PUSHW[ ]\011/* 3 values pushed */
58 7 102 
SRP1[ ]\011/* SetRefPoint1 */
SRP2[ ]\011/* SetRefPoint2 */
IP[ ]\011/* InterpolatePts */
PUSHW[ ]\011/* 1 value pushed */
148 
SRP0[ ]\011/* SetRefPoint0 */
PUSHW[ ]\011/* 1 value pushed */
108 
MDRP[10000]\011/* MoveDirectRelPt */
PUSHW[ ]\011/* 1 value pushed */
108 
MDAP[1]\011/* MoveDirectAbsPt */
PUSHW[ ]\011/* 1 value pushed */
118 
SRP0[ ]\011/* SetRefPoint0 */
PUSHW[ ]\011/* 2 values pushed */
126 1 
MIRP[10100]\011/* MoveIndirectRelPt */
NPUSHW[ ]\011/* 15 values pushed */
151 126 167 126 183 126 199 126 215 126 231 126 247 126 7 
DELTAP1[ ]\011/* DeltaExceptionP1 */
NPUSHW[ ]\011/* 15 values pushed */
7 126 23 126 39 126 55 126 71 126 87 126 103 126 7 
DELTAP2[ ]\011/* DeltaExceptionP2 */
NPUSHW[ ]\011/* 5 values pushed */
118 126 134 126 2 
DELTAP2[ ]\011/* DeltaExceptionP2 */
IUP[0]\011/* InterpolateUntPts */
IUP[1]\011/* InterpolateUntPts */";
};
width = 889;
}
);
note = K;
unicode = 004B;
},
{
glyphname = L;
lastChange = "2018-11-16 05:15:47 +0000";
layers = (
{
layerId = "C82BC34C-76D5-4A26-949B-BF353CFC0606";
paths = (
{
closed = 1;
nodes = (
"676 265 LINE",
"627.363 220.784 OFFCURVE",
"541.283 143.837 OFFCURVE",
"489 97 CURVE SMOOTH",
"425 39.667 OFFCURVE",
"362.333 -19 OFFCURVE",
"309 -79 CURVE",
"299.667 -15 OFFCURVE",
"257.667 35 OFFCURVE",
"167 35 CURVE SMOOTH",
"149.667 35 OFFCURVE",
"137.667 33.333 OFFCURVE",
"127 32 CURVE",
"125 34 LINE",
"217 70 OFFCURVE",
"286.167 134.5 OFFCURVE",
"345.5 208.5 CURVE SMOOTH",
"394.348 269.423 OFFCURVE",
"461.006 380.74 OFFCURVE",
"502 445 CURVE",
"519.333 443.667 OFFCURVE",
"533.333 443 OFFCURVE",
"556 443 CURVE SMOOTH",
"650.667 443 OFFCURVE",
"735.833 470.167 OFFCURVE",
"796.5 509.5 CURVE SMOOTH",
"857.167 548.833 OFFCURVE",
"894 598 OFFCURVE",
"894 642 CURVE SMOOTH",
"894 690 OFFCURVE",
"861.667 712 OFFCURVE",
"811 712 CURVE SMOOTH",
"670.54 712 OFFCURVE",
"528.186 581 OFFCURVE",
"452 464 CURVE",
"373.174 469.255 OFFCURVE",
"300 531.984 OFFCURVE",
"300 607 CURVE SMOOTH",
"300 654.991 OFFCURVE",
"340.628 700 OFFCURVE",
"394 700 CURVE SMOOTH",
"419.333 700 OFFCURVE",
"441 694 OFFCURVE",
"457 686 CURVE",
"461 697 LINE",
"445 705 OFFCURVE",
"420.333 712 OFFCURVE",
"395 712 CURVE SMOOTH",
"336.196 712 OFFCURVE",
"288 664.486 OFFCURVE",
"288 607 CURVE SMOOTH",
"288 521.813 OFFCURVE",
"359.186 465.518 OFFCURVE",
"443 452 CURVE",
"396.798 378.937 OFFCURVE",
"326.769 255.97 OFFCURVE",
"283 192 CURVE SMOOTH",
"231 116 OFFCURVE",
"176.667 57.333 OFFCURVE",
"110 36 CURVE",
"98.934 34.77 OFFCURVE",
"20.536 30.959 OFFCURVE",
"-1.5 29 CURVE SMOOTH",
"-33.634 26.144 OFFCURVE",
"-86 17.183 OFFCURVE",
"-86 0 CURVE SMOOTH",
"-86 -10.667 OFFCURVE",
"-73 -16 OFFCURVE",
"-57 -16 CURVE SMOOTH",
"-1.962 -16 OFFCURVE",
"81.134 24 OFFCURVE",
"110 24 CURVE SMOOTH",
"192.175 24 OFFCURVE",
"254 -23.639 OFFCURVE",
"254 -108 CURVE SMOOTH",
"254 -131.035 OFFCURVE",
"230 -139.05 OFFCURVE",
"230 -157 CURVE SMOOTH",
"230 -164.333 OFFCURVE",
"234.333 -168 OFFCURVE",
"243 -168 CURVE SMOOTH",
"265.667 -168 OFFCURVE",
"292.333 -135.667 OFFCURVE",
"307 -97 CURVE",
"347 -50.333 OFFCURVE",
"416.833 17.333 OFFCURVE",
"489.5 84 CURVE SMOOTH",
"550.965 140.39 OFFCURVE",
"638.534 219.032 OFFCURVE",
"681 259 CURVE"
);
},
{
closed = 1;
nodes = (
"838.667 700 OFFCURVE",
"860 679.667 OFFCURVE",
"860 641 CURVE SMOOTH",
"860 522.121 OFFCURVE",
"681.553 455 OFFCURVE",
"558 455 CURVE SMOOTH",
"536.667 455 OFFCURVE",
"521.667 455.667 OFFCURVE",
"507 457 CURVE",
"565.388 557.093 OFFCURVE",
"681.59 700 OFFCURVE",
"800 700 CURVE SMOOTH"
);
}
);
userData = {
assembly = "PUSHW[ ]\011/* 4 values pushed */
75 5 114 4 
CALL[ ]\011/* CallFunction */
NPUSHW[ ]\011/* 5 values pushed */
74 114 90 114 2 
DELTAP3[ ]\011/* DeltaExceptionP3 */
NPUSHW[ ]\011/* 15 values pushed */
153 114 169 114 185 114 201 114 217 114 233 114 249 114 7 
DELTAP1[ ]\011/* DeltaExceptionP1 */
NPUSHW[ ]\011/* 33 values pushed */
9 114 25 114 41 114 57 114 73 114 89 114 105 114 121 114 137 114 153 114 169 114 185 114 201 114 217 114 233 114 249 114 16 
DELTAP2[ ]\011/* DeltaExceptionP2 */
NPUSHW[ ]\011/* 9 values pushed */
9 114 25 114 41 114 57 114 4 
DELTAP3[ ]\011/* DeltaExceptionP3 */
PUSHW[ ]\011/* 1 value pushed */
75 
SRP0[ ]\011/* SetRefPoint0 */
PUSHW[ ]\011/* 1 value pushed */
118 
MDRP[11100]\011/* MoveDirectRelPt */
SVTCA[0]\011/* SetFreedomAndProjectionVectorToAxis */
PUSHW[ ]\011/* 1 value pushed */
50 
MDAP[1]\011/* MoveDirectAbsPt */
PUSHW[ ]\011/* 1 value pushed */
72 
MDAP[1]\011/* MoveDirectAbsPt */
PUSHW[ ]\011/* 1 value pushed */
0 
RCVT[ ]\011/* ReadCVT */
IF[ ]\011/* If */
PUSHW[ ]\011/* 1 value pushed */
25 
MDAP[1]\011/* MoveDirectAbsPt */
ELSE[ ]\011/* Else */
PUSHW[ ]\011/* 2 values pushed */
25 10 
MIAP[0]\011/* MoveIndirectAbsPt */
EIF[ ]\011/* EndIf */
PUSHW[ ]\011/* 3 values pushed */
92 8 3 
CALL[ ]\011/* CallFunction */
PUSHW[ ]\011/* 3 values pushed */
40 25 50 
SRP1[ ]\011/* SetRefPoint1 */
SRP2[ ]\011/* SetRefPoint2 */
IP[ ]\011/* InterpolatePts */
PUSHW[ ]\011/* 1 value pushed */
92 
SRP0[ ]\011/* SetRefPoint0 */
PUSHW[ ]\011/* 1 value pushed */
89 
MDRP[10000]\011/* MoveDirectRelPt */
PUSHW[ ]\011/* 1 value pushed */
89 
MDAP[1]\011/* MoveDirectAbsPt */
PUSHW[ ]\011/* 3 values pushed */
95 8 92 
SRP1[ ]\011/* SetRefPoint1 */
SRP2[ ]\011/* SetRefPoint2 */
IP[ ]\011/* InterpolatePts */
PUSHW[ ]\011/* 3 values pushed */
106 25 50 
SRP1[ ]\011/* SetRefPoint1 */
SRP2[ ]\011/* SetRefPoint2 */
IP[ ]\011/* InterpolatePts */
IUP[0]\011/* InterpolateUntPts */
IUP[1]\011/* InterpolateUntPts */";
};
width = 556;
}
);
note = L;
unicode = 004C;
},
{
glyphname = M;
lastChange = "2018-11-16 05:15:47 +0000";
layers = (
{
layerId = "C82BC34C-76D5-4A26-949B-BF353CFC0606";
paths = (
{
closed = 1;
nodes = (
"1115 271 LINE",
"1033.667 96.333 OFFCURVE",
"893.667 8 OFFCURVE",
"691 8 CURVE",
"691 10 LINE",
"776.333 47.333 OFFCURVE",
"833.667 104.5 OFFCURVE",
"875 166.5 CURVE SMOOTH",
"916.333 228.5 OFFCURVE",
"942.667 295.667 OFFCURVE",
"964 353 CURVE",
"981.006 393.388 OFFCURVE",
"1038.825 520.072 OFFCURVE",
"1058 554.5 CURVE SMOOTH",
"1089.658 611.34 OFFCURVE",
"1153.822 698 OFFCURVE",
"1197 698 CURVE SMOOTH",
"1207 698 OFFCURVE",
"1217.167 696.833 OFFCURVE",
"1227.5 694.5 CURVE SMOOTH",
"1237.833 692.167 OFFCURVE",
"1247.667 691 OFFCURVE",
"1257 691 CURVE SMOOTH",
"1267.667 691 OFFCURVE",
"1277 692.333 OFFCURVE",
"1277 703 CURVE SMOOTH",
"1277 716.333 OFFCURVE",
"1254 722 OFFCURVE",
"1234 722 CURVE SMOOTH",
"1182 722 OFFCURVE",
"1122.333 709.833 OFFCURVE",
"1049 662.5 CURVE SMOOTH",
"975.667 615.167 OFFCURVE",
"890 532.667 OFFCURVE",
"786 390 CURVE SMOOTH",
"753.484 345.15 OFFCURVE",
"693.767 259.971 OFFCURVE",
"654 207.5 CURVE SMOOTH",
"606 144.167 OFFCURVE",
"555.333 83.667 OFFCURVE",
"506 41 CURVE",
"504 43 LINE",
"558.667 116.333 OFFCURVE",
"591.5 205.5 OFFCURVE",
"621.5 295.5 CURVE SMOOTH",
"636.5 340.5 OFFCURVE",
"651.167 385 OFFCURVE",
"665.5 429 CURVE SMOOTH",
"694.167 517 OFFCURVE",
"732.333 593.167 OFFCURVE",
"787 648.5 CURVE SMOOTH",
"814.333 676.167 OFFCURVE",
"848.667 696.333 OFFCURVE",
"890 709 CURVE",
"889 718 LINE",
"781 696.667 OFFCURVE",
"698.667 648.833 OFFCURVE",
"628 581.5 CURVE SMOOTH",
"557.333 514.167 OFFCURVE",
"498.333 427.333 OFFCURVE",
"437 330 CURVE SMOOTH",
"394.782 261.801 OFFCURVE",
"330.746 155.916 OFFCURVE",
"289.5 104.5 CURVE SMOOTH",
"240.833 43.833 OFFCURVE",
"191.667 4 OFFCURVE",
"133 4 CURVE SMOOTH",
"119.667 4 OFFCURVE",
"101.333 10 OFFCURVE",
"100 18 CURVE",
"110.667 20.667 OFFCURVE",
"115 35.333 OFFCURVE",
"115 46 CURVE SMOOTH",
"115 63.333 OFFCURVE",
"103.333 79 OFFCURVE",
"86 79 CURVE SMOOTH",
"66 79 OFFCURVE",
"51 64 OFFCURVE",
"51 44 CURVE SMOOTH",
"51 3.361 OFFCURVE",
"86.699 -8 OFFCURVE",
"123 -8 CURVE SMOOTH",
"191 -8 OFFCURVE",
"244 28.833 OFFCURVE",
"292 85.5 CURVE SMOOTH",
"332.71 133.561 OFFCURVE",
"392.848 234.889 OFFCURVE",
"433 300 CURVE SMOOTH",
"482.333 380 OFFCURVE",
"534.333 463.5 OFFCURVE",
"597 533.5 CURVE SMOOTH",
"659.667 603.5 OFFCURVE",
"732 661.667 OFFCURVE",
"820 691 CURVE",
"822 689 LINE",
"732.667 643.667 OFFCURVE",
"676.833 576.333 OFFCURVE",
"637.5 499 CURVE SMOOTH",
"617.833 460.333 OFFCURVE",
"601.667 419.667 OFFCURVE",
"589 377 CURVE SMOOTH",
"568.737 308.747 OFFCURVE",
"534.855 188.434 OFFCURVE",
"511.5 120 CURVE SMOOTH",
"497.167 78 OFFCURVE",
"478.333 38.667 OFFCURVE",
"455 2 CURVE",
"462 -8 LINE",
"530 41.333 OFFCURVE",
"586.333 101.167 OFFCURVE",
"637 164.5 CURVE SMOOTH",
"687.667 227.833 OFFCURVE",
"734.667 296 OFFCURVE",
"780 360 CURVE SMOOTH",
"838.667 441.333 OFFCURVE",
"904.5 520.5 OFFCURVE",
"970.5 582.5 CURVE SMOOTH",
"1036.5 644.5 OFFCURVE",
"1103.667 688.667 OFFCURVE",
"1161 698 CURVE",
"1163 696 LINE",
"1076.333 660 OFFCURVE",
"1019.5 584.167 OFFCURVE",
"973.5 495.5 CURVE SMOOTH",
"950.5 451.167 OFFCURVE",
"929.5 404.333 OFFCURVE",
"910.5 355 CURVE SMOOTH",
"872.5 256.333 OFFCURVE",
"830 164.167 OFFCURVE",
"774 91.5 CURVE SMOOTH",
"746 55.167 OFFCURVE",
"712 27.333 OFFCURVE",
"672 8 CURVE",
"662.667 9.333 OFFCURVE",
"653.667 10.667 OFFCURVE",
"645 12 CURVE SMOOTH",
"636.333 13.333 OFFCURVE",
"627.333 14 OFFCURVE",
"618 14 CURVE SMOOTH",
"611.333 14 OFFCURVE",
"596 13.667 OFFCURVE",
"596 3 CURVE SMOOTH",
"596 -5 OFFCURVE",
"605 -8 OFFCURVE",
"617 -8 CURVE SMOOTH",
"628.576 -8 OFFCURVE",
"670.487 0 OFFCURVE",
"702 0 CURVE SMOOTH",
"792.667 0 OFFCURVE",
"878 21 OFFCURVE",
"950 65 CURVE SMOOTH",
"1022 109 OFFCURVE",
"1081.667 177 OFFCURVE",
"1123 269 CURVE"
);
}
);
userData = {
assembly = "PUSHW[ ]\011/* 4 values pushed */
66 9 60 4 
CALL[ ]\011/* CallFunction */
NPUSHW[ ]\011/* 15 values pushed */
150 66 166 66 182 66 198 66 214 66 230 66 246 66 7 
DELTAP1[ ]\011/* DeltaExceptionP1 */
NPUSHW[ ]\011/* 15 values pushed */
6 66 22 66 38 66 54 66 70 66 86 66 102 66 7 
DELTAP2[ ]\011/* DeltaExceptionP2 */
NPUSHW[ ]\011/* 5 values pushed */
117 66 133 66 2 
DELTAP2[ ]\011/* DeltaExceptionP2 */
SVTCA[0]\011/* SetFreedomAndProjectionVectorToAxis */
PUSHW[ ]\011/* 1 value pushed */
0 
RCVT[ ]\011/* ReadCVT */
IF[ ]\011/* If */
PUSHW[ ]\011/* 1 value pushed */
82 
MDAP[1]\011/* MoveDirectAbsPt */
ELSE[ ]\011/* Else */
PUSHW[ ]\011/* 2 values pushed */
82 16 
MIAP[0]\011/* MoveIndirectAbsPt */
EIF[ ]\011/* EndIf */
PUSHW[ ]\011/* 1 value pushed */
0 
RCVT[ ]\011/* ReadCVT */
IF[ ]\011/* If */
PUSHW[ ]\011/* 1 value pushed */
101 
MDAP[1]\011/* MoveDirectAbsPt */
ELSE[ ]\011/* Else */
PUSHW[ ]\011/* 2 values pushed */
101 16 
MIAP[0]\011/* MoveIndirectAbsPt */
EIF[ ]\011/* EndIf */
PUSHW[ ]\011/* 1 value pushed */
0 
RCVT[ ]\011/* ReadCVT */
IF[ ]\011/* If */
PUSHW[ ]\011/* 1 value pushed */
5 
MDAP[1]\011/* MoveDirectAbsPt */
ELSE[ ]\011/* Else */
PUSHW[ ]\011/* 2 values pushed */
5 10 
MIAP[0]\011/* MoveIndirectAbsPt */
EIF[ ]\011/* EndIf */
PUSHW[ ]\011/* 1 value pushed */
0 
RCVT[ ]\011/* ReadCVT */
IF[ ]\011/* If */
PUSHW[ ]\011/* 1 value pushed */
13 
MDAP[1]\011/* MoveDirectAbsPt */
ELSE[ ]\011/* Else */
PUSHW[ ]\011/* 2 values pushed */
13 10 
MIAP[0]\011/* MoveIndirectAbsPt */
EIF[ ]\011/* EndIf */
PUSHW[ ]\011/* 1 value pushed */
0 
RCVT[ ]\011/* ReadCVT */
IF[ ]\011/* If */
PUSHW[ ]\011/* 1 value pushed */
38 
MDAP[1]\011/* MoveDirectAbsPt */
ELSE[ ]\011/* Else */
PUSHW[ ]\011/* 2 values pushed */
38 10 
MIAP[0]\011/* MoveIndirectAbsPt */
EIF[ ]\011/* EndIf */
PUSHW[ ]\011/* 1 value pushed */
0 
RCVT[ ]\011/* ReadCVT */
IF[ ]\011/* If */
PUSHW[ ]\011/* 1 value pushed */
72 
MDAP[1]\011/* MoveDirectAbsPt */
ELSE[ ]\011/* Else */
PUSHW[ ]\011/* 2 values pushed */
72 10 
MIAP[0]\011/* MoveIndirectAbsPt */
EIF[ ]\011/* EndIf */
PUSHW[ ]\011/* 1 value pushed */
0 
RCVT[ ]\011/* ReadCVT */
IF[ ]\011/* If */
PUSHW[ ]\011/* 1 value pushed */
10 
MDAP[1]\011/* MoveDirectAbsPt */
ELSE[ ]\011/* Else */
PUSHW[ ]\011/* 2 values pushed */
10 10 
MIAP[0]\011/* MoveIndirectAbsPt */
EIF[ ]\011/* EndIf */
PUSHW[ ]\011/* 1 value pushed */
0 
RCVT[ ]\011/* ReadCVT */
IF[ ]\011/* If */
PUSHW[ ]\011/* 1 value pushed */
37 
MDAP[1]\011/* MoveDirectAbsPt */
ELSE[ ]\011/* Else */
PUSHW[ ]\011/* 2 values pushed */
37 10 
MIAP[0]\011/* MoveIndirectAbsPt */
EIF[ ]\011/* EndIf */
PUSHW[ ]\011/* 1 value pushed */
0 
RCVT[ ]\011/* ReadCVT */
IF[ ]\011/* If */
PUSHW[ ]\011/* 1 value pushed */
55 
MDAP[1]\011/* MoveDirectAbsPt */
ELSE[ ]\011/* Else */
PUSHW[ ]\011/* 2 values pushed */
55 10 
MIAP[0]\011/* MoveIndirectAbsPt */
EIF[ ]\011/* EndIf */
PUSHW[ ]\011/* 1 value pushed */
101 
SRP0[ ]\011/* SetRefPoint0 */
PUSHW[ ]\011/* 2 values pushed */
27 2 
MIRP[10100]\011/* MoveIndirectRelPt */
NPUSHW[ ]\011/* 15 values pushed */
152 27 168 27 184 27 200 27 216 27 232 27 248 27 7 
DELTAP1[ ]\011/* DeltaExceptionP1 */
NPUSHW[ ]\011/* 33 values pushed */
8 27 24 27 40 27 56 27 72 27 88 27 104 27 120 27 136 27 152 27 168 27 184 27 200 27 216 27 232 27 248 27 16 
DELTAP2[ ]\011/* DeltaExceptionP2 */
NPUSHW[ ]\011/* 33 values pushed */
8 27 24 27 40 27 56 27 72 27 88 27 104 27 120 27 136 27 152 27 168 27 184 27 200 27 216 27 232 27 248 27 16 
DELTAP3[ ]\011/* DeltaExceptionP3 */
PUSHW[ ]\011/* 3 values pushed */
46 10 101 
SRP1[ ]\011/* SetRefPoint1 */
SRP2[ ]\011/* SetRefPoint2 */
IP[ ]\011/* InterpolatePts */
PUSHW[ ]\011/* 1 value pushed */
55 
SRP0[ ]\011/* SetRefPoint0 */
PUSHW[ ]\011/* 2 values pushed */
63 1 
MIRP[10100]\011/* MoveIndirectRelPt */
NPUSHW[ ]\011/* 15 values pushed */
151 63 167 63 183 63 199 63 215 63 231 63 247 63 7 
DELTAP1[ ]\011/* DeltaExceptionP1 */
NPUSHW[ ]\011/* 15 values pushed */
7 63 23 63 39 63 55 63 71 63 87 63 103 63 7 
DELTAP2[ ]\011/* DeltaExceptionP2 */
NPUSHW[ ]\011/* 5 values pushed */
118 63 134 63 2 
DELTAP2[ ]\011/* DeltaExceptionP2 */
PUSHW[ ]\011/* 3 values pushed */
91 55 63 
SRP1[ ]\011/* SetRefPoint1 */
SRP2[ ]\011/* SetRefPoint2 */
IP[ ]\011/* InterpolatePts */
PUSHW[ ]\011/* 1 value pushed */
27 
SRP0[ ]\011/* SetRefPoint0 */
PUSHW[ ]\011/* 1 value pushed */
107 
MDRP[10000]\011/* MoveDirectRelPt */
PUSHW[ ]\011/* 1 value pushed */
107 
MDAP[1]\011/* MoveDirectAbsPt */
PUSHW[ ]\011/* 1 value pushed */
110 
MDRP[10000]\011/* MoveDirectRelPt */
PUSHW[ ]\011/* 3 values pushed */
123 55 63 
SRP1[ ]\011/* SetRefPoint1 */
SRP2[ ]\011/* SetRefPoint2 */
IP[ ]\011/* InterpolatePts */
IUP[0]\011/* InterpolateUntPts */
IUP[1]\011/* InterpolateUntPts */";
};
width = 1000;
}
);
note = M;
unicode = 004D;
},
{
glyphname = N;
lastChange = "2018-11-16 05:15:47 +0000";
layers = (
{
layerId = "C82BC34C-76D5-4A26-949B-BF353CFC0606";
paths = (
{
closed = 1;
nodes = (
"1004 543 LINE",
"1044.848 556.616 OFFCURVE",
"1088 593.668 OFFCURVE",
"1088 639 CURVE SMOOTH",
"1088 676.333 OFFCURVE",
"1058.333 704 OFFCURVE",
"1013 704 CURVE SMOOTH",
"921.358 704 OFFCURVE",
"819.727 588.757 OFFCURVE",
"738 465 CURVE SMOOTH",
"670.55 361.015 OFFCURVE",
"595.254 204.676 OFFCURVE",
"545 93 CURVE",
"543 95 LINE",
"556.333 143 OFFCURVE",
"561 183.333 OFFCURVE",
"561 222 CURVE SMOOTH",
"561 351.899 OFFCURVE",
"523 464.681 OFFCURVE",
"523 574 CURVE SMOOTH",
"523 654.242 OFFCURVE",
"531.385 649.951 OFFCURVE",
"550 712 CURVE",
"512.505 712 OFFCURVE",
"498.011 662.053 OFFCURVE",
"492 632 CURVE",
"458.667 556 OFFCURVE",
"415.167 461 OFFCURVE",
"366.5 369 CURVE SMOOTH",
"342.167 323 OFFCURVE",
"316.5 278.167 OFFCURVE",
"289.5 234.5 CURVE SMOOTH",
"235.5 147.167 OFFCURVE",
"177.167 79.167 OFFCURVE",
"116.5 38.5 CURVE SMOOTH",
"86.167 18.167 OFFCURVE",
"55.667 8 OFFCURVE",
"25 8 CURVE SMOOTH",
"12.333 8 OFFCURVE",
"3 10.333 OFFCURVE",
"-3 15 CURVE SMOOTH",
"-9 19.667 OFFCURVE",
"-12.333 23.667 OFFCURVE",
"-13 27 CURVE",
"-2.333 29.667 OFFCURVE",
"0 41.667 OFFCURVE",
"0 51 CURVE SMOOTH",
"0 68.333 OFFCURVE",
"-12.667 81 OFFCURVE",
"-30 81 CURVE SMOOTH",
"-51.333 81 OFFCURVE",
"-68 65.333 OFFCURVE",
"-68 44 CURVE SMOOTH",
"-68 8.198 OFFCURVE",
"-25.983 -8 OFFCURVE",
"9 -8 CURVE SMOOTH",
"81 -8 OFFCURVE",
"147.833 38.833 OFFCURVE",
"208.5 107.5 CURVE SMOOTH",
"238.833 141.833 OFFCURVE",
"267.5 180.333 OFFCURVE",
"294.5 223 CURVE SMOOTH",
"348.5 308.333 OFFCURVE",
"393.167 397.5 OFFCURVE",
"428.5 475.5 CURVE SMOOTH",
"446.167 514.5 OFFCURVE",
"461.333 547.333 OFFCURVE",
"474 574 CURVE",
"476 574 LINE",
"476 561.333 OFFCURVE",
"475.833 549.167 OFFCURVE",
"475.5 537.5 CURVE SMOOTH",
"475.167 525.833 OFFCURVE",
"475 514 OFFCURVE",
"475 502 CURVE SMOOTH",
"475 435.333 OFFCURVE",
"484.667 370.333 OFFCURVE",
"494 305 CURVE SMOOTH",
"503.333 238.333 OFFCURVE",
"513 173.667 OFFCURVE",
"513 107 CURVE SMOOTH",
"513 69.667 OFFCURVE",
"509 31.333 OFFCURVE",
"501 -8 CURVE",
"508 -8 LINE",
"582.667 162.667 OFFCURVE",
"662 327.333 OFFCURVE",
"746 458 CURVE SMOOTH",
"799.068 537.601 OFFCURVE",
"902.329 670 OFFCURVE",
"991 670 CURVE SMOOTH",
"1020.333 670 OFFCURVE",
"1040 651.667 OFFCURVE",
"1040 625 CURVE SMOOTH",
"1040 598.333 OFFCURVE",
"1029.333 563.667 OFFCURVE",
"1004 549 CURVE"
);
}
);
userData = {
assembly = "PUSHW[ ]\011/* 4 values pushed */
45 9 39 4 
CALL[ ]\011/* CallFunction */
PUSHW[ ]\011/* 4 values pushed */
68 7 23 4 
CALL[ ]\011/* CallFunction */
PUSHW[ ]\011/* 4 values pushed */
90 7 3 4 
CALL[ ]\011/* CallFunction */
NPUSHW[ ]\011/* 5 values pushed */
74 3 90 3 2 
DELTAP3[ ]\011/* DeltaExceptionP3 */
NPUSHW[ ]\011/* 15 values pushed */
153 3 169 3 185 3 201 3 217 3 233 3 249 3 7 
DELTAP1[ ]\011/* DeltaExceptionP1 */
NPUSHW[ ]\011/* 33 values pushed */
9 3 25 3 41 3 57 3 73 3 89 3 105 3 121 3 137 3 153 3 169 3 185 3 201 3 217 3 233 3 249 3 16 
DELTAP2[ ]\011/* DeltaExceptionP2 */
NPUSHW[ ]\011/* 9 values pushed */
9 3 25 3 41 3 57 3 4 
DELTAP3[ ]\011/* DeltaExceptionP3 */
NPUSHW[ ]\011/* 15 values pushed */
150 68 166 68 182 68 198 68 214 68 230 68 246 68 7 
DELTAP1[ ]\011/* DeltaExceptionP1 */
NPUSHW[ ]\011/* 33 values pushed */
6 68 22 68 38 68 54 68 70 68 86 68 102 68 118 68 134 68 150 68 166 68 182 68 198 68 214 68 230 68 246 68 16 
DELTAP2[ ]\011/* DeltaExceptionP2 */
NPUSHW[ ]\011/* 9 values pushed */
6 68 22 68 38 68 54 68 4 
DELTAP3[ ]\011/* DeltaExceptionP3 */
NPUSHW[ ]\011/* 5 values pushed */
69 68 85 68 2 
DELTAP3[ ]\011/* DeltaExceptionP3 */
PUSHW[ ]\011/* 3 values pushed */
17 23 68 
SRP1[ ]\011/* SetRefPoint1 */
SRP2[ ]\011/* SetRefPoint2 */
IP[ ]\011/* InterpolatePts */
PUSHW[ ]\011/* 1 value pushed */
17 
MDAP[1]\011/* MoveDirectAbsPt */
NPUSHW[ ]\011/* 5 values pushed */
74 17 90 17 2 
DELTAP3[ ]\011/* DeltaExceptionP3 */
NPUSHW[ ]\011/* 15 values pushed */
153 17 169 17 185 17 201 17 217 17 233 17 249 17 7 
DELTAP1[ ]\011/* DeltaExceptionP1 */
NPUSHW[ ]\011/* 33 values pushed */
9 17 25 17 41 17 57 17 73 17 89 17 105 17 121 17 137 17 153 17 169 17 185 17 201 17 217 17 233 17 249 17 16 
DELTAP2[ ]\011/* DeltaExceptionP2 */
NPUSHW[ ]\011/* 9 values pushed */
9 17 25 17 41 17 57 17 4 
DELTAP3[ ]\011/* DeltaExceptionP3 */
PUSHW[ ]\011/* 1 value pushed */
23 
SRP0[ ]\011/* SetRefPoint0 */
PUSHW[ ]\011/* 1 value pushed */
26 
MDRP[10000]\011/* MoveDirectRelPt */
PUSHW[ ]\011/* 1 value pushed */
26 
MDAP[1]\011/* MoveDirectAbsPt */
PUSHW[ ]\011/* 3 values pushed */
27 39 90 
SRP1[ ]\011/* SetRefPoint1 */
SRP2[ ]\011/* SetRefPoint2 */
IP[ ]\011/* InterpolatePts */
NPUSHW[ ]\011/* 15 values pushed */
150 45 166 45 182 45 198 45 214 45 230 45 246 45 7 
DELTAP1[ ]\011/* DeltaExceptionP1 */
NPUSHW[ ]\011/* 15 values pushed */
6 45 22 45 38 45 54 45 70 45 86 45 102 45 7 
DELTAP2[ ]\011/* DeltaExceptionP2 */
NPUSHW[ ]\011/* 5 values pushed */
117 45 133 45 2 
DELTAP2[ ]\011/* DeltaExceptionP2 */
PUSHW[ ]\011/* 1 value pushed */
17 
SRP0[ ]\011/* SetRefPoint0 */
PUSHW[ ]\011/* 2 values pushed */
73 7 
MIRP[10100]\011/* MoveIndirectRelPt */
PUSHW[ ]\011/* 3 values pushed */
63 17 73 
SRP1[ ]\011/* SetRefPoint1 */
SRP2[ ]\011/* SetRefPoint2 */
IP[ ]\011/* InterpolatePts */
PUSHW[ ]\011/* 3 values pushed */
77 17 73 
SRP1[ ]\011/* SetRefPoint1 */
SRP2[ ]\011/* SetRefPoint2 */
IP[ ]\011/* InterpolatePts */
PUSHW[ ]\011/* 1 value pushed */
90 
SRP0[ ]\011/* SetRefPoint0 */
PUSHW[ ]\011/* 1 value pushed */
97 
MDRP[11100]\011/* MoveDirectRelPt */
SVTCA[0]\011/* SetFreedomAndProjectionVectorToAxis */
PUSHW[ ]\011/* 1 value pushed */
63 
MDAP[1]\011/* MoveDirectAbsPt */
PUSHW[ ]\011/* 1 value pushed */
0 
RCVT[ ]\011/* ReadCVT */
IF[ ]\011/* If */
PUSHW[ ]\011/* 1 value pushed */
14 
MDAP[1]\011/* MoveDirectAbsPt */
ELSE[ ]\011/* Else */
PUSHW[ ]\011/* 2 values pushed */
14 10 
MIAP[0]\011/* MoveIndirectAbsPt */
EIF[ ]\011/* EndIf */
PUSHW[ ]\011/* 1 value pushed */
0 
RCVT[ ]\011/* ReadCVT */
IF[ ]\011/* If */
PUSHW[ ]\011/* 1 value pushed */
34 
MDAP[1]\011/* MoveDirectAbsPt */
ELSE[ ]\011/* Else */
PUSHW[ ]\011/* 2 values pushed */
34 10 
MIAP[0]\011/* MoveIndirectAbsPt */
EIF[ ]\011/* EndIf */
PUSHW[ ]\011/* 4 values pushed */
87 3 6 4 
CALL[ ]\011/* CallFunction */
PUSHW[ ]\011/* 3 values pushed */
27 14 63 
SRP1[ ]\011/* SetRefPoint1 */
SRP2[ ]\011/* SetRefPoint2 */
IP[ ]\011/* InterpolatePts */
PUSHW[ ]\011/* 1 value pushed */
34 
SRP0[ ]\011/* SetRefPoint0 */
PUSHW[ ]\011/* 2 values pushed */
42 1 
MIRP[10100]\011/* MoveIndirectRelPt */
NPUSHW[ ]\011/* 15 values pushed */
151 42 167 42 183 42 199 42 215 42 231 42 247 42 7 
DELTAP1[ ]\011/* DeltaExceptionP1 */
NPUSHW[ ]\011/* 15 values pushed */
7 42 23 42 39 42 55 42 71 42 87 42 103 42 7 
DELTAP2[ ]\011/* DeltaExceptionP2 */
NPUSHW[ ]\011/* 5 values pushed */
118 42 134 42 2 
DELTAP2[ ]\011/* DeltaExceptionP2 */
PUSHW[ ]\011/* 3 values pushed */
77 14 63 
SRP1[ ]\011/* SetRefPoint1 */
SRP2[ ]\011/* SetRefPoint2 */
IP[ ]\011/* InterpolatePts */
IUP[0]\011/* InterpolateUntPts */
IUP[1]\011/* InterpolateUntPts */";
};
width = 722;
}
);
note = N;
unicode = 004E;
},
{
glyphname = O;
lastChange = "2018-11-16 05:15:47 +0000";
layers = (
{
layerId = "C82BC34C-76D5-4A26-949B-BF353CFC0606";
paths = (
{
closed = 1;
nodes = (
"698 583 LINE",
"698 637.105 OFFCURVE",
"678.66 679 OFFCURVE",
"616 679 CURVE SMOOTH",
"602 679 LINE",
"600 681 LINE",
"614.667 691.667 OFFCURVE",
"640 700 OFFCURVE",
"664 700 CURVE SMOOTH",
"727.181 700 OFFCURVE",
"736 638.774 OFFCURVE",
"736 581 CURVE SMOOTH",
"736 459.667 OFFCURVE",
"695 337.667 OFFCURVE",
"631 235 CURVE",
"548.333 286.333 OFFCURVE",
"507 363.667 OFFCURVE",
"507 467 CURVE SMOOTH",
"507 541.78 OFFCURVE",
"545.287 622.45 OFFCURVE",
"585 665 CURVE",
"589 666.333 OFFCURVE",
"593 667 OFFCURVE",
"597 667 CURVE SMOOTH",
"601.667 667 OFFCURVE",
"605.667 667 OFFCURVE",
"609 667 CURVE SMOOTH",
"669.283 667 OFFCURVE",
"686 633.276 OFFCURVE",
"686 583 CURVE"
);
},
{
closed = 1;
nodes = (
"232 254 OFFCURVE",
"273.5 370 OFFCURVE",
"335.5 466 CURVE SMOOTH",
"397.5 562 OFFCURVE",
"480 636.667 OFFCURVE",
"564 662 CURVE",
"566 660 LINE",
"514.555 603.656 OFFCURVE",
"491 518.548 OFFCURVE",
"491 459 CURVE SMOOTH",
"491 360.333 OFFCURVE",
"537 277 OFFCURVE",
"625 225 CURVE",
"574.226 136.813 OFFCURVE",
"437.638 8 OFFCURVE",
"340 8 CURVE SMOOTH",
"269.589 8 OFFCURVE",
"232 78.801 OFFCURVE",
"232 146 CURVE SMOOTH"
);
},
{
closed = 1;
nodes = (
"897 270 LINE",
"854.333 231.333 OFFCURVE",
"800.333 205 OFFCURVE",
"747 205 CURVE SMOOTH",
"709.667 205 OFFCURVE",
"680.667 211 OFFCURVE",
"654 223 CURVE",
"713.689 306.045 OFFCURVE",
"784 453.621 OFFCURVE",
"784 558 CURVE SMOOTH",
"784 659.333 OFFCURVE",
"748.333 712 OFFCURVE",
"667 712 CURVE SMOOTH",
"632.333 712 OFFCURVE",
"601 695.667 OFFCURVE",
"581 677 CURVE",
"533 669 OFFCURVE",
"471.333 636.333 OFFCURVE",
"410 587 CURVE SMOOTH",
"379.333 562.333 OFFCURVE",
"349.5 534 OFFCURVE",
"320.5 502 CURVE SMOOTH",
"262.5 438 OFFCURVE",
"215.833 363.167 OFFCURVE",
"188.5 282.5 CURVE SMOOTH",
"174.833 242.167 OFFCURVE",
"168 201.333 OFFCURVE",
"168 160 CURVE SMOOTH",
"168 57.333 OFFCURVE",
"220.667 -8 OFFCURVE",
"326 -8 CURVE SMOOTH",
"443.713 -8 OFFCURVE",
"582.705 117.778 OFFCURVE",
"648 213 CURVE",
"674.667 202.333 OFFCURVE",
"703.333 193 OFFCURVE",
"746 193 CURVE SMOOTH",
"796.108 193 OFFCURVE",
"864.635 222.078 OFFCURVE",
"903 263 CURVE"
);
}
);
userData = {
assembly = "PUSHW[ ]\011/* 4 values pushed */
35 9 75 4 
CALL[ ]\011/* CallFunction */
PUSHW[ ]\011/* 3 values pushed */
34 48 3 
CALL[ ]\011/* CallFunction */
PUSHW[ ]\011/* 4 values pushed */
88 7 19 4 
CALL[ ]\011/* CallFunction */
NPUSHW[ ]\011/* 5 values pushed */
74 19 90 19 2 
DELTAP3[ ]\011/* DeltaExceptionP3 */
NPUSHW[ ]\011/* 15 values pushed */
153 19 169 19 185 19 201 19 217 19 233 19 249 19 7 
DELTAP1[ ]\011/* DeltaExceptionP1 */
NPUSHW[ ]\011/* 33 values pushed */
9 19 25 19 41 19 57 19 73 19 89 19 105 19 121 19 137 19 153 19 169 19 185 19 201 19 217 19 233 19 249 19 16 
DELTAP2[ ]\011/* DeltaExceptionP2 */
NPUSHW[ ]\011/* 9 values pushed */
9 19 25 19 41 19 57 19 4 
DELTAP3[ ]\011/* DeltaExceptionP3 */
PUSHW[ ]\011/* 3 values pushed */
28 48 34 
SRP1[ ]\011/* SetRefPoint1 */
SRP2[ ]\011/* SetRefPoint2 */
IP[ ]\011/* InterpolatePts */
NPUSHW[ ]\011/* 15 values pushed */
150 35 166 35 182 35 198 35 214 35 230 35 246 35 7 
DELTAP1[ ]\011/* DeltaExceptionP1 */
NPUSHW[ ]\011/* 15 values pushed */
6 35 22 35 38 35 54 35 70 35 86 35 102 35 7 
DELTAP2[ ]\011/* DeltaExceptionP2 */
NPUSHW[ ]\011/* 5 values pushed */
117 35 133 35 2 
DELTAP2[ ]\011/* DeltaExceptionP2 */
PUSHW[ ]\011/* 3 values pushed */
54 48 34 
SRP1[ ]\011/* SetRefPoint1 */
SRP2[ ]\011/* SetRefPoint2 */
IP[ ]\011/* InterpolatePts */
PUSHW[ ]\011/* 1 value pushed */
88 
SRP0[ ]\011/* SetRefPoint0 */
PUSHW[ ]\011/* 1 value pushed */
101 
MDRP[11100]\011/* MoveDirectRelPt */
SVTCA[0]\011/* SetFreedomAndProjectionVectorToAxis */
PUSHW[ ]\011/* 1 value pushed */
0 
RCVT[ ]\011/* ReadCVT */
IF[ ]\011/* If */
PUSHW[ ]\011/* 1 value pushed */
72 
MDAP[1]\011/* MoveDirectAbsPt */
ELSE[ ]\011/* Else */
PUSHW[ ]\011/* 2 values pushed */
72 10 
MIAP[0]\011/* MoveIndirectAbsPt */
EIF[ ]\011/* EndIf */
PUSHW[ ]\011/* 4 values pushed */
85 3 5 4 
CALL[ ]\011/* CallFunction */
PUSHW[ ]\011/* 1 value pushed */
5 
SRP0[ ]\011/* SetRefPoint0 */
PUSHW[ ]\011/* 1 value pushed */
7 
MDRP[10000]\011/* MoveDirectRelPt */
PUSHW[ ]\011/* 3 values pushed */
28 5 85 
SRP1[ ]\011/* SetRefPoint1 */
SRP2[ ]\011/* SetRefPoint2 */
IP[ ]\011/* InterpolatePts */
IUP[0]\011/* InterpolateUntPts */
IUP[1]\011/* InterpolateUntPts */";
};
width = 778;
}
);
note = O;
unicode = 004F;
},
{
glyphname = P;
lastChange = "2018-11-16 05:15:47 +0000";
layers = (
{
layerId = "C82BC34C-76D5-4A26-949B-BF353CFC0606";
paths = (
{
closed = 1;
nodes = (
"977 727 LINE",
"939.667 717.667 OFFCURVE",
"904.333 705.667 OFFCURVE",
"871 691 CURVE",
"840.333 704.333 OFFCURVE",
"806.667 712 OFFCURVE",
"756 712 CURVE SMOOTH",
"657.333 712 OFFCURVE",
"560 687.833 OFFCURVE",
"476 648.5 CURVE SMOOTH",
"434 628.833 OFFCURVE",
"395.333 605.833 OFFCURVE",
"360 579.5 CURVE SMOOTH",
"289.333 526.833 OFFCURVE",
"238.167 465.833 OFFCURVE",
"209.5 402.5 CURVE SMOOTH",
"195.167 370.833 OFFCURVE",
"188 339.667 OFFCURVE",
"188 309 CURVE SMOOTH",
"188 240.397 OFFCURVE",
"236.13 184 OFFCURVE",
"305 184 CURVE SMOOTH",
"414.55 184 OFFCURVE",
"502 302.068 OFFCURVE",
"502 406 CURVE SMOOTH",
"502 444 LINE",
"490 444 LINE",
"490 406 LINE SMOOTH",
"490 309.32 OFFCURVE",
"408.325 196 OFFCURVE",
"309 196 CURVE SMOOTH",
"250.333 196 OFFCURVE",
"220 232 OFFCURVE",
"220 296 CURVE SMOOTH",
"220 376 OFFCURVE",
"254.333 448.167 OFFCURVE",
"309 507.5 CURVE SMOOTH",
"336.333 537.167 OFFCURVE",
"367.833 564 OFFCURVE",
"403.5 588 CURVE SMOOTH",
"474.833 636 OFFCURVE",
"554.833 668.5 OFFCURVE",
"635.5 686.5 CURVE SMOOTH",
"675.833 695.5 OFFCURVE",
"714 700 OFFCURVE",
"750 700 CURVE SMOOTH",
"782 700 OFFCURVE",
"827 696.333 OFFCURVE",
"855 683 CURVE",
"773.667 647 OFFCURVE",
"700.833 565.833 OFFCURVE",
"633.5 470.5 CURVE SMOOTH",
"599.833 422.833 OFFCURVE",
"567.167 373.5 OFFCURVE",
"535.5 322.5 CURVE SMOOTH",
"472.167 220.5 OFFCURVE",
"411.667 130.333 OFFCURVE",
"353 69 CURVE SMOOTH",
"323.667 38.333 OFFCURVE",
"294.333 19.667 OFFCURVE",
"265 13 CURVE",
"185.383 28.923 OFFCURVE",
"112.434 42 OFFCURVE",
"52 42 CURVE SMOOTH",
"32 42 OFFCURVE",
"18 39.333 OFFCURVE",
"10 34 CURVE SMOOTH",
"2 28.667 OFFCURVE",
"-2 21.667 OFFCURVE",
"-2 13 CURVE SMOOTH",
"-2 4.333 OFFCURVE",
"5 -2.667 OFFCURVE",
"19 -8 CURVE SMOOTH",
"33 -13.333 OFFCURVE",
"56.667 -16 OFFCURVE",
"90 -16 CURVE SMOOTH",
"142 -16 OFFCURVE",
"183 -12.667 OFFCURVE",
"213 -6 CURVE SMOOTH",
"243 0.667 OFFCURVE",
"261 4 OFFCURVE",
"267 4 CURVE",
"317.667 -6.667 OFFCURVE",
"386.667 -16 OFFCURVE",
"440 -16 CURVE SMOOTH",
"552 -16 OFFCURVE",
"636.667 5.833 OFFCURVE",
"710 50.5 CURVE SMOOTH",
"783.333 95.167 OFFCURVE",
"843 162.333 OFFCURVE",
"903 253 CURVE",
"895 257 LINE",
"789.667 94.333 OFFCURVE",
"647.667 -4 OFFCURVE",
"449 -4 CURVE SMOOTH",
"389 -4 OFFCURVE",
"341.667 -1.333 OFFCURVE",
"283 8 CURVE",
"283 10 LINE",
"383 44.667 OFFCURVE",
"458.167 116.833 OFFCURVE",
"521.5 201.5 CURVE SMOOTH",
"553.167 243.833 OFFCURVE",
"582.667 288.5 OFFCURVE",
"610 335.5 CURVE SMOOTH",
"664.667 429.5 OFFCURVE",
"717.667 519 OFFCURVE",
"775 591 CURVE SMOOTH",
"803.667 627 OFFCURVE",
"835.333 655 OFFCURVE",
"870 675 CURVE",
"899.333 655 OFFCURVE",
"913 626 OFFCURVE",
"913 578 CURVE SMOOTH",
"913 480.439 OFFCURVE",
"846.264 362 OFFCURVE",
"774 362 CURVE SMOOTH",
"752.667 362 OFFCURVE",
"738 372.333 OFFCURVE",
"738 395 CURVE SMOOTH",
"738 405.667 OFFCURVE",
"743.333 413 OFFCURVE",
"750 421 CURVE",
"746 430.333 OFFCURVE",
"733.333 437 OFFCURVE",
"724 437 CURVE SMOOTH",
"704 437 OFFCURVE",
"690 420.667 OFFCURVE",
"690 402 CURVE SMOOTH",
"690 371.333 OFFCURVE",
"715.333 350 OFFCURVE",
"762 350 CURVE SMOOTH",
"853.796 350 OFFCURVE",
"967 441.214 OFFCURVE",
"967 539 CURVE SMOOTH",
"967 603 OFFCURVE",
"943.667 650.667 OFFCURVE",
"885 684 CURVE",
"911.667 700 OFFCURVE",
"948.333 712.333 OFFCURVE",
"979 723 CURVE"
);
}
);
userData = {
assembly = "PUSHW[ ]\011/* 4 values pushed */
6 4 31 4 
CALL[ ]\011/* CallFunction */
PUSHW[ ]\011/* 4 values pushed */
23 7 14 4 
CALL[ ]\011/* CallFunction */
PUSHW[ ]\011/* 4 values pushed */
88 5 109 4 
CALL[ ]\011/* CallFunction */
PUSHW[ ]\011/* 3 values pushed */
3 109 6 
SRP1[ ]\011/* SetRefPoint1 */
SRP2[ ]\011/* SetRefPoint2 */
IP[ ]\011/* InterpolatePts */
NPUSHW[ ]\011/* 5 values pushed */
74 14 90 14 2 
DELTAP3[ ]\011/* DeltaExceptionP3 */
NPUSHW[ ]\011/* 15 values pushed */
153 14 169 14 185 14 201 14 217 14 233 14 249 14 7 
DELTAP1[ ]\011/* DeltaExceptionP1 */
NPUSHW[ ]\011/* 33 values pushed */
9 14 25 14 41 14 57 14 73 14 89 14 105 14 121 14 137 14 153 14 169 14 185 14 201 14 217 14 233 14 249 14 16 
DELTAP2[ ]\011/* DeltaExceptionP2 */
NPUSHW[ ]\011/* 9 values pushed */
9 14 25 14 41 14 57 14 4 
DELTAP3[ ]\011/* DeltaExceptionP3 */
NPUSHW[ ]\011/* 5 values pushed */
122 31 138 31 2 
DELTAP2[ ]\011/* DeltaExceptionP2 */
NPUSHW[ ]\011/* 15 values pushed */
153 31 169 31 185 31 201 31 217 31 233 31 249 31 7 
DELTAP1[ ]\011/* DeltaExceptionP1 */
NPUSHW[ ]\011/* 15 values pushed */
9 31 25 31 41 31 57 31 73 31 89 31 105 31 7 
DELTAP2[ ]\011/* DeltaExceptionP2 */
PUSHW[ ]\011/* 3 values pushed */
42 109 6 
SRP1[ ]\011/* SetRefPoint1 */
SRP2[ ]\011/* SetRefPoint2 */
IP[ ]\011/* InterpolatePts */
PUSHW[ ]\011/* 3 values pushed */
78 109 6 
SRP1[ ]\011/* SetRefPoint1 */
SRP2[ ]\011/* SetRefPoint2 */
IP[ ]\011/* InterpolatePts */
NPUSHW[ ]\011/* 15 values pushed */
150 88 166 88 182 88 198 88 214 88 230 88 246 88 7 
DELTAP1[ ]\011/* DeltaExceptionP1 */
NPUSHW[ ]\011/* 33 values pushed */
6 88 22 88 38 88 54 88 70 88 86 88 102 88 118 88 134 88 150 88 166 88 182 88 198 88 214 88 230 88 246 88 16 
DELTAP2[ ]\011/* DeltaExceptionP2 */
NPUSHW[ ]\011/* 9 values pushed */
6 88 22 88 38 88 54 88 4 
DELTAP3[ ]\011/* DeltaExceptionP3 */
NPUSHW[ ]\011/* 5 values pushed */
69 88 85 88 2 
DELTAP3[ ]\011/* DeltaExceptionP3 */
PUSHW[ ]\011/* 1 value pushed */
6 
SRP0[ ]\011/* SetRefPoint0 */
PUSHW[ ]\011/* 1 value pushed */
123 
MDRP[11100]\011/* MoveDirectRelPt */
SVTCA[0]\011/* SetFreedomAndProjectionVectorToAxis */
PUSHW[ ]\011/* 1 value pushed */
121 
MDAP[1]\011/* MoveDirectAbsPt */
PUSHW[ ]\011/* 1 value pushed */
0 
RCVT[ ]\011/* ReadCVT */
IF[ ]\011/* If */
PUSHW[ ]\011/* 1 value pushed */
45 
MDAP[1]\011/* MoveDirectAbsPt */
ELSE[ ]\011/* Else */
PUSHW[ ]\011/* 2 values pushed */
45 10 
MIAP[0]\011/* MoveIndirectAbsPt */
EIF[ ]\011/* EndIf */
PUSHW[ ]\011/* 1 value pushed */
0 
RCVT[ ]\011/* ReadCVT */
IF[ ]\011/* If */
PUSHW[ ]\011/* 1 value pushed */
54 
MDAP[1]\011/* MoveDirectAbsPt */
ELSE[ ]\011/* Else */
PUSHW[ ]\011/* 2 values pushed */
54 10 
MIAP[0]\011/* MoveIndirectAbsPt */
EIF[ ]\011/* EndIf */
PUSHW[ ]\011/* 1 value pushed */
0 
RCVT[ ]\011/* ReadCVT */
IF[ ]\011/* If */
PUSHW[ ]\011/* 1 value pushed */
60 
MDAP[1]\011/* MoveDirectAbsPt */
ELSE[ ]\011/* Else */
PUSHW[ ]\011/* 2 values pushed */
60 10 
MIAP[0]\011/* MoveIndirectAbsPt */
EIF[ ]\011/* EndIf */
PUSHW[ ]\011/* 4 values pushed */
17 1 11 4 
CALL[ ]\011/* CallFunction */
PUSHW[ ]\011/* 3 values pushed */
3 54 121 
SRP1[ ]\011/* SetRefPoint1 */
SRP2[ ]\011/* SetRefPoint2 */
IP[ ]\011/* InterpolatePts */
PUSHW[ ]\011/* 1 value pushed */
60 
SRP0[ ]\011/* SetRefPoint0 */
PUSHW[ ]\011/* 2 values pushed */
66 1 
MIRP[10100]\011/* MoveIndirectRelPt */
NPUSHW[ ]\011/* 15 values pushed */
151 66 167 66 183 66 199 66 215 66 231 66 247 66 7 
DELTAP1[ ]\011/* DeltaExceptionP1 */
NPUSHW[ ]\011/* 15 values pushed */
7 66 23 66 39 66 55 66 71 66 87 66 103 66 7 
DELTAP2[ ]\011/* DeltaExceptionP2 */
NPUSHW[ ]\011/* 5 values pushed */
118 66 134 66 2 
DELTAP2[ ]\011/* DeltaExceptionP2 */
PUSHW[ ]\011/* 3 values pushed */
42 60 66 
SRP1[ ]\011/* SetRefPoint1 */
SRP2[ ]\011/* SetRefPoint2 */
IP[ ]\011/* InterpolatePts */
PUSHW[ ]\011/* 3 values pushed */
78 54 121 
SRP1[ ]\011/* SetRefPoint1 */
SRP2[ ]\011/* SetRefPoint2 */
IP[ ]\011/* InterpolatePts */
PUSHW[ ]\011/* 1 value pushed */
54 
SRP0[ ]\011/* SetRefPoint0 */
PUSHW[ ]\011/* 1 value pushed */
91 
MDRP[11100]\011/* MoveDirectRelPt */
NPUSHW[ ]\011/* 15 values pushed */
151 91 167 91 183 91 199 91 215 91 231 91 247 91 7 
DELTAP1[ ]\011/* DeltaExceptionP1 */
NPUSHW[ ]\011/* 13 values pushed */
7 91 23 91 39 91 55 91 71 91 87 91 6 
DELTAP2[ ]\011/* DeltaExceptionP2 */
NPUSHW[ ]\011/* 5 values pushed */
102 91 118 91 2 
DELTAP2[ ]\011/* DeltaExceptionP2 */
PUSHW[ ]\011/* 1 value pushed */
17 
SRP0[ ]\011/* SetRefPoint0 */
PUSHW[ ]\011/* 1 value pushed */
97 
MDRP[10000]\011/* MoveDirectRelPt */
PUSHW[ ]\011/* 1 value pushed */
97 
MDAP[1]\011/* MoveDirectAbsPt */
IUP[0]\011/* InterpolateUntPts */
IUP[1]\011/* InterpolateUntPts */";
};
width = 778;
}
);
note = P;
unicode = 0050;
},
{
glyphname = Q;
lastChange = "2018-11-16 05:15:47 +0000";
layers = (
{
layerId = "C82BC34C-76D5-4A26-949B-BF353CFC0606";
paths = (
{
closed = 1;
nodes = (
"608 415 LINE",
"558.085 367.858 OFFCURVE",
"519.788 338 OFFCURVE",
"442 338 CURVE SMOOTH",
"371.333 338 OFFCURVE",
"335 379 OFFCURVE",
"335 447 CURVE SMOOTH",
"335 580.111 OFFCURVE",
"471.83 700 OFFCURVE",
"602 700 CURVE SMOOTH",
"680.876 700 OFFCURVE",
"729 643.597 OFFCURVE",
"729 567 CURVE SMOOTH",
"729 488.333 OFFCURVE",
"694.667 413.5 OFFCURVE",
"644 347.5 CURVE SMOOTH",
"618.667 314.5 OFFCURVE",
"590 283.667 OFFCURVE",
"558 255 CURVE SMOOTH",
"494 197.667 OFFCURVE",
"425 149.167 OFFCURVE",
"361 112.5 CURVE SMOOTH",
"329 94.167 OFFCURVE",
"300.667 78.667 OFFCURVE",
"276 66 CURVE",
"228 76.667 OFFCURVE",
"166.667 85 OFFCURVE",
"116 85 CURVE SMOOTH",
"72.667 85 OFFCURVE",
"37.5 80.667 OFFCURVE",
"10.5 72 CURVE SMOOTH",
"-16.5 63.333 OFFCURVE",
"-30 48.667 OFFCURVE",
"-30 28 CURVE SMOOTH",
"-30 4 OFFCURVE",
"4 -8 OFFCURVE",
"48 -8 CURVE SMOOTH",
"108 -8 OFFCURVE",
"165.667 3.667 OFFCURVE",
"231 33 CURVE",
"274.453 11.273 OFFCURVE",
"361.536 -26 OFFCURVE",
"432 -26 CURVE SMOOTH",
"522.667 -26 OFFCURVE",
"603.5 13.833 OFFCURVE",
"673.5 70.5 CURVE SMOOTH",
"743.5 127.167 OFFCURVE",
"802.333 200.667 OFFCURVE",
"849 266 CURVE",
"843 270 LINE",
"758.388 163.452 OFFCURVE",
"659.397 26 OFFCURVE",
"494 26 CURVE SMOOTH",
"415.333 26 OFFCURVE",
"349 42.333 OFFCURVE",
"289 61 CURVE",
"346.333 86.333 OFFCURVE",
"422.333 128.167 OFFCURVE",
"497 179.5 CURVE SMOOTH",
"534.333 205.167 OFFCURVE",
"570.667 233 OFFCURVE",
"606 263 CURVE SMOOTH",
"676.667 323 OFFCURVE",
"733.5 389.833 OFFCURVE",
"767.5 458.5 CURVE SMOOTH",
"784.5 492.833 OFFCURVE",
"793 527 OFFCURVE",
"793 561 CURVE SMOOTH",
"793 665.517 OFFCURVE",
"724.585 712 OFFCURVE",
"622 712 CURVE SMOOTH",
"461.696 712 OFFCURVE",
"303 586.419 OFFCURVE",
"303 458 CURVE SMOOTH",
"303 379.333 OFFCURVE",
"359.333 326 OFFCURVE",
"442 326 CURVE SMOOTH",
"512.667 326 OFFCURVE",
"566 356 OFFCURVE",
"614 408 CURVE"
);
},
{
closed = 1;
nodes = (
"6 61.206 OFFCURVE",
"48.335 69 OFFCURVE",
"75 69 CURVE SMOOTH",
"124.333 69 OFFCURVE",
"175.333 57.667 OFFCURVE",
"218 39 CURVE",
"192.188 27.528 OFFCURVE",
"115.719 4 OFFCURVE",
"73 4 CURVE SMOOTH",
"28.333 4 OFFCURVE",
"6 13.667 OFFCURVE",
"6 33 CURVE SMOOTH"
);
}
);
userData = {
assembly = "PUSHW[ ]\011/* 4 values pushed */
80 5 48 4 
CALL[ ]\011/* CallFunction */
PUSHW[ ]\011/* 4 values pushed */
71 5 6 4 
CALL[ ]\011/* CallFunction */
PUSHW[ ]\011/* 4 values pushed */
16 9 61 4 
CALL[ ]\011/* CallFunction */
PUSHW[ ]\011/* 3 values pushed */
23 48 16 
SRP1[ ]\011/* SetRefPoint1 */
SRP2[ ]\011/* SetRefPoint2 */
IP[ ]\011/* InterpolatePts */
NPUSHW[ ]\011/* 5 values pushed */
122 61 138 61 2 
DELTAP2[ ]\011/* DeltaExceptionP2 */
NPUSHW[ ]\011/* 15 values pushed */
153 61 169 61 185 61 201 61 217 61 233 61 249 61 7 
DELTAP1[ ]\011/* DeltaExceptionP1 */
NPUSHW[ ]\011/* 15 values pushed */
9 61 25 61 41 61 57 61 73 61 89 61 105 61 7 
DELTAP2[ ]\011/* DeltaExceptionP2 */
NPUSHW[ ]\011/* 15 values pushed */
150 71 166 71 182 71 198 71 214 71 230 71 246 71 7 
DELTAP1[ ]\011/* DeltaExceptionP1 */
NPUSHW[ ]\011/* 33 values pushed */
6 71 22 71 38 71 54 71 70 71 86 71 102 71 118 71 134 71 150 71 166 71 182 71 198 71 214 71 230 71 246 71 16 
DELTAP2[ ]\011/* DeltaExceptionP2 */
NPUSHW[ ]\011/* 9 values pushed */
6 71 22 71 38 71 54 71 4 
DELTAP3[ ]\011/* DeltaExceptionP3 */
NPUSHW[ ]\011/* 5 values pushed */
69 71 85 71 2 
DELTAP3[ ]\011/* DeltaExceptionP3 */
NPUSHW[ ]\011/* 15 values pushed */
150 80 166 80 182 80 198 80 214 80 230 80 246 80 7 
DELTAP1[ ]\011/* DeltaExceptionP1 */
NPUSHW[ ]\011/* 33 values pushed */
6 80 22 80 38 80 54 80 70 80 86 80 102 80 118 80 134 80 150 80 166 80 182 80 198 80 214 80 230 80 246 80 16 
DELTAP2[ ]\011/* DeltaExceptionP2 */
NPUSHW[ ]\011/* 9 values pushed */
6 80 22 80 38 80 54 80 4 
DELTAP3[ ]\011/* DeltaExceptionP3 */
NPUSHW[ ]\011/* 5 values pushed */
69 80 85 80 2 
DELTAP3[ ]\011/* DeltaExceptionP3 */
PUSHW[ ]\011/* 3 values pushed */
87 48 16 
SRP1[ ]\011/* SetRefPoint1 */
SRP2[ ]\011/* SetRefPoint2 */
IP[ ]\011/* InterpolatePts */
PUSHW[ ]\011/* 1 value pushed */
16 
SRP0[ ]\011/* SetRefPoint0 */
PUSHW[ ]\011/* 1 value pushed */
96 
MDRP[11100]\011/* MoveDirectRelPt */
SVTCA[0]\011/* SetFreedomAndProjectionVectorToAxis */
PUSHW[ ]\011/* 1 value pushed */
11 
MDAP[1]\011/* MoveDirectAbsPt */
PUSHW[ ]\011/* 1 value pushed */
0 
RCVT[ ]\011/* ReadCVT */
IF[ ]\011/* If */
PUSHW[ ]\011/* 1 value pushed */
45 
MDAP[1]\011/* MoveDirectAbsPt */
ELSE[ ]\011/* Else */
PUSHW[ ]\011/* 2 values pushed */
45 10 
MIAP[0]\011/* MoveIndirectAbsPt */
EIF[ ]\011/* EndIf */
PUSHW[ ]\011/* 4 values pushed */
26 3 37 4 
CALL[ ]\011/* CallFunction */
PUSHW[ ]\011/* 1 value pushed */
45 
SRP0[ ]\011/* SetRefPoint0 */
PUSHW[ ]\011/* 2 values pushed */
51 1 
MIRP[10100]\011/* MoveIndirectRelPt */
NPUSHW[ ]\011/* 15 values pushed */
151 51 167 51 183 51 199 51 215 51 231 51 247 51 7 
DELTAP1[ ]\011/* DeltaExceptionP1 */
NPUSHW[ ]\011/* 15 values pushed */
7 51 23 51 39 51 55 51 71 51 87 51 103 51 7 
DELTAP2[ ]\011/* DeltaExceptionP2 */
NPUSHW[ ]\011/* 5 values pushed */
118 51 134 51 2 
DELTAP2[ ]\011/* DeltaExceptionP2 */
PUSHW[ ]\011/* 3 values pushed */
23 45 51 
SRP1[ ]\011/* SetRefPoint1 */
SRP2[ ]\011/* SetRefPoint2 */
IP[ ]\011/* InterpolatePts */
PUSHW[ ]\011/* 3 values pushed */
87 45 51 
SRP1[ ]\011/* SetRefPoint1 */
SRP2[ ]\011/* SetRefPoint2 */
IP[ ]\011/* InterpolatePts */
IUP[0]\011/* InterpolateUntPts */
IUP[1]\011/* InterpolateUntPts */";
};
width = 722;
}
);
note = Q;
unicode = 0051;
},
